<?xml version="1.0" encoding="utf-8" standalone="no"?>
<!DOCTYPE svg PUBLIC "-//W3C//DTD SVG 1.1//EN"
  "http://www.w3.org/Graphics/SVG/1.1/DTD/svg11.dtd">
<svg xmlns:xlink="http://www.w3.org/1999/xlink" width="1628.594687pt" height="953.596875pt" viewBox="0 0 1628.594687 953.596875" xmlns="http://www.w3.org/2000/svg" version="1.1">
 <metadata>
  <rdf:RDF xmlns:dc="http://purl.org/dc/elements/1.1/" xmlns:cc="http://creativecommons.org/ns#" xmlns:rdf="http://www.w3.org/1999/02/22-rdf-syntax-ns#">
   <cc:Work>
    <dc:type rdf:resource="http://purl.org/dc/dcmitype/StillImage"/>
    <dc:date>2026-03-13T14:55:13.349484</dc:date>
    <dc:format>image/svg+xml</dc:format>
    <dc:creator>
     <cc:Agent>
      <dc:title>Matplotlib v3.10.8, https://matplotlib.org/</dc:title>
     </cc:Agent>
    </dc:creator>
   </cc:Work>
  </rdf:RDF>
 </metadata>
 <defs>
  <style type="text/css">*{stroke-linejoin: round; stroke-linecap: butt}</style>
 </defs>
 <g id="figure_1">
  <g id="patch_1">
   <path d="M 0 953.596875 
L 1628.594687 953.596875 
L 1628.594687 0 
L 0 0 
z
" style="fill: #ffffff"/>
  </g>
  <g id="axes_1">
   <g id="patch_2">
    <path d="M 133.507187 190.679049 
L 1602.307187 190.679049 
L 1602.307187 43.976875 
L 133.507187 43.976875 
z
" style="fill: #ffffff"/>
   </g>
   <g id="matplotlib.axis_1">
    <g id="xtick_1">
     <g id="line2d_1">
      <path d="M 282.037525 190.679049 
L 282.037525 43.976875 
" clip-path="url(#p775370a8ad)" style="fill: none; stroke: #b0b0b0; stroke-opacity: 0.3; stroke-width: 0.8; stroke-linecap: square"/>
     </g>
     <g id="line2d_2">
      <defs>
       <path id="m324a900ee8" d="M 0 0 
L 0 3.5 
" style="stroke: #000000; stroke-width: 0.8"/>
      </defs>
      <g>
       <use xlink:href="#m324a900ee8" x="282.037525" y="190.679049" style="stroke: #000000; stroke-width: 0.8"/>
      </g>
     </g>
    </g>
    <g id="xtick_2">
     <g id="line2d_3">
      <path d="M 447.071232 190.679049 
L 447.071232 43.976875 
" clip-path="url(#p775370a8ad)" style="fill: none; stroke: #b0b0b0; stroke-opacity: 0.3; stroke-width: 0.8; stroke-linecap: square"/>
     </g>
     <g id="line2d_4">
      <g>
       <use xlink:href="#m324a900ee8" x="447.071232" y="190.679049" style="stroke: #000000; stroke-width: 0.8"/>
      </g>
     </g>
    </g>
    <g id="xtick_3">
     <g id="line2d_5">
      <path d="M 612.10494 190.679049 
L 612.10494 43.976875 
" clip-path="url(#p775370a8ad)" style="fill: none; stroke: #b0b0b0; stroke-opacity: 0.3; stroke-width: 0.8; stroke-linecap: square"/>
     </g>
     <g id="line2d_6">
      <g>
       <use xlink:href="#m324a900ee8" x="612.10494" y="190.679049" style="stroke: #000000; stroke-width: 0.8"/>
      </g>
     </g>
    </g>
    <g id="xtick_4">
     <g id="line2d_7">
      <path d="M 777.138648 190.679049 
L 777.138648 43.976875 
" clip-path="url(#p775370a8ad)" style="fill: none; stroke: #b0b0b0; stroke-opacity: 0.3; stroke-width: 0.8; stroke-linecap: square"/>
     </g>
     <g id="line2d_8">
      <g>
       <use xlink:href="#m324a900ee8" x="777.138648" y="190.679049" style="stroke: #000000; stroke-width: 0.8"/>
      </g>
     </g>
    </g>
    <g id="xtick_5">
     <g id="line2d_9">
      <path d="M 942.172356 190.679049 
L 942.172356 43.976875 
" clip-path="url(#p775370a8ad)" style="fill: none; stroke: #b0b0b0; stroke-opacity: 0.3; stroke-width: 0.8; stroke-linecap: square"/>
     </g>
     <g id="line2d_10">
      <g>
       <use xlink:href="#m324a900ee8" x="942.172356" y="190.679049" style="stroke: #000000; stroke-width: 0.8"/>
      </g>
     </g>
    </g>
    <g id="xtick_6">
     <g id="line2d_11">
      <path d="M 1107.206064 190.679049 
L 1107.206064 43.976875 
" clip-path="url(#p775370a8ad)" style="fill: none; stroke: #b0b0b0; stroke-opacity: 0.3; stroke-width: 0.8; stroke-linecap: square"/>
     </g>
     <g id="line2d_12">
      <g>
       <use xlink:href="#m324a900ee8" x="1107.206064" y="190.679049" style="stroke: #000000; stroke-width: 0.8"/>
      </g>
     </g>
    </g>
    <g id="xtick_7">
     <g id="line2d_13">
      <path d="M 1272.239772 190.679049 
L 1272.239772 43.976875 
" clip-path="url(#p775370a8ad)" style="fill: none; stroke: #b0b0b0; stroke-opacity: 0.3; stroke-width: 0.8; stroke-linecap: square"/>
     </g>
     <g id="line2d_14">
      <g>
       <use xlink:href="#m324a900ee8" x="1272.239772" y="190.679049" style="stroke: #000000; stroke-width: 0.8"/>
      </g>
     </g>
    </g>
    <g id="xtick_8">
     <g id="line2d_15">
      <path d="M 1437.27348 190.679049 
L 1437.27348 43.976875 
" clip-path="url(#p775370a8ad)" style="fill: none; stroke: #b0b0b0; stroke-opacity: 0.3; stroke-width: 0.8; stroke-linecap: square"/>
     </g>
     <g id="line2d_16">
      <g>
       <use xlink:href="#m324a900ee8" x="1437.27348" y="190.679049" style="stroke: #000000; stroke-width: 0.8"/>
      </g>
     </g>
    </g>
    <g id="xtick_9">
     <g id="line2d_17">
      <path d="M 1602.307187 190.679049 
L 1602.307187 43.976875 
" clip-path="url(#p775370a8ad)" style="fill: none; stroke: #b0b0b0; stroke-opacity: 0.3; stroke-width: 0.8; stroke-linecap: square"/>
     </g>
     <g id="line2d_18">
      <g>
       <use xlink:href="#m324a900ee8" x="1602.307187" y="190.679049" style="stroke: #000000; stroke-width: 0.8"/>
      </g>
     </g>
    </g>
   </g>
   <g id="matplotlib.axis_2">
    <g id="ytick_1">
     <g id="line2d_19">
      <path d="M 133.507187 157.666583 
L 1602.307187 157.666583 
" clip-path="url(#p775370a8ad)" style="fill: none; stroke: #b0b0b0; stroke-opacity: 0.3; stroke-width: 0.8; stroke-linecap: square"/>
     </g>
     <g id="line2d_20">
      <defs>
       <path id="m1bde0a03de" d="M 0 0 
L -3.5 0 
" style="stroke: #000000; stroke-width: 0.8"/>
      </defs>
      <g>
       <use xlink:href="#m1bde0a03de" x="133.507187" y="157.666583" style="stroke: #000000; stroke-width: 0.8"/>
      </g>
     </g>
     <g id="text_1">
      <!-- −100 -->
      <g transform="translate(44.105625 169.064239) scale(0.3 -0.3)">
       <defs>
        <path id="DejaVuSans-2212" d="M 678 2272 
L 4684 2272 
L 4684 1741 
L 678 1741 
L 678 2272 
z
" transform="scale(0.015625)"/>
        <path id="DejaVuSans-31" d="M 794 531 
L 1825 531 
L 1825 4091 
L 703 3866 
L 703 4441 
L 1819 4666 
L 2450 4666 
L 2450 531 
L 3481 531 
L 3481 0 
L 794 0 
L 794 531 
z
" transform="scale(0.015625)"/>
        <path id="DejaVuSans-30" d="M 2034 4250 
Q 1547 4250 1301 3770 
Q 1056 3291 1056 2328 
Q 1056 1369 1301 889 
Q 1547 409 2034 409 
Q 2525 409 2770 889 
Q 3016 1369 3016 2328 
Q 3016 3291 2770 3770 
Q 2525 4250 2034 4250 
z
M 2034 4750 
Q 2819 4750 3233 4129 
Q 3647 3509 3647 2328 
Q 3647 1150 3233 529 
Q 2819 -91 2034 -91 
Q 1250 -91 836 529 
Q 422 1150 422 2328 
Q 422 3509 836 4129 
Q 1250 4750 2034 4750 
z
" transform="scale(0.015625)"/>
       </defs>
       <use xlink:href="#DejaVuSans-2212"/>
       <use xlink:href="#DejaVuSans-31" transform="translate(83.789062 0)"/>
       <use xlink:href="#DejaVuSans-30" transform="translate(147.412109 0)"/>
       <use xlink:href="#DejaVuSans-30" transform="translate(211.035156 0)"/>
      </g>
     </g>
    </g>
    <g id="ytick_2">
     <g id="line2d_21">
      <path d="M 133.507187 50.645156 
L 1602.307187 50.645156 
" clip-path="url(#p775370a8ad)" style="fill: none; stroke: #b0b0b0; stroke-opacity: 0.3; stroke-width: 0.8; stroke-linecap: square"/>
     </g>
     <g id="line2d_22">
      <g>
       <use xlink:href="#m1bde0a03de" x="133.507187" y="50.645156" style="stroke: #000000; stroke-width: 0.8"/>
      </g>
     </g>
     <g id="text_2">
      <!-- 0 -->
      <g transform="translate(107.419687 62.042812) scale(0.3 -0.3)">
       <use xlink:href="#DejaVuSans-30"/>
      </g>
     </g>
    </g>
    <g id="text_3">
     <!-- Q [Mvar] -->
     <g transform="translate(33.034687 191.514368) rotate(-90) scale(0.34 -0.34)">
      <defs>
       <path id="DejaVuSans-51" d="M 2522 4238 
Q 1834 4238 1429 3725 
Q 1025 3213 1025 2328 
Q 1025 1447 1429 934 
Q 1834 422 2522 422 
Q 3209 422 3611 934 
Q 4013 1447 4013 2328 
Q 4013 3213 3611 3725 
Q 3209 4238 2522 4238 
z
M 3406 84 
L 4238 -825 
L 3475 -825 
L 2784 -78 
Q 2681 -84 2626 -87 
Q 2572 -91 2522 -91 
Q 1538 -91 948 567 
Q 359 1225 359 2328 
Q 359 3434 948 4092 
Q 1538 4750 2522 4750 
Q 3503 4750 4090 4092 
Q 4678 3434 4678 2328 
Q 4678 1516 4351 937 
Q 4025 359 3406 84 
z
" transform="scale(0.015625)"/>
       <path id="DejaVuSans-20" transform="scale(0.015625)"/>
       <path id="DejaVuSans-5b" d="M 550 4863 
L 1875 4863 
L 1875 4416 
L 1125 4416 
L 1125 -397 
L 1875 -397 
L 1875 -844 
L 550 -844 
L 550 4863 
z
" transform="scale(0.015625)"/>
       <path id="DejaVuSans-4d" d="M 628 4666 
L 1569 4666 
L 2759 1491 
L 3956 4666 
L 4897 4666 
L 4897 0 
L 4281 0 
L 4281 4097 
L 3078 897 
L 2444 897 
L 1241 4097 
L 1241 0 
L 628 0 
L 628 4666 
z
" transform="scale(0.015625)"/>
       <path id="DejaVuSans-76" d="M 191 3500 
L 800 3500 
L 1894 563 
L 2988 3500 
L 3597 3500 
L 2284 0 
L 1503 0 
L 191 3500 
z
" transform="scale(0.015625)"/>
       <path id="DejaVuSans-61" d="M 2194 1759 
Q 1497 1759 1228 1600 
Q 959 1441 959 1056 
Q 959 750 1161 570 
Q 1363 391 1709 391 
Q 2188 391 2477 730 
Q 2766 1069 2766 1631 
L 2766 1759 
L 2194 1759 
z
M 3341 1997 
L 3341 0 
L 2766 0 
L 2766 531 
Q 2569 213 2275 61 
Q 1981 -91 1556 -91 
Q 1019 -91 701 211 
Q 384 513 384 1019 
Q 384 1609 779 1909 
Q 1175 2209 1959 2209 
L 2766 2209 
L 2766 2266 
Q 2766 2663 2505 2880 
Q 2244 3097 1772 3097 
Q 1472 3097 1187 3025 
Q 903 2953 641 2809 
L 641 3341 
Q 956 3463 1253 3523 
Q 1550 3584 1831 3584 
Q 2591 3584 2966 3190 
Q 3341 2797 3341 1997 
z
" transform="scale(0.015625)"/>
       <path id="DejaVuSans-72" d="M 2631 2963 
Q 2534 3019 2420 3045 
Q 2306 3072 2169 3072 
Q 1681 3072 1420 2755 
Q 1159 2438 1159 1844 
L 1159 0 
L 581 0 
L 581 3500 
L 1159 3500 
L 1159 2956 
Q 1341 3275 1631 3429 
Q 1922 3584 2338 3584 
Q 2397 3584 2469 3576 
Q 2541 3569 2628 3553 
L 2631 2963 
z
" transform="scale(0.015625)"/>
       <path id="DejaVuSans-5d" d="M 1947 4863 
L 1947 -844 
L 622 -844 
L 622 -397 
L 1369 -397 
L 1369 4416 
L 622 4416 
L 622 4863 
L 1947 4863 
z
" transform="scale(0.015625)"/>
      </defs>
      <use xlink:href="#DejaVuSans-51"/>
      <use xlink:href="#DejaVuSans-20" transform="translate(78.710938 0)"/>
      <use xlink:href="#DejaVuSans-5b" transform="translate(110.498047 0)"/>
      <use xlink:href="#DejaVuSans-4d" transform="translate(149.511719 0)"/>
      <use xlink:href="#DejaVuSans-76" transform="translate(235.791016 0)"/>
      <use xlink:href="#DejaVuSans-61" transform="translate(294.970703 0)"/>
      <use xlink:href="#DejaVuSans-72" transform="translate(356.25 0)"/>
      <use xlink:href="#DejaVuSans-5d" transform="translate(397.363281 0)"/>
     </g>
    </g>
   </g>
   <g id="line2d_23">
    <path d="M 133.507187 62.226233 
L 150.010558 71.467472 
L 166.513929 79.079672 
L 183.0173 85.091787 
L 199.520671 89.845504 
L 216.024041 95.618944 
L 232.527412 100.127683 
L 249.030783 104.011133 
L 265.534154 108.639518 
L 282.037525 112.214654 
L 298.540895 114.979566 
L 315.044266 118.661594 
L 331.547637 121.116289 
L 348.051008 123.012396 
L 364.554379 123.45094 
L 381.057749 124.119554 
L 397.56112 125.326442 
L 414.064491 126.379744 
L 430.567862 126.965264 
L 447.071232 127.238893 
L 463.574603 127.585015 
L 480.077974 127.807259 
L 496.581345 127.936924 
L 513.084716 128.058259 
L 529.588086 128.107519 
L 546.091457 128.107734 
L 562.594828 128.077574 
L 579.098199 128.011577 
L 595.60157 127.926806 
L 612.10494 132.765392 
L 628.608311 136.954802 
L 645.111682 140.545614 
L 661.615053 144.867286 
L 678.118423 148.408011 
L 694.621794 151.310595 
L 711.125165 154.330961 
L 727.628536 156.824704 
L 744.131907 158.807657 
L 760.635277 161.678895 
L 777.138648 164.022778 
L 793.642019 165.939736 
L 810.14539 167.927929 
L 826.648761 169.522085 
L 843.152131 171.167757 
L 859.655502 172.818374 
L 876.158873 174.097103 
L 892.662244 175.084405 
L 909.165614 176.065645 
L 925.668985 176.822141 
L 942.172356 177.339703 
L 958.675727 178.699274 
L 975.179098 179.780883 
L 991.682468 180.637466 
L 1008.185839 181.494891 
L 1024.68921 182.156018 
L 1041.192581 182.663309 
L 1057.695952 183.148088 
L 1074.199322 183.505401 
L 1090.702693 183.767496 
L 1107.206064 183.983372 
L 1123.709435 184.010768 
L 1140.212805 184.007792 
L 1156.716176 183.985975 
L 1173.219547 183.942442 
L 1189.722918 183.890315 
L 1206.226289 183.827357 
L 1222.729659 183.757882 
L 1239.23303 183.691504 
L 1255.736401 183.619518 
L 1272.239772 183.54837 
L 1288.743143 183.485523 
L 1305.246513 183.420605 
L 1321.749884 183.359126 
L 1338.253255 183.307316 
L 1354.756626 183.255664 
L 1371.259996 183.207471 
L 1387.763367 183.151326 
L 1404.266738 183.037921 
L 1420.770109 182.900371 
L 1437.27348 182.770072 
L 1453.77685 182.618343 
L 1470.280221 182.47218 
L 1486.783592 182.334272 
L 1503.286963 182.159319 
L 1519.790334 181.991997 
L 1536.293704 181.834842 
L 1552.797075 181.640134 
L 1569.300446 181.455258 
L 1585.803817 181.282512 
L 1602.307187 181.072094 
" clip-path="url(#p775370a8ad)" style="fill: none; stroke: #b1bd00; stroke-width: 3; stroke-linecap: square"/>
   </g>
   <g id="line2d_24">
    <path d="M 133.507187 50.645156 
L 1602.307187 50.645156 
" clip-path="url(#p775370a8ad)" style="fill: none; stroke: #808080; stroke-linecap: square"/>
   </g>
   <g id="line2d_25">
    <path d="M 612.10494 190.679049 
L 612.10494 43.976875 
" clip-path="url(#p775370a8ad)" style="fill: none; stroke-dasharray: 12.8,3.2,2,3.2; stroke-dashoffset: 0; stroke: #808080; stroke-opacity: 0.5; stroke-width: 2"/>
   </g>
   <g id="patch_3">
    <path d="M 133.507187 190.679049 
L 133.507187 43.976875 
" style="fill: none; stroke: #000000; stroke-width: 0.8; stroke-linejoin: miter; stroke-linecap: square"/>
   </g>
   <g id="patch_4">
    <path d="M 1602.307187 190.679049 
L 1602.307187 43.976875 
" style="fill: none; stroke: #000000; stroke-width: 0.8; stroke-linejoin: miter; stroke-linecap: square"/>
   </g>
   <g id="patch_5">
    <path d="M 133.507187 190.679049 
L 1602.307187 190.679049 
" style="fill: none; stroke: #000000; stroke-width: 0.8; stroke-linejoin: miter; stroke-linecap: square"/>
   </g>
   <g id="patch_6">
    <path d="M 133.507187 43.976875 
L 1602.307187 43.976875 
" style="fill: none; stroke: #000000; stroke-width: 0.8; stroke-linejoin: miter; stroke-linecap: square"/>
   </g>
   <g id="text_4">
    <!-- (a) Blindleistungseinsatz EZA im Verteilnetz -->
    <g transform="translate(452.3 36.074062) scale(0.38 -0.38)">
     <defs>
      <path id="DejaVuSans-28" d="M 1984 4856 
Q 1566 4138 1362 3434 
Q 1159 2731 1159 2009 
Q 1159 1288 1364 580 
Q 1569 -128 1984 -844 
L 1484 -844 
Q 1016 -109 783 600 
Q 550 1309 550 2009 
Q 550 2706 781 3412 
Q 1013 4119 1484 4856 
L 1984 4856 
z
" transform="scale(0.015625)"/>
      <path id="DejaVuSans-29" d="M 513 4856 
L 1013 4856 
Q 1481 4119 1714 3412 
Q 1947 2706 1947 2009 
Q 1947 1309 1714 600 
Q 1481 -109 1013 -844 
L 513 -844 
Q 928 -128 1133 580 
Q 1338 1288 1338 2009 
Q 1338 2731 1133 3434 
Q 928 4138 513 4856 
z
" transform="scale(0.015625)"/>
      <path id="DejaVuSans-42" d="M 1259 2228 
L 1259 519 
L 2272 519 
Q 2781 519 3026 730 
Q 3272 941 3272 1375 
Q 3272 1813 3026 2020 
Q 2781 2228 2272 2228 
L 1259 2228 
z
M 1259 4147 
L 1259 2741 
L 2194 2741 
Q 2656 2741 2882 2914 
Q 3109 3088 3109 3444 
Q 3109 3797 2882 3972 
Q 2656 4147 2194 4147 
L 1259 4147 
z
M 628 4666 
L 2241 4666 
Q 2963 4666 3353 4366 
Q 3744 4066 3744 3513 
Q 3744 3084 3544 2831 
Q 3344 2578 2956 2516 
Q 3422 2416 3680 2098 
Q 3938 1781 3938 1306 
Q 3938 681 3513 340 
Q 3088 0 2303 0 
L 628 0 
L 628 4666 
z
" transform="scale(0.015625)"/>
      <path id="DejaVuSans-6c" d="M 603 4863 
L 1178 4863 
L 1178 0 
L 603 0 
L 603 4863 
z
" transform="scale(0.015625)"/>
      <path id="DejaVuSans-69" d="M 603 3500 
L 1178 3500 
L 1178 0 
L 603 0 
L 603 3500 
z
M 603 4863 
L 1178 4863 
L 1178 4134 
L 603 4134 
L 603 4863 
z
" transform="scale(0.015625)"/>
      <path id="DejaVuSans-6e" d="M 3513 2113 
L 3513 0 
L 2938 0 
L 2938 2094 
Q 2938 2591 2744 2837 
Q 2550 3084 2163 3084 
Q 1697 3084 1428 2787 
Q 1159 2491 1159 1978 
L 1159 0 
L 581 0 
L 581 3500 
L 1159 3500 
L 1159 2956 
Q 1366 3272 1645 3428 
Q 1925 3584 2291 3584 
Q 2894 3584 3203 3211 
Q 3513 2838 3513 2113 
z
" transform="scale(0.015625)"/>
      <path id="DejaVuSans-64" d="M 2906 2969 
L 2906 4863 
L 3481 4863 
L 3481 0 
L 2906 0 
L 2906 525 
Q 2725 213 2448 61 
Q 2172 -91 1784 -91 
Q 1150 -91 751 415 
Q 353 922 353 1747 
Q 353 2572 751 3078 
Q 1150 3584 1784 3584 
Q 2172 3584 2448 3432 
Q 2725 3281 2906 2969 
z
M 947 1747 
Q 947 1113 1208 752 
Q 1469 391 1925 391 
Q 2381 391 2643 752 
Q 2906 1113 2906 1747 
Q 2906 2381 2643 2742 
Q 2381 3103 1925 3103 
Q 1469 3103 1208 2742 
Q 947 2381 947 1747 
z
" transform="scale(0.015625)"/>
      <path id="DejaVuSans-65" d="M 3597 1894 
L 3597 1613 
L 953 1613 
Q 991 1019 1311 708 
Q 1631 397 2203 397 
Q 2534 397 2845 478 
Q 3156 559 3463 722 
L 3463 178 
Q 3153 47 2828 -22 
Q 2503 -91 2169 -91 
Q 1331 -91 842 396 
Q 353 884 353 1716 
Q 353 2575 817 3079 
Q 1281 3584 2069 3584 
Q 2775 3584 3186 3129 
Q 3597 2675 3597 1894 
z
M 3022 2063 
Q 3016 2534 2758 2815 
Q 2500 3097 2075 3097 
Q 1594 3097 1305 2825 
Q 1016 2553 972 2059 
L 3022 2063 
z
" transform="scale(0.015625)"/>
      <path id="DejaVuSans-73" d="M 2834 3397 
L 2834 2853 
Q 2591 2978 2328 3040 
Q 2066 3103 1784 3103 
Q 1356 3103 1142 2972 
Q 928 2841 928 2578 
Q 928 2378 1081 2264 
Q 1234 2150 1697 2047 
L 1894 2003 
Q 2506 1872 2764 1633 
Q 3022 1394 3022 966 
Q 3022 478 2636 193 
Q 2250 -91 1575 -91 
Q 1294 -91 989 -36 
Q 684 19 347 128 
L 347 722 
Q 666 556 975 473 
Q 1284 391 1588 391 
Q 1994 391 2212 530 
Q 2431 669 2431 922 
Q 2431 1156 2273 1281 
Q 2116 1406 1581 1522 
L 1381 1569 
Q 847 1681 609 1914 
Q 372 2147 372 2553 
Q 372 3047 722 3315 
Q 1072 3584 1716 3584 
Q 2034 3584 2315 3537 
Q 2597 3491 2834 3397 
z
" transform="scale(0.015625)"/>
      <path id="DejaVuSans-74" d="M 1172 4494 
L 1172 3500 
L 2356 3500 
L 2356 3053 
L 1172 3053 
L 1172 1153 
Q 1172 725 1289 603 
Q 1406 481 1766 481 
L 2356 481 
L 2356 0 
L 1766 0 
Q 1100 0 847 248 
Q 594 497 594 1153 
L 594 3053 
L 172 3053 
L 172 3500 
L 594 3500 
L 594 4494 
L 1172 4494 
z
" transform="scale(0.015625)"/>
      <path id="DejaVuSans-75" d="M 544 1381 
L 544 3500 
L 1119 3500 
L 1119 1403 
Q 1119 906 1312 657 
Q 1506 409 1894 409 
Q 2359 409 2629 706 
Q 2900 1003 2900 1516 
L 2900 3500 
L 3475 3500 
L 3475 0 
L 2900 0 
L 2900 538 
Q 2691 219 2414 64 
Q 2138 -91 1772 -91 
Q 1169 -91 856 284 
Q 544 659 544 1381 
z
M 1991 3584 
L 1991 3584 
z
" transform="scale(0.015625)"/>
      <path id="DejaVuSans-67" d="M 2906 1791 
Q 2906 2416 2648 2759 
Q 2391 3103 1925 3103 
Q 1463 3103 1205 2759 
Q 947 2416 947 1791 
Q 947 1169 1205 825 
Q 1463 481 1925 481 
Q 2391 481 2648 825 
Q 2906 1169 2906 1791 
z
M 3481 434 
Q 3481 -459 3084 -895 
Q 2688 -1331 1869 -1331 
Q 1566 -1331 1297 -1286 
Q 1028 -1241 775 -1147 
L 775 -588 
Q 1028 -725 1275 -790 
Q 1522 -856 1778 -856 
Q 2344 -856 2625 -561 
Q 2906 -266 2906 331 
L 2906 616 
Q 2728 306 2450 153 
Q 2172 0 1784 0 
Q 1141 0 747 490 
Q 353 981 353 1791 
Q 353 2603 747 3093 
Q 1141 3584 1784 3584 
Q 2172 3584 2450 3431 
Q 2728 3278 2906 2969 
L 2906 3500 
L 3481 3500 
L 3481 434 
z
" transform="scale(0.015625)"/>
      <path id="DejaVuSans-7a" d="M 353 3500 
L 3084 3500 
L 3084 2975 
L 922 459 
L 3084 459 
L 3084 0 
L 275 0 
L 275 525 
L 2438 3041 
L 353 3041 
L 353 3500 
z
" transform="scale(0.015625)"/>
      <path id="DejaVuSans-45" d="M 628 4666 
L 3578 4666 
L 3578 4134 
L 1259 4134 
L 1259 2753 
L 3481 2753 
L 3481 2222 
L 1259 2222 
L 1259 531 
L 3634 531 
L 3634 0 
L 628 0 
L 628 4666 
z
" transform="scale(0.015625)"/>
      <path id="DejaVuSans-5a" d="M 359 4666 
L 4025 4666 
L 4025 4184 
L 1075 531 
L 4097 531 
L 4097 0 
L 288 0 
L 288 481 
L 3238 4134 
L 359 4134 
L 359 4666 
z
" transform="scale(0.015625)"/>
      <path id="DejaVuSans-41" d="M 2188 4044 
L 1331 1722 
L 3047 1722 
L 2188 4044 
z
M 1831 4666 
L 2547 4666 
L 4325 0 
L 3669 0 
L 3244 1197 
L 1141 1197 
L 716 0 
L 50 0 
L 1831 4666 
z
" transform="scale(0.015625)"/>
      <path id="DejaVuSans-6d" d="M 3328 2828 
Q 3544 3216 3844 3400 
Q 4144 3584 4550 3584 
Q 5097 3584 5394 3201 
Q 5691 2819 5691 2113 
L 5691 0 
L 5113 0 
L 5113 2094 
Q 5113 2597 4934 2840 
Q 4756 3084 4391 3084 
Q 3944 3084 3684 2787 
Q 3425 2491 3425 1978 
L 3425 0 
L 2847 0 
L 2847 2094 
Q 2847 2600 2669 2842 
Q 2491 3084 2119 3084 
Q 1678 3084 1418 2786 
Q 1159 2488 1159 1978 
L 1159 0 
L 581 0 
L 581 3500 
L 1159 3500 
L 1159 2956 
Q 1356 3278 1631 3431 
Q 1906 3584 2284 3584 
Q 2666 3584 2933 3390 
Q 3200 3197 3328 2828 
z
" transform="scale(0.015625)"/>
      <path id="DejaVuSans-56" d="M 1831 0 
L 50 4666 
L 709 4666 
L 2188 738 
L 3669 4666 
L 4325 4666 
L 2547 0 
L 1831 0 
z
" transform="scale(0.015625)"/>
     </defs>
     <use xlink:href="#DejaVuSans-28"/>
     <use xlink:href="#DejaVuSans-61" transform="translate(39.013672 0)"/>
     <use xlink:href="#DejaVuSans-29" transform="translate(100.292969 0)"/>
     <use xlink:href="#DejaVuSans-20" transform="translate(139.306641 0)"/>
     <use xlink:href="#DejaVuSans-42" transform="translate(171.09375 0)"/>
     <use xlink:href="#DejaVuSans-6c" transform="translate(239.697266 0)"/>
     <use xlink:href="#DejaVuSans-69" transform="translate(267.480469 0)"/>
     <use xlink:href="#DejaVuSans-6e" transform="translate(295.263672 0)"/>
     <use xlink:href="#DejaVuSans-64" transform="translate(358.642578 0)"/>
     <use xlink:href="#DejaVuSans-6c" transform="translate(422.119141 0)"/>
     <use xlink:href="#DejaVuSans-65" transform="translate(449.902344 0)"/>
     <use xlink:href="#DejaVuSans-69" transform="translate(511.425781 0)"/>
     <use xlink:href="#DejaVuSans-73" transform="translate(539.208984 0)"/>
     <use xlink:href="#DejaVuSans-74" transform="translate(591.308594 0)"/>
     <use xlink:href="#DejaVuSans-75" transform="translate(630.517578 0)"/>
     <use xlink:href="#DejaVuSans-6e" transform="translate(693.896484 0)"/>
     <use xlink:href="#DejaVuSans-67" transform="translate(757.275391 0)"/>
     <use xlink:href="#DejaVuSans-73" transform="translate(820.751953 0)"/>
     <use xlink:href="#DejaVuSans-65" transform="translate(872.851562 0)"/>
     <use xlink:href="#DejaVuSans-69" transform="translate(934.375 0)"/>
     <use xlink:href="#DejaVuSans-6e" transform="translate(962.158203 0)"/>
     <use xlink:href="#DejaVuSans-73" transform="translate(1025.537109 0)"/>
     <use xlink:href="#DejaVuSans-61" transform="translate(1077.636719 0)"/>
     <use xlink:href="#DejaVuSans-74" transform="translate(1138.916016 0)"/>
     <use xlink:href="#DejaVuSans-7a" transform="translate(1178.125 0)"/>
     <use xlink:href="#DejaVuSans-20" transform="translate(1230.615234 0)"/>
     <use xlink:href="#DejaVuSans-45" transform="translate(1262.402344 0)"/>
     <use xlink:href="#DejaVuSans-5a" transform="translate(1325.585938 0)"/>
     <use xlink:href="#DejaVuSans-41" transform="translate(1394.091797 0)"/>
     <use xlink:href="#DejaVuSans-20" transform="translate(1462.5 0)"/>
     <use xlink:href="#DejaVuSans-69" transform="translate(1494.287109 0)"/>
     <use xlink:href="#DejaVuSans-6d" transform="translate(1522.070312 0)"/>
     <use xlink:href="#DejaVuSans-20" transform="translate(1619.482422 0)"/>
     <use xlink:href="#DejaVuSans-56" transform="translate(1651.269531 0)"/>
     <use xlink:href="#DejaVuSans-65" transform="translate(1711.927734 0)"/>
     <use xlink:href="#DejaVuSans-72" transform="translate(1773.451172 0)"/>
     <use xlink:href="#DejaVuSans-74" transform="translate(1814.564453 0)"/>
     <use xlink:href="#DejaVuSans-65" transform="translate(1853.773438 0)"/>
     <use xlink:href="#DejaVuSans-69" transform="translate(1915.296875 0)"/>
     <use xlink:href="#DejaVuSans-6c" transform="translate(1943.080078 0)"/>
     <use xlink:href="#DejaVuSans-6e" transform="translate(1970.863281 0)"/>
     <use xlink:href="#DejaVuSans-65" transform="translate(2034.242188 0)"/>
     <use xlink:href="#DejaVuSans-74" transform="translate(2095.765625 0)"/>
     <use xlink:href="#DejaVuSans-7a" transform="translate(2134.974609 0)"/>
    </g>
   </g>
   <g id="legend_1">
    <g id="patch_7">
     <path d="M 1297.263437 112.01125 
L 1581.307187 112.01125 
Q 1587.307187 112.01125 1587.307187 106.01125 
L 1587.307187 64.976875 
Q 1587.307187 58.976875 1581.307187 58.976875 
L 1297.263437 58.976875 
Q 1291.263437 58.976875 1291.263437 64.976875 
L 1291.263437 106.01125 
Q 1291.263437 112.01125 1297.263437 112.01125 
z
" style="fill: #ffffff; opacity: 0.2; stroke: #cccccc; stroke-linejoin: miter"/>
    </g>
    <g id="line2d_26">
     <path d="M 1303.263437 83.272187 
L 1333.263437 83.272187 
L 1363.263437 83.272187 
" style="fill: none; stroke: #b1bd00; stroke-width: 3; stroke-linecap: square"/>
    </g>
    <g id="text_5">
     <!-- ΣQ EZA (VN) -->
     <g transform="translate(1387.263437 93.772187) scale(0.3 -0.3)">
      <defs>
       <path id="DejaVuSans-3a3" d="M 1353 531 
L 3634 531 
L 3634 0 
L 628 0 
L 628 531 
L 2125 2481 
L 628 4134 
L 628 4666 
L 3578 4666 
L 3578 4134 
L 1353 4134 
L 2850 2494 
L 1353 531 
z
" transform="scale(0.015625)"/>
       <path id="DejaVuSans-4e" d="M 628 4666 
L 1478 4666 
L 3547 763 
L 3547 4666 
L 4159 4666 
L 4159 0 
L 3309 0 
L 1241 3903 
L 1241 0 
L 628 0 
L 628 4666 
z
" transform="scale(0.015625)"/>
      </defs>
      <use xlink:href="#DejaVuSans-3a3"/>
      <use xlink:href="#DejaVuSans-51" transform="translate(63.183594 0)"/>
      <use xlink:href="#DejaVuSans-20" transform="translate(141.894531 0)"/>
      <use xlink:href="#DejaVuSans-45" transform="translate(173.681641 0)"/>
      <use xlink:href="#DejaVuSans-5a" transform="translate(236.865234 0)"/>
      <use xlink:href="#DejaVuSans-41" transform="translate(305.371094 0)"/>
      <use xlink:href="#DejaVuSans-20" transform="translate(373.779297 0)"/>
      <use xlink:href="#DejaVuSans-28" transform="translate(405.566406 0)"/>
      <use xlink:href="#DejaVuSans-56" transform="translate(444.580078 0)"/>
      <use xlink:href="#DejaVuSans-4e" transform="translate(512.988281 0)"/>
      <use xlink:href="#DejaVuSans-29" transform="translate(587.792969 0)"/>
     </g>
    </g>
   </g>
  </g>
  <g id="axes_2">
   <g id="patch_8">
    <path d="M 133.507187 418.271658 
L 1602.307187 418.271658 
L 1602.307187 271.569484 
L 133.507187 271.569484 
z
" style="fill: #ffffff"/>
   </g>
   <g id="matplotlib.axis_3">
    <g id="xtick_10">
     <g id="line2d_27">
      <path d="M 282.037525 418.271658 
L 282.037525 271.569484 
" clip-path="url(#p68756c4773)" style="fill: none; stroke: #b0b0b0; stroke-opacity: 0.3; stroke-width: 0.8; stroke-linecap: square"/>
     </g>
     <g id="line2d_28">
      <g>
       <use xlink:href="#m324a900ee8" x="282.037525" y="418.271658" style="stroke: #000000; stroke-width: 0.8"/>
      </g>
     </g>
    </g>
    <g id="xtick_11">
     <g id="line2d_29">
      <path d="M 447.071232 418.271658 
L 447.071232 271.569484 
" clip-path="url(#p68756c4773)" style="fill: none; stroke: #b0b0b0; stroke-opacity: 0.3; stroke-width: 0.8; stroke-linecap: square"/>
     </g>
     <g id="line2d_30">
      <g>
       <use xlink:href="#m324a900ee8" x="447.071232" y="418.271658" style="stroke: #000000; stroke-width: 0.8"/>
      </g>
     </g>
    </g>
    <g id="xtick_12">
     <g id="line2d_31">
      <path d="M 612.10494 418.271658 
L 612.10494 271.569484 
" clip-path="url(#p68756c4773)" style="fill: none; stroke: #b0b0b0; stroke-opacity: 0.3; stroke-width: 0.8; stroke-linecap: square"/>
     </g>
     <g id="line2d_32">
      <g>
       <use xlink:href="#m324a900ee8" x="612.10494" y="418.271658" style="stroke: #000000; stroke-width: 0.8"/>
      </g>
     </g>
    </g>
    <g id="xtick_13">
     <g id="line2d_33">
      <path d="M 777.138648 418.271658 
L 777.138648 271.569484 
" clip-path="url(#p68756c4773)" style="fill: none; stroke: #b0b0b0; stroke-opacity: 0.3; stroke-width: 0.8; stroke-linecap: square"/>
     </g>
     <g id="line2d_34">
      <g>
       <use xlink:href="#m324a900ee8" x="777.138648" y="418.271658" style="stroke: #000000; stroke-width: 0.8"/>
      </g>
     </g>
    </g>
    <g id="xtick_14">
     <g id="line2d_35">
      <path d="M 942.172356 418.271658 
L 942.172356 271.569484 
" clip-path="url(#p68756c4773)" style="fill: none; stroke: #b0b0b0; stroke-opacity: 0.3; stroke-width: 0.8; stroke-linecap: square"/>
     </g>
     <g id="line2d_36">
      <g>
       <use xlink:href="#m324a900ee8" x="942.172356" y="418.271658" style="stroke: #000000; stroke-width: 0.8"/>
      </g>
     </g>
    </g>
    <g id="xtick_15">
     <g id="line2d_37">
      <path d="M 1107.206064 418.271658 
L 1107.206064 271.569484 
" clip-path="url(#p68756c4773)" style="fill: none; stroke: #b0b0b0; stroke-opacity: 0.3; stroke-width: 0.8; stroke-linecap: square"/>
     </g>
     <g id="line2d_38">
      <g>
       <use xlink:href="#m324a900ee8" x="1107.206064" y="418.271658" style="stroke: #000000; stroke-width: 0.8"/>
      </g>
     </g>
    </g>
    <g id="xtick_16">
     <g id="line2d_39">
      <path d="M 1272.239772 418.271658 
L 1272.239772 271.569484 
" clip-path="url(#p68756c4773)" style="fill: none; stroke: #b0b0b0; stroke-opacity: 0.3; stroke-width: 0.8; stroke-linecap: square"/>
     </g>
     <g id="line2d_40">
      <g>
       <use xlink:href="#m324a900ee8" x="1272.239772" y="418.271658" style="stroke: #000000; stroke-width: 0.8"/>
      </g>
     </g>
    </g>
    <g id="xtick_17">
     <g id="line2d_41">
      <path d="M 1437.27348 418.271658 
L 1437.27348 271.569484 
" clip-path="url(#p68756c4773)" style="fill: none; stroke: #b0b0b0; stroke-opacity: 0.3; stroke-width: 0.8; stroke-linecap: square"/>
     </g>
     <g id="line2d_42">
      <g>
       <use xlink:href="#m324a900ee8" x="1437.27348" y="418.271658" style="stroke: #000000; stroke-width: 0.8"/>
      </g>
     </g>
    </g>
    <g id="xtick_18">
     <g id="line2d_43">
      <path d="M 1602.307187 418.271658 
L 1602.307187 271.569484 
" clip-path="url(#p68756c4773)" style="fill: none; stroke: #b0b0b0; stroke-opacity: 0.3; stroke-width: 0.8; stroke-linecap: square"/>
     </g>
     <g id="line2d_44">
      <g>
       <use xlink:href="#m324a900ee8" x="1602.307187" y="418.271658" style="stroke: #000000; stroke-width: 0.8"/>
      </g>
     </g>
    </g>
   </g>
   <g id="matplotlib.axis_4">
    <g id="ytick_3">
     <g id="line2d_45">
      <path d="M 133.507187 411.603377 
L 1602.307187 411.603377 
" clip-path="url(#p68756c4773)" style="fill: none; stroke: #b0b0b0; stroke-opacity: 0.3; stroke-width: 0.8; stroke-linecap: square"/>
     </g>
     <g id="line2d_46">
      <g>
       <use xlink:href="#m1bde0a03de" x="133.507187" y="411.603377" style="stroke: #000000; stroke-width: 0.8"/>
      </g>
     </g>
     <g id="text_6">
      <!-- −3 -->
      <g transform="translate(82.280625 423.001033) scale(0.3 -0.3)">
       <defs>
        <path id="DejaVuSans-33" d="M 2597 2516 
Q 3050 2419 3304 2112 
Q 3559 1806 3559 1356 
Q 3559 666 3084 287 
Q 2609 -91 1734 -91 
Q 1441 -91 1130 -33 
Q 819 25 488 141 
L 488 750 
Q 750 597 1062 519 
Q 1375 441 1716 441 
Q 2309 441 2620 675 
Q 2931 909 2931 1356 
Q 2931 1769 2642 2001 
Q 2353 2234 1838 2234 
L 1294 2234 
L 1294 2753 
L 1863 2753 
Q 2328 2753 2575 2939 
Q 2822 3125 2822 3475 
Q 2822 3834 2567 4026 
Q 2313 4219 1838 4219 
Q 1578 4219 1281 4162 
Q 984 4106 628 3988 
L 628 4550 
Q 988 4650 1302 4700 
Q 1616 4750 1894 4750 
Q 2613 4750 3031 4423 
Q 3450 4097 3450 3541 
Q 3450 3153 3228 2886 
Q 3006 2619 2597 2516 
z
" transform="scale(0.015625)"/>
       </defs>
       <use xlink:href="#DejaVuSans-2212"/>
       <use xlink:href="#DejaVuSans-33" transform="translate(83.789062 0)"/>
      </g>
     </g>
    </g>
    <g id="ytick_4">
     <g id="line2d_47">
      <path d="M 133.507187 384.930254 
L 1602.307187 384.930254 
" clip-path="url(#p68756c4773)" style="fill: none; stroke: #b0b0b0; stroke-opacity: 0.3; stroke-width: 0.8; stroke-linecap: square"/>
     </g>
     <g id="line2d_48">
      <g>
       <use xlink:href="#m1bde0a03de" x="133.507187" y="384.930254" style="stroke: #000000; stroke-width: 0.8"/>
      </g>
     </g>
     <g id="text_7">
      <!-- −2 -->
      <g transform="translate(82.280625 396.327911) scale(0.3 -0.3)">
       <defs>
        <path id="DejaVuSans-32" d="M 1228 531 
L 3431 531 
L 3431 0 
L 469 0 
L 469 531 
Q 828 903 1448 1529 
Q 2069 2156 2228 2338 
Q 2531 2678 2651 2914 
Q 2772 3150 2772 3378 
Q 2772 3750 2511 3984 
Q 2250 4219 1831 4219 
Q 1534 4219 1204 4116 
Q 875 4013 500 3803 
L 500 4441 
Q 881 4594 1212 4672 
Q 1544 4750 1819 4750 
Q 2544 4750 2975 4387 
Q 3406 4025 3406 3419 
Q 3406 3131 3298 2873 
Q 3191 2616 2906 2266 
Q 2828 2175 2409 1742 
Q 1991 1309 1228 531 
z
" transform="scale(0.015625)"/>
       </defs>
       <use xlink:href="#DejaVuSans-2212"/>
       <use xlink:href="#DejaVuSans-32" transform="translate(83.789062 0)"/>
      </g>
     </g>
    </g>
    <g id="ytick_5">
     <g id="line2d_49">
      <path d="M 133.507187 358.257132 
L 1602.307187 358.257132 
" clip-path="url(#p68756c4773)" style="fill: none; stroke: #b0b0b0; stroke-opacity: 0.3; stroke-width: 0.8; stroke-linecap: square"/>
     </g>
     <g id="line2d_50">
      <g>
       <use xlink:href="#m1bde0a03de" x="133.507187" y="358.257132" style="stroke: #000000; stroke-width: 0.8"/>
      </g>
     </g>
     <g id="text_8">
      <!-- −1 -->
      <g transform="translate(82.280625 369.654788) scale(0.3 -0.3)">
       <use xlink:href="#DejaVuSans-2212"/>
       <use xlink:href="#DejaVuSans-31" transform="translate(83.789062 0)"/>
      </g>
     </g>
    </g>
    <g id="ytick_6">
     <g id="line2d_51">
      <path d="M 133.507187 331.584009 
L 1602.307187 331.584009 
" clip-path="url(#p68756c4773)" style="fill: none; stroke: #b0b0b0; stroke-opacity: 0.3; stroke-width: 0.8; stroke-linecap: square"/>
     </g>
     <g id="line2d_52">
      <g>
       <use xlink:href="#m1bde0a03de" x="133.507187" y="331.584009" style="stroke: #000000; stroke-width: 0.8"/>
      </g>
     </g>
     <g id="text_9">
      <!-- 0 -->
      <g transform="translate(107.419687 342.981666) scale(0.3 -0.3)">
       <use xlink:href="#DejaVuSans-30"/>
      </g>
     </g>
    </g>
    <g id="ytick_7">
     <g id="line2d_53">
      <path d="M 133.507187 304.910887 
L 1602.307187 304.910887 
" clip-path="url(#p68756c4773)" style="fill: none; stroke: #b0b0b0; stroke-opacity: 0.3; stroke-width: 0.8; stroke-linecap: square"/>
     </g>
     <g id="line2d_54">
      <g>
       <use xlink:href="#m1bde0a03de" x="133.507187" y="304.910887" style="stroke: #000000; stroke-width: 0.8"/>
      </g>
     </g>
     <g id="text_10">
      <!-- 1 -->
      <g transform="translate(107.419687 316.308543) scale(0.3 -0.3)">
       <use xlink:href="#DejaVuSans-31"/>
      </g>
     </g>
    </g>
    <g id="ytick_8">
     <g id="line2d_55">
      <path d="M 133.507187 278.237764 
L 1602.307187 278.237764 
" clip-path="url(#p68756c4773)" style="fill: none; stroke: #b0b0b0; stroke-opacity: 0.3; stroke-width: 0.8; stroke-linecap: square"/>
     </g>
     <g id="line2d_56">
      <g>
       <use xlink:href="#m1bde0a03de" x="133.507187" y="278.237764" style="stroke: #000000; stroke-width: 0.8"/>
      </g>
     </g>
     <g id="text_11">
      <!-- 2 -->
      <g transform="translate(107.419687 289.635421) scale(0.3 -0.3)">
       <use xlink:href="#DejaVuSans-32"/>
      </g>
     </g>
    </g>
    <g id="text_12">
     <!-- Stufenposition -->
     <g transform="translate(71.209687 467.705727) rotate(-90) scale(0.34 -0.34)">
      <defs>
       <path id="DejaVuSans-53" d="M 3425 4513 
L 3425 3897 
Q 3066 4069 2747 4153 
Q 2428 4238 2131 4238 
Q 1616 4238 1336 4038 
Q 1056 3838 1056 3469 
Q 1056 3159 1242 3001 
Q 1428 2844 1947 2747 
L 2328 2669 
Q 3034 2534 3370 2195 
Q 3706 1856 3706 1288 
Q 3706 609 3251 259 
Q 2797 -91 1919 -91 
Q 1588 -91 1214 -16 
Q 841 59 441 206 
L 441 856 
Q 825 641 1194 531 
Q 1563 422 1919 422 
Q 2459 422 2753 634 
Q 3047 847 3047 1241 
Q 3047 1584 2836 1778 
Q 2625 1972 2144 2069 
L 1759 2144 
Q 1053 2284 737 2584 
Q 422 2884 422 3419 
Q 422 4038 858 4394 
Q 1294 4750 2059 4750 
Q 2388 4750 2728 4690 
Q 3069 4631 3425 4513 
z
" transform="scale(0.015625)"/>
       <path id="DejaVuSans-66" d="M 2375 4863 
L 2375 4384 
L 1825 4384 
Q 1516 4384 1395 4259 
Q 1275 4134 1275 3809 
L 1275 3500 
L 2222 3500 
L 2222 3053 
L 1275 3053 
L 1275 0 
L 697 0 
L 697 3053 
L 147 3053 
L 147 3500 
L 697 3500 
L 697 3744 
Q 697 4328 969 4595 
Q 1241 4863 1831 4863 
L 2375 4863 
z
" transform="scale(0.015625)"/>
       <path id="DejaVuSans-70" d="M 1159 525 
L 1159 -1331 
L 581 -1331 
L 581 3500 
L 1159 3500 
L 1159 2969 
Q 1341 3281 1617 3432 
Q 1894 3584 2278 3584 
Q 2916 3584 3314 3078 
Q 3713 2572 3713 1747 
Q 3713 922 3314 415 
Q 2916 -91 2278 -91 
Q 1894 -91 1617 61 
Q 1341 213 1159 525 
z
M 3116 1747 
Q 3116 2381 2855 2742 
Q 2594 3103 2138 3103 
Q 1681 3103 1420 2742 
Q 1159 2381 1159 1747 
Q 1159 1113 1420 752 
Q 1681 391 2138 391 
Q 2594 391 2855 752 
Q 3116 1113 3116 1747 
z
" transform="scale(0.015625)"/>
       <path id="DejaVuSans-6f" d="M 1959 3097 
Q 1497 3097 1228 2736 
Q 959 2375 959 1747 
Q 959 1119 1226 758 
Q 1494 397 1959 397 
Q 2419 397 2687 759 
Q 2956 1122 2956 1747 
Q 2956 2369 2687 2733 
Q 2419 3097 1959 3097 
z
M 1959 3584 
Q 2709 3584 3137 3096 
Q 3566 2609 3566 1747 
Q 3566 888 3137 398 
Q 2709 -91 1959 -91 
Q 1206 -91 779 398 
Q 353 888 353 1747 
Q 353 2609 779 3096 
Q 1206 3584 1959 3584 
z
" transform="scale(0.015625)"/>
      </defs>
      <use xlink:href="#DejaVuSans-53"/>
      <use xlink:href="#DejaVuSans-74" transform="translate(63.476562 0)"/>
      <use xlink:href="#DejaVuSans-75" transform="translate(102.685547 0)"/>
      <use xlink:href="#DejaVuSans-66" transform="translate(166.064453 0)"/>
      <use xlink:href="#DejaVuSans-65" transform="translate(201.269531 0)"/>
      <use xlink:href="#DejaVuSans-6e" transform="translate(262.792969 0)"/>
      <use xlink:href="#DejaVuSans-70" transform="translate(326.171875 0)"/>
      <use xlink:href="#DejaVuSans-6f" transform="translate(389.648438 0)"/>
      <use xlink:href="#DejaVuSans-73" transform="translate(450.830078 0)"/>
      <use xlink:href="#DejaVuSans-69" transform="translate(502.929688 0)"/>
      <use xlink:href="#DejaVuSans-74" transform="translate(530.712891 0)"/>
      <use xlink:href="#DejaVuSans-69" transform="translate(569.921875 0)"/>
      <use xlink:href="#DejaVuSans-6f" transform="translate(597.705078 0)"/>
      <use xlink:href="#DejaVuSans-6e" transform="translate(658.886719 0)"/>
     </g>
    </g>
   </g>
   <g id="line2d_57">
    <path d="M 133.507187 304.910887 
L 232.527412 304.910887 
L 232.527412 331.584009 
L 298.540895 331.584009 
L 298.540895 358.257132 
L 364.554379 358.257132 
L 364.554379 384.930254 
L 826.648761 384.930254 
L 826.648761 411.603377 
L 1602.307187 411.603377 
L 1602.307187 411.603377 
" clip-path="url(#p68756c4773)" style="fill: none; stroke: #b1bd00; stroke-width: 3; stroke-linecap: square"/>
   </g>
   <g id="line2d_58">
    <path d="M 133.507187 304.910887 
L 381.057749 304.910887 
L 381.057749 331.584009 
L 1602.307187 331.584009 
L 1602.307187 331.584009 
" clip-path="url(#p68756c4773)" style="fill: none; stroke: #00689d; stroke-width: 3; stroke-linecap: square"/>
   </g>
   <g id="line2d_59">
    <path d="M 133.507187 278.237764 
L 364.554379 278.237764 
L 364.554379 304.910887 
L 711.125165 304.910887 
L 711.125165 331.584009 
L 810.14539 331.584009 
L 810.14539 358.257132 
L 909.165614 358.257132 
L 909.165614 384.930254 
L 1602.307187 384.930254 
L 1602.307187 384.930254 
" clip-path="url(#p68756c4773)" style="fill: none; stroke: #cc4c03; stroke-width: 3; stroke-linecap: square"/>
   </g>
   <g id="line2d_60">
    <path d="M 612.10494 418.271658 
L 612.10494 271.569484 
" clip-path="url(#p68756c4773)" style="fill: none; stroke-dasharray: 12.8,3.2,2,3.2; stroke-dashoffset: 0; stroke: #808080; stroke-opacity: 0.5; stroke-width: 2"/>
   </g>
   <g id="patch_9">
    <path d="M 133.507187 418.271658 
L 133.507187 271.569484 
" style="fill: none; stroke: #000000; stroke-width: 0.8; stroke-linejoin: miter; stroke-linecap: square"/>
   </g>
   <g id="patch_10">
    <path d="M 1602.307187 418.271658 
L 1602.307187 271.569484 
" style="fill: none; stroke: #000000; stroke-width: 0.8; stroke-linejoin: miter; stroke-linecap: square"/>
   </g>
   <g id="patch_11">
    <path d="M 133.507187 418.271658 
L 1602.307187 418.271658 
" style="fill: none; stroke: #000000; stroke-width: 0.8; stroke-linejoin: miter; stroke-linecap: square"/>
   </g>
   <g id="patch_12">
    <path d="M 133.507187 271.569484 
L 1602.307187 271.569484 
" style="fill: none; stroke: #000000; stroke-width: 0.8; stroke-linejoin: miter; stroke-linecap: square"/>
   </g>
   <g id="text_13">
    <!-- (b) Stufensteller der Kuppeltransformatoren (110 kV) -->
    <g transform="translate(363.483906 263.666671) scale(0.38 -0.38)">
     <defs>
      <path id="DejaVuSans-62" d="M 3116 1747 
Q 3116 2381 2855 2742 
Q 2594 3103 2138 3103 
Q 1681 3103 1420 2742 
Q 1159 2381 1159 1747 
Q 1159 1113 1420 752 
Q 1681 391 2138 391 
Q 2594 391 2855 752 
Q 3116 1113 3116 1747 
z
M 1159 2969 
Q 1341 3281 1617 3432 
Q 1894 3584 2278 3584 
Q 2916 3584 3314 3078 
Q 3713 2572 3713 1747 
Q 3713 922 3314 415 
Q 2916 -91 2278 -91 
Q 1894 -91 1617 61 
Q 1341 213 1159 525 
L 1159 0 
L 581 0 
L 581 4863 
L 1159 4863 
L 1159 2969 
z
" transform="scale(0.015625)"/>
      <path id="DejaVuSans-4b" d="M 628 4666 
L 1259 4666 
L 1259 2694 
L 3353 4666 
L 4166 4666 
L 1850 2491 
L 4331 0 
L 3500 0 
L 1259 2247 
L 1259 0 
L 628 0 
L 628 4666 
z
" transform="scale(0.015625)"/>
      <path id="DejaVuSans-6b" d="M 581 4863 
L 1159 4863 
L 1159 1991 
L 2875 3500 
L 3609 3500 
L 1753 1863 
L 3688 0 
L 2938 0 
L 1159 1709 
L 1159 0 
L 581 0 
L 581 4863 
z
" transform="scale(0.015625)"/>
     </defs>
     <use xlink:href="#DejaVuSans-28"/>
     <use xlink:href="#DejaVuSans-62" transform="translate(39.013672 0)"/>
     <use xlink:href="#DejaVuSans-29" transform="translate(102.490234 0)"/>
     <use xlink:href="#DejaVuSans-20" transform="translate(141.503906 0)"/>
     <use xlink:href="#DejaVuSans-53" transform="translate(173.291016 0)"/>
     <use xlink:href="#DejaVuSans-74" transform="translate(236.767578 0)"/>
     <use xlink:href="#DejaVuSans-75" transform="translate(275.976562 0)"/>
     <use xlink:href="#DejaVuSans-66" transform="translate(339.355469 0)"/>
     <use xlink:href="#DejaVuSans-65" transform="translate(374.560547 0)"/>
     <use xlink:href="#DejaVuSans-6e" transform="translate(436.083984 0)"/>
     <use xlink:href="#DejaVuSans-73" transform="translate(499.462891 0)"/>
     <use xlink:href="#DejaVuSans-74" transform="translate(551.5625 0)"/>
     <use xlink:href="#DejaVuSans-65" transform="translate(590.771484 0)"/>
     <use xlink:href="#DejaVuSans-6c" transform="translate(652.294922 0)"/>
     <use xlink:href="#DejaVuSans-6c" transform="translate(680.078125 0)"/>
     <use xlink:href="#DejaVuSans-65" transform="translate(707.861328 0)"/>
     <use xlink:href="#DejaVuSans-72" transform="translate(769.384766 0)"/>
     <use xlink:href="#DejaVuSans-20" transform="translate(810.498047 0)"/>
     <use xlink:href="#DejaVuSans-64" transform="translate(842.285156 0)"/>
     <use xlink:href="#DejaVuSans-65" transform="translate(905.761719 0)"/>
     <use xlink:href="#DejaVuSans-72" transform="translate(967.285156 0)"/>
     <use xlink:href="#DejaVuSans-20" transform="translate(1008.398438 0)"/>
     <use xlink:href="#DejaVuSans-4b" transform="translate(1040.185547 0)"/>
     <use xlink:href="#DejaVuSans-75" transform="translate(1100.761719 0)"/>
     <use xlink:href="#DejaVuSans-70" transform="translate(1164.140625 0)"/>
     <use xlink:href="#DejaVuSans-70" transform="translate(1227.617188 0)"/>
     <use xlink:href="#DejaVuSans-65" transform="translate(1291.09375 0)"/>
     <use xlink:href="#DejaVuSans-6c" transform="translate(1352.617188 0)"/>
     <use xlink:href="#DejaVuSans-74" transform="translate(1380.400391 0)"/>
     <use xlink:href="#DejaVuSans-72" transform="translate(1419.609375 0)"/>
     <use xlink:href="#DejaVuSans-61" transform="translate(1460.722656 0)"/>
     <use xlink:href="#DejaVuSans-6e" transform="translate(1522.001953 0)"/>
     <use xlink:href="#DejaVuSans-73" transform="translate(1585.380859 0)"/>
     <use xlink:href="#DejaVuSans-66" transform="translate(1637.480469 0)"/>
     <use xlink:href="#DejaVuSans-6f" transform="translate(1672.685547 0)"/>
     <use xlink:href="#DejaVuSans-72" transform="translate(1733.867188 0)"/>
     <use xlink:href="#DejaVuSans-6d" transform="translate(1773.230469 0)"/>
     <use xlink:href="#DejaVuSans-61" transform="translate(1870.642578 0)"/>
     <use xlink:href="#DejaVuSans-74" transform="translate(1931.921875 0)"/>
     <use xlink:href="#DejaVuSans-6f" transform="translate(1971.130859 0)"/>
     <use xlink:href="#DejaVuSans-72" transform="translate(2032.3125 0)"/>
     <use xlink:href="#DejaVuSans-65" transform="translate(2071.175781 0)"/>
     <use xlink:href="#DejaVuSans-6e" transform="translate(2132.699219 0)"/>
     <use xlink:href="#DejaVuSans-20" transform="translate(2196.078125 0)"/>
     <use xlink:href="#DejaVuSans-28" transform="translate(2227.865234 0)"/>
     <use xlink:href="#DejaVuSans-31" transform="translate(2266.878906 0)"/>
     <use xlink:href="#DejaVuSans-31" transform="translate(2330.501953 0)"/>
     <use xlink:href="#DejaVuSans-30" transform="translate(2394.125 0)"/>
     <use xlink:href="#DejaVuSans-20" transform="translate(2457.748047 0)"/>
     <use xlink:href="#DejaVuSans-6b" transform="translate(2489.535156 0)"/>
     <use xlink:href="#DejaVuSans-56" transform="translate(2547.445312 0)"/>
     <use xlink:href="#DejaVuSans-29" transform="translate(2615.853516 0)"/>
    </g>
   </g>
   <g id="legend_2">
    <g id="patch_13">
     <path d="M 154.507187 403.271658 
L 1046.416563 403.271658 
Q 1052.416563 403.271658 1052.416563 397.271658 
L 1052.416563 356.237283 
Q 1052.416563 350.237283 1046.416563 350.237283 
L 154.507187 350.237283 
Q 148.507187 350.237283 148.507187 356.237283 
L 148.507187 397.271658 
Q 148.507187 403.271658 154.507187 403.271658 
z
" style="fill: #ffffff; opacity: 0.2; stroke: #cccccc; stroke-linejoin: miter"/>
    </g>
    <g id="line2d_61">
     <path d="M 160.507187 374.532595 
L 190.507187 374.532595 
L 190.507187 374.532595 
L 220.507187 374.532595 
L 220.507187 374.532595 
" style="fill: none; stroke: #b1bd00; stroke-width: 3; stroke-linecap: square"/>
    </g>
    <g id="text_14">
     <!-- Kupplung 1 -->
     <g transform="translate(244.507187 385.032595) scale(0.3 -0.3)">
      <use xlink:href="#DejaVuSans-4b"/>
      <use xlink:href="#DejaVuSans-75" transform="translate(60.576172 0)"/>
      <use xlink:href="#DejaVuSans-70" transform="translate(123.955078 0)"/>
      <use xlink:href="#DejaVuSans-70" transform="translate(187.431641 0)"/>
      <use xlink:href="#DejaVuSans-6c" transform="translate(250.908203 0)"/>
      <use xlink:href="#DejaVuSans-75" transform="translate(278.691406 0)"/>
      <use xlink:href="#DejaVuSans-6e" transform="translate(342.070312 0)"/>
      <use xlink:href="#DejaVuSans-67" transform="translate(405.449219 0)"/>
      <use xlink:href="#DejaVuSans-20" transform="translate(468.925781 0)"/>
      <use xlink:href="#DejaVuSans-31" transform="translate(500.712891 0)"/>
     </g>
    </g>
    <g id="line2d_62">
     <path d="M 473.810313 374.532595 
L 503.810313 374.532595 
L 503.810313 374.532595 
L 533.810313 374.532595 
L 533.810313 374.532595 
" style="fill: none; stroke: #00689d; stroke-width: 3; stroke-linecap: square"/>
    </g>
    <g id="text_15">
     <!-- Kupplung 2 -->
     <g transform="translate(557.810313 385.032595) scale(0.3 -0.3)">
      <use xlink:href="#DejaVuSans-4b"/>
      <use xlink:href="#DejaVuSans-75" transform="translate(60.576172 0)"/>
      <use xlink:href="#DejaVuSans-70" transform="translate(123.955078 0)"/>
      <use xlink:href="#DejaVuSans-70" transform="translate(187.431641 0)"/>
      <use xlink:href="#DejaVuSans-6c" transform="translate(250.908203 0)"/>
      <use xlink:href="#DejaVuSans-75" transform="translate(278.691406 0)"/>
      <use xlink:href="#DejaVuSans-6e" transform="translate(342.070312 0)"/>
      <use xlink:href="#DejaVuSans-67" transform="translate(405.449219 0)"/>
      <use xlink:href="#DejaVuSans-20" transform="translate(468.925781 0)"/>
      <use xlink:href="#DejaVuSans-32" transform="translate(500.712891 0)"/>
     </g>
    </g>
    <g id="line2d_63">
     <path d="M 787.113438 374.532595 
L 817.113438 374.532595 
L 817.113438 374.532595 
L 847.113438 374.532595 
L 847.113438 374.532595 
" style="fill: none; stroke: #cc4c03; stroke-width: 3; stroke-linecap: square"/>
    </g>
    <g id="text_16">
     <!-- Kupplung 3 -->
     <g transform="translate(871.113438 385.032595) scale(0.3 -0.3)">
      <use xlink:href="#DejaVuSans-4b"/>
      <use xlink:href="#DejaVuSans-75" transform="translate(60.576172 0)"/>
      <use xlink:href="#DejaVuSans-70" transform="translate(123.955078 0)"/>
      <use xlink:href="#DejaVuSans-70" transform="translate(187.431641 0)"/>
      <use xlink:href="#DejaVuSans-6c" transform="translate(250.908203 0)"/>
      <use xlink:href="#DejaVuSans-75" transform="translate(278.691406 0)"/>
      <use xlink:href="#DejaVuSans-6e" transform="translate(342.070312 0)"/>
      <use xlink:href="#DejaVuSans-67" transform="translate(405.449219 0)"/>
      <use xlink:href="#DejaVuSans-20" transform="translate(468.925781 0)"/>
      <use xlink:href="#DejaVuSans-33" transform="translate(500.712891 0)"/>
     </g>
    </g>
   </g>
  </g>
  <g id="axes_3">
   <g id="patch_14">
    <path d="M 133.507187 645.864266 
L 1602.307187 645.864266 
L 1602.307187 499.162092 
L 133.507187 499.162092 
z
" style="fill: #ffffff"/>
   </g>
   <g id="matplotlib.axis_5">
    <g id="xtick_19">
     <g id="line2d_64">
      <path d="M 282.037525 645.864266 
L 282.037525 499.162092 
" clip-path="url(#pd96b5621ac)" style="fill: none; stroke: #b0b0b0; stroke-opacity: 0.3; stroke-width: 0.8; stroke-linecap: square"/>
     </g>
     <g id="line2d_65">
      <g>
       <use xlink:href="#m324a900ee8" x="282.037525" y="645.864266" style="stroke: #000000; stroke-width: 0.8"/>
      </g>
     </g>
    </g>
    <g id="xtick_20">
     <g id="line2d_66">
      <path d="M 447.071232 645.864266 
L 447.071232 499.162092 
" clip-path="url(#pd96b5621ac)" style="fill: none; stroke: #b0b0b0; stroke-opacity: 0.3; stroke-width: 0.8; stroke-linecap: square"/>
     </g>
     <g id="line2d_67">
      <g>
       <use xlink:href="#m324a900ee8" x="447.071232" y="645.864266" style="stroke: #000000; stroke-width: 0.8"/>
      </g>
     </g>
    </g>
    <g id="xtick_21">
     <g id="line2d_68">
      <path d="M 612.10494 645.864266 
L 612.10494 499.162092 
" clip-path="url(#pd96b5621ac)" style="fill: none; stroke: #b0b0b0; stroke-opacity: 0.3; stroke-width: 0.8; stroke-linecap: square"/>
     </g>
     <g id="line2d_69">
      <g>
       <use xlink:href="#m324a900ee8" x="612.10494" y="645.864266" style="stroke: #000000; stroke-width: 0.8"/>
      </g>
     </g>
    </g>
    <g id="xtick_22">
     <g id="line2d_70">
      <path d="M 777.138648 645.864266 
L 777.138648 499.162092 
" clip-path="url(#pd96b5621ac)" style="fill: none; stroke: #b0b0b0; stroke-opacity: 0.3; stroke-width: 0.8; stroke-linecap: square"/>
     </g>
     <g id="line2d_71">
      <g>
       <use xlink:href="#m324a900ee8" x="777.138648" y="645.864266" style="stroke: #000000; stroke-width: 0.8"/>
      </g>
     </g>
    </g>
    <g id="xtick_23">
     <g id="line2d_72">
      <path d="M 942.172356 645.864266 
L 942.172356 499.162092 
" clip-path="url(#pd96b5621ac)" style="fill: none; stroke: #b0b0b0; stroke-opacity: 0.3; stroke-width: 0.8; stroke-linecap: square"/>
     </g>
     <g id="line2d_73">
      <g>
       <use xlink:href="#m324a900ee8" x="942.172356" y="645.864266" style="stroke: #000000; stroke-width: 0.8"/>
      </g>
     </g>
    </g>
    <g id="xtick_24">
     <g id="line2d_74">
      <path d="M 1107.206064 645.864266 
L 1107.206064 499.162092 
" clip-path="url(#pd96b5621ac)" style="fill: none; stroke: #b0b0b0; stroke-opacity: 0.3; stroke-width: 0.8; stroke-linecap: square"/>
     </g>
     <g id="line2d_75">
      <g>
       <use xlink:href="#m324a900ee8" x="1107.206064" y="645.864266" style="stroke: #000000; stroke-width: 0.8"/>
      </g>
     </g>
    </g>
    <g id="xtick_25">
     <g id="line2d_76">
      <path d="M 1272.239772 645.864266 
L 1272.239772 499.162092 
" clip-path="url(#pd96b5621ac)" style="fill: none; stroke: #b0b0b0; stroke-opacity: 0.3; stroke-width: 0.8; stroke-linecap: square"/>
     </g>
     <g id="line2d_77">
      <g>
       <use xlink:href="#m324a900ee8" x="1272.239772" y="645.864266" style="stroke: #000000; stroke-width: 0.8"/>
      </g>
     </g>
    </g>
    <g id="xtick_26">
     <g id="line2d_78">
      <path d="M 1437.27348 645.864266 
L 1437.27348 499.162092 
" clip-path="url(#pd96b5621ac)" style="fill: none; stroke: #b0b0b0; stroke-opacity: 0.3; stroke-width: 0.8; stroke-linecap: square"/>
     </g>
     <g id="line2d_79">
      <g>
       <use xlink:href="#m324a900ee8" x="1437.27348" y="645.864266" style="stroke: #000000; stroke-width: 0.8"/>
      </g>
     </g>
    </g>
    <g id="xtick_27">
     <g id="line2d_80">
      <path d="M 1602.307187 645.864266 
L 1602.307187 499.162092 
" clip-path="url(#pd96b5621ac)" style="fill: none; stroke: #b0b0b0; stroke-opacity: 0.3; stroke-width: 0.8; stroke-linecap: square"/>
     </g>
     <g id="line2d_81">
      <g>
       <use xlink:href="#m324a900ee8" x="1602.307187" y="645.864266" style="stroke: #000000; stroke-width: 0.8"/>
      </g>
     </g>
    </g>
   </g>
   <g id="matplotlib.axis_6">
    <g id="ytick_9">
     <g id="line2d_82">
      <path d="M 133.507187 638.216286 
L 1602.307187 638.216286 
" clip-path="url(#pd96b5621ac)" style="fill: none; stroke: #b0b0b0; stroke-opacity: 0.3; stroke-width: 0.8; stroke-linecap: square"/>
     </g>
     <g id="line2d_83">
      <g>
       <use xlink:href="#m1bde0a03de" x="133.507187" y="638.216286" style="stroke: #000000; stroke-width: 0.8"/>
      </g>
     </g>
     <g id="text_17">
      <!-- Aus -->
      <g transform="translate(71.344687 649.613942) scale(0.3 -0.3)">
       <use xlink:href="#DejaVuSans-41"/>
       <use xlink:href="#DejaVuSans-75" transform="translate(68.408203 0)"/>
       <use xlink:href="#DejaVuSans-73" transform="translate(131.787109 0)"/>
      </g>
     </g>
    </g>
    <g id="ytick_10">
     <g id="line2d_84">
      <path d="M 133.507187 499.162092 
L 1602.307187 499.162092 
" clip-path="url(#pd96b5621ac)" style="fill: none; stroke: #b0b0b0; stroke-opacity: 0.3; stroke-width: 0.8; stroke-linecap: square"/>
     </g>
     <g id="line2d_85">
      <g>
       <use xlink:href="#m1bde0a03de" x="133.507187" y="499.162092" style="stroke: #000000; stroke-width: 0.8"/>
      </g>
     </g>
     <g id="text_18">
      <!-- Ein -->
      <g transform="translate(80.204062 510.559749) scale(0.3 -0.3)">
       <use xlink:href="#DejaVuSans-45"/>
       <use xlink:href="#DejaVuSans-69" transform="translate(63.183594 0)"/>
       <use xlink:href="#DejaVuSans-6e" transform="translate(90.966797 0)"/>
      </g>
     </g>
    </g>
    <g id="text_19">
     <!-- Schaltzustand -->
     <g transform="translate(60.27375 692.432242) rotate(-90) scale(0.34 -0.34)">
      <defs>
       <path id="DejaVuSans-63" d="M 3122 3366 
L 3122 2828 
Q 2878 2963 2633 3030 
Q 2388 3097 2138 3097 
Q 1578 3097 1268 2742 
Q 959 2388 959 1747 
Q 959 1106 1268 751 
Q 1578 397 2138 397 
Q 2388 397 2633 464 
Q 2878 531 3122 666 
L 3122 134 
Q 2881 22 2623 -34 
Q 2366 -91 2075 -91 
Q 1284 -91 818 406 
Q 353 903 353 1747 
Q 353 2603 823 3093 
Q 1294 3584 2113 3584 
Q 2378 3584 2631 3529 
Q 2884 3475 3122 3366 
z
" transform="scale(0.015625)"/>
       <path id="DejaVuSans-68" d="M 3513 2113 
L 3513 0 
L 2938 0 
L 2938 2094 
Q 2938 2591 2744 2837 
Q 2550 3084 2163 3084 
Q 1697 3084 1428 2787 
Q 1159 2491 1159 1978 
L 1159 0 
L 581 0 
L 581 4863 
L 1159 4863 
L 1159 2956 
Q 1366 3272 1645 3428 
Q 1925 3584 2291 3584 
Q 2894 3584 3203 3211 
Q 3513 2838 3513 2113 
z
" transform="scale(0.015625)"/>
      </defs>
      <use xlink:href="#DejaVuSans-53"/>
      <use xlink:href="#DejaVuSans-63" transform="translate(63.476562 0)"/>
      <use xlink:href="#DejaVuSans-68" transform="translate(118.457031 0)"/>
      <use xlink:href="#DejaVuSans-61" transform="translate(181.835938 0)"/>
      <use xlink:href="#DejaVuSans-6c" transform="translate(243.115234 0)"/>
      <use xlink:href="#DejaVuSans-74" transform="translate(270.898438 0)"/>
      <use xlink:href="#DejaVuSans-7a" transform="translate(310.107422 0)"/>
      <use xlink:href="#DejaVuSans-75" transform="translate(362.597656 0)"/>
      <use xlink:href="#DejaVuSans-73" transform="translate(425.976562 0)"/>
      <use xlink:href="#DejaVuSans-74" transform="translate(478.076172 0)"/>
      <use xlink:href="#DejaVuSans-61" transform="translate(517.285156 0)"/>
      <use xlink:href="#DejaVuSans-6e" transform="translate(578.564453 0)"/>
      <use xlink:href="#DejaVuSans-64" transform="translate(641.943359 0)"/>
     </g>
    </g>
   </g>
   <g id="line2d_86">
    <path d="M 133.507187 638.216286 
L 1602.307187 638.216286 
L 1602.307187 638.216286 
" clip-path="url(#pd96b5621ac)" style="fill: none; stroke: #1f77b4; stroke-width: 3; stroke-linecap: square"/>
   </g>
   <g id="line2d_87">
    <path d="M 133.507187 638.216286 
L 1602.307187 638.216286 
L 1602.307187 638.216286 
" clip-path="url(#pd96b5621ac)" style="fill: none; stroke: #ff7f0e; stroke-width: 3; stroke-linecap: square"/>
   </g>
   <g id="line2d_88">
    <path d="M 133.507187 638.216286 
L 1602.307187 638.216286 
L 1602.307187 638.216286 
" clip-path="url(#pd96b5621ac)" style="fill: none; stroke: #2ca02c; stroke-width: 3; stroke-linecap: square"/>
   </g>
   <g id="line2d_89">
    <path d="M 612.10494 645.864266 
L 612.10494 499.162092 
" clip-path="url(#pd96b5621ac)" style="fill: none; stroke-dasharray: 12.8,3.2,2,3.2; stroke-dashoffset: 0; stroke: #808080; stroke-opacity: 0.5; stroke-width: 2"/>
   </g>
   <g id="patch_15">
    <path d="M 133.507187 645.864266 
L 133.507187 499.162092 
" style="fill: none; stroke: #000000; stroke-width: 0.8; stroke-linejoin: miter; stroke-linecap: square"/>
   </g>
   <g id="patch_16">
    <path d="M 1602.307187 645.864266 
L 1602.307187 499.162092 
" style="fill: none; stroke: #000000; stroke-width: 0.8; stroke-linejoin: miter; stroke-linecap: square"/>
   </g>
   <g id="patch_17">
    <path d="M 133.507187 645.864266 
L 1602.307187 645.864266 
" style="fill: none; stroke: #000000; stroke-width: 0.8; stroke-linejoin: miter; stroke-linecap: square"/>
   </g>
   <g id="patch_18">
    <path d="M 133.507187 499.162092 
L 1602.307187 499.162092 
" style="fill: none; stroke: #000000; stroke-width: 0.8; stroke-linejoin: miter; stroke-linecap: square"/>
   </g>
   <g id="text_20">
    <!-- (c) Tertiär-Shunts (20 kV) -->
    <g transform="translate(630.2825 491.25928) scale(0.38 -0.38)">
     <defs>
      <path id="DejaVuSans-54" d="M -19 4666 
L 3928 4666 
L 3928 4134 
L 2272 4134 
L 2272 0 
L 1638 0 
L 1638 4134 
L -19 4134 
L -19 4666 
z
" transform="scale(0.015625)"/>
      <path id="DejaVuSans-e4" d="M 2194 1759 
Q 1497 1759 1228 1600 
Q 959 1441 959 1056 
Q 959 750 1161 570 
Q 1363 391 1709 391 
Q 2188 391 2477 730 
Q 2766 1069 2766 1631 
L 2766 1759 
L 2194 1759 
z
M 3341 1997 
L 3341 0 
L 2766 0 
L 2766 531 
Q 2569 213 2275 61 
Q 1981 -91 1556 -91 
Q 1019 -91 701 211 
Q 384 513 384 1019 
Q 384 1609 779 1909 
Q 1175 2209 1959 2209 
L 2766 2209 
L 2766 2266 
Q 2766 2663 2505 2880 
Q 2244 3097 1772 3097 
Q 1472 3097 1187 3025 
Q 903 2953 641 2809 
L 641 3341 
Q 956 3463 1253 3523 
Q 1550 3584 1831 3584 
Q 2591 3584 2966 3190 
Q 3341 2797 3341 1997 
z
M 2150 4850 
L 2784 4850 
L 2784 4219 
L 2150 4219 
L 2150 4850 
z
M 928 4850 
L 1563 4850 
L 1563 4219 
L 928 4219 
L 928 4850 
z
" transform="scale(0.015625)"/>
      <path id="DejaVuSans-2d" d="M 313 2009 
L 1997 2009 
L 1997 1497 
L 313 1497 
L 313 2009 
z
" transform="scale(0.015625)"/>
     </defs>
     <use xlink:href="#DejaVuSans-28"/>
     <use xlink:href="#DejaVuSans-63" transform="translate(39.013672 0)"/>
     <use xlink:href="#DejaVuSans-29" transform="translate(93.994141 0)"/>
     <use xlink:href="#DejaVuSans-20" transform="translate(133.007812 0)"/>
     <use xlink:href="#DejaVuSans-54" transform="translate(164.794922 0)"/>
     <use xlink:href="#DejaVuSans-65" transform="translate(208.878906 0)"/>
     <use xlink:href="#DejaVuSans-72" transform="translate(270.402344 0)"/>
     <use xlink:href="#DejaVuSans-74" transform="translate(311.515625 0)"/>
     <use xlink:href="#DejaVuSans-69" transform="translate(350.724609 0)"/>
     <use xlink:href="#DejaVuSans-e4" transform="translate(378.507812 0)"/>
     <use xlink:href="#DejaVuSans-72" transform="translate(439.787109 0)"/>
     <use xlink:href="#DejaVuSans-2d" transform="translate(474.525391 0)"/>
     <use xlink:href="#DejaVuSans-53" transform="translate(510.609375 0)"/>
     <use xlink:href="#DejaVuSans-68" transform="translate(574.085938 0)"/>
     <use xlink:href="#DejaVuSans-75" transform="translate(637.464844 0)"/>
     <use xlink:href="#DejaVuSans-6e" transform="translate(700.84375 0)"/>
     <use xlink:href="#DejaVuSans-74" transform="translate(764.222656 0)"/>
     <use xlink:href="#DejaVuSans-73" transform="translate(803.431641 0)"/>
     <use xlink:href="#DejaVuSans-20" transform="translate(855.53125 0)"/>
     <use xlink:href="#DejaVuSans-28" transform="translate(887.318359 0)"/>
     <use xlink:href="#DejaVuSans-32" transform="translate(926.332031 0)"/>
     <use xlink:href="#DejaVuSans-30" transform="translate(989.955078 0)"/>
     <use xlink:href="#DejaVuSans-20" transform="translate(1053.578125 0)"/>
     <use xlink:href="#DejaVuSans-6b" transform="translate(1085.365234 0)"/>
     <use xlink:href="#DejaVuSans-56" transform="translate(1143.275391 0)"/>
     <use xlink:href="#DejaVuSans-29" transform="translate(1211.683594 0)"/>
    </g>
   </g>
   <g id="legend_3">
    <g id="patch_19">
     <path d="M 847.910312 567.196467 
L 1581.307187 567.196467 
Q 1587.307187 567.196467 1587.307187 561.196467 
L 1587.307187 520.162092 
Q 1587.307187 514.162092 1581.307187 514.162092 
L 847.910312 514.162092 
Q 841.910312 514.162092 841.910312 520.162092 
L 841.910312 561.196467 
Q 841.910312 567.196467 847.910312 567.196467 
z
" style="fill: #ffffff; opacity: 0.2; stroke: #cccccc; stroke-linejoin: miter"/>
    </g>
    <g id="line2d_90">
     <path d="M 853.910312 538.457405 
L 883.910312 538.457405 
L 883.910312 538.457405 
L 913.910312 538.457405 
L 913.910312 538.457405 
" style="fill: none; stroke: #1f77b4; stroke-width: 3; stroke-linecap: square"/>
    </g>
    <g id="text_21">
     <!-- Shunt 1 -->
     <g transform="translate(937.910312 548.957405) scale(0.3 -0.3)">
      <use xlink:href="#DejaVuSans-53"/>
      <use xlink:href="#DejaVuSans-68" transform="translate(63.476562 0)"/>
      <use xlink:href="#DejaVuSans-75" transform="translate(126.855469 0)"/>
      <use xlink:href="#DejaVuSans-6e" transform="translate(190.234375 0)"/>
      <use xlink:href="#DejaVuSans-74" transform="translate(253.613281 0)"/>
      <use xlink:href="#DejaVuSans-20" transform="translate(292.822266 0)"/>
      <use xlink:href="#DejaVuSans-31" transform="translate(324.609375 0)"/>
     </g>
    </g>
    <g id="line2d_91">
     <path d="M 1114.375937 538.457405 
L 1144.375937 538.457405 
L 1144.375937 538.457405 
L 1174.375937 538.457405 
L 1174.375937 538.457405 
" style="fill: none; stroke: #ff7f0e; stroke-width: 3; stroke-linecap: square"/>
    </g>
    <g id="text_22">
     <!-- Shunt 2 -->
     <g transform="translate(1198.375937 548.957405) scale(0.3 -0.3)">
      <use xlink:href="#DejaVuSans-53"/>
      <use xlink:href="#DejaVuSans-68" transform="translate(63.476562 0)"/>
      <use xlink:href="#DejaVuSans-75" transform="translate(126.855469 0)"/>
      <use xlink:href="#DejaVuSans-6e" transform="translate(190.234375 0)"/>
      <use xlink:href="#DejaVuSans-74" transform="translate(253.613281 0)"/>
      <use xlink:href="#DejaVuSans-20" transform="translate(292.822266 0)"/>
      <use xlink:href="#DejaVuSans-32" transform="translate(324.609375 0)"/>
     </g>
    </g>
    <g id="line2d_92">
     <path d="M 1374.841562 538.457405 
L 1404.841562 538.457405 
L 1404.841562 538.457405 
L 1434.841562 538.457405 
L 1434.841562 538.457405 
" style="fill: none; stroke: #2ca02c; stroke-width: 3; stroke-linecap: square"/>
    </g>
    <g id="text_23">
     <!-- Shunt 3 -->
     <g transform="translate(1458.841562 548.957405) scale(0.3 -0.3)">
      <use xlink:href="#DejaVuSans-53"/>
      <use xlink:href="#DejaVuSans-68" transform="translate(63.476562 0)"/>
      <use xlink:href="#DejaVuSans-75" transform="translate(126.855469 0)"/>
      <use xlink:href="#DejaVuSans-6e" transform="translate(190.234375 0)"/>
      <use xlink:href="#DejaVuSans-74" transform="translate(253.613281 0)"/>
      <use xlink:href="#DejaVuSans-20" transform="translate(292.822266 0)"/>
      <use xlink:href="#DejaVuSans-33" transform="translate(324.609375 0)"/>
     </g>
    </g>
   </g>
  </g>
  <g id="axes_4">
   <g id="patch_20">
    <path d="M 133.507187 873.456875 
L 1602.307187 873.456875 
L 1602.307187 726.754701 
L 133.507187 726.754701 
z
" style="fill: #ffffff"/>
   </g>
   <g id="matplotlib.axis_7">
    <g id="xtick_28">
     <g id="line2d_93">
      <path d="M 282.037525 873.456875 
L 282.037525 726.754701 
" clip-path="url(#p704fac9cfd)" style="fill: none; stroke: #b0b0b0; stroke-opacity: 0.3; stroke-width: 0.8; stroke-linecap: square"/>
     </g>
     <g id="line2d_94">
      <g>
       <use xlink:href="#m324a900ee8" x="282.037525" y="873.456875" style="stroke: #000000; stroke-width: 0.8"/>
      </g>
     </g>
     <g id="text_24">
      <!-- 10 -->
      <g transform="translate(262.950025 903.252188) scale(0.3 -0.3)">
       <use xlink:href="#DejaVuSans-31"/>
       <use xlink:href="#DejaVuSans-30" transform="translate(63.623047 0)"/>
      </g>
     </g>
    </g>
    <g id="xtick_29">
     <g id="line2d_95">
      <path d="M 447.071232 873.456875 
L 447.071232 726.754701 
" clip-path="url(#p704fac9cfd)" style="fill: none; stroke: #b0b0b0; stroke-opacity: 0.3; stroke-width: 0.8; stroke-linecap: square"/>
     </g>
     <g id="line2d_96">
      <g>
       <use xlink:href="#m324a900ee8" x="447.071232" y="873.456875" style="stroke: #000000; stroke-width: 0.8"/>
      </g>
     </g>
     <g id="text_25">
      <!-- 20 -->
      <g transform="translate(427.983732 903.252188) scale(0.3 -0.3)">
       <use xlink:href="#DejaVuSans-32"/>
       <use xlink:href="#DejaVuSans-30" transform="translate(63.623047 0)"/>
      </g>
     </g>
    </g>
    <g id="xtick_30">
     <g id="line2d_97">
      <path d="M 612.10494 873.456875 
L 612.10494 726.754701 
" clip-path="url(#p704fac9cfd)" style="fill: none; stroke: #b0b0b0; stroke-opacity: 0.3; stroke-width: 0.8; stroke-linecap: square"/>
     </g>
     <g id="line2d_98">
      <g>
       <use xlink:href="#m324a900ee8" x="612.10494" y="873.456875" style="stroke: #000000; stroke-width: 0.8"/>
      </g>
     </g>
     <g id="text_26">
      <!-- 30 -->
      <g transform="translate(593.01744 903.252188) scale(0.3 -0.3)">
       <use xlink:href="#DejaVuSans-33"/>
       <use xlink:href="#DejaVuSans-30" transform="translate(63.623047 0)"/>
      </g>
     </g>
    </g>
    <g id="xtick_31">
     <g id="line2d_99">
      <path d="M 777.138648 873.456875 
L 777.138648 726.754701 
" clip-path="url(#p704fac9cfd)" style="fill: none; stroke: #b0b0b0; stroke-opacity: 0.3; stroke-width: 0.8; stroke-linecap: square"/>
     </g>
     <g id="line2d_100">
      <g>
       <use xlink:href="#m324a900ee8" x="777.138648" y="873.456875" style="stroke: #000000; stroke-width: 0.8"/>
      </g>
     </g>
     <g id="text_27">
      <!-- 40 -->
      <g transform="translate(758.051148 903.252188) scale(0.3 -0.3)">
       <defs>
        <path id="DejaVuSans-34" d="M 2419 4116 
L 825 1625 
L 2419 1625 
L 2419 4116 
z
M 2253 4666 
L 3047 4666 
L 3047 1625 
L 3713 1625 
L 3713 1100 
L 3047 1100 
L 3047 0 
L 2419 0 
L 2419 1100 
L 313 1100 
L 313 1709 
L 2253 4666 
z
" transform="scale(0.015625)"/>
       </defs>
       <use xlink:href="#DejaVuSans-34"/>
       <use xlink:href="#DejaVuSans-30" transform="translate(63.623047 0)"/>
      </g>
     </g>
    </g>
    <g id="xtick_32">
     <g id="line2d_101">
      <path d="M 942.172356 873.456875 
L 942.172356 726.754701 
" clip-path="url(#p704fac9cfd)" style="fill: none; stroke: #b0b0b0; stroke-opacity: 0.3; stroke-width: 0.8; stroke-linecap: square"/>
     </g>
     <g id="line2d_102">
      <g>
       <use xlink:href="#m324a900ee8" x="942.172356" y="873.456875" style="stroke: #000000; stroke-width: 0.8"/>
      </g>
     </g>
     <g id="text_28">
      <!-- 50 -->
      <g transform="translate(923.084856 903.252188) scale(0.3 -0.3)">
       <defs>
        <path id="DejaVuSans-35" d="M 691 4666 
L 3169 4666 
L 3169 4134 
L 1269 4134 
L 1269 2991 
Q 1406 3038 1543 3061 
Q 1681 3084 1819 3084 
Q 2600 3084 3056 2656 
Q 3513 2228 3513 1497 
Q 3513 744 3044 326 
Q 2575 -91 1722 -91 
Q 1428 -91 1123 -41 
Q 819 9 494 109 
L 494 744 
Q 775 591 1075 516 
Q 1375 441 1709 441 
Q 2250 441 2565 725 
Q 2881 1009 2881 1497 
Q 2881 1984 2565 2268 
Q 2250 2553 1709 2553 
Q 1456 2553 1204 2497 
Q 953 2441 691 2322 
L 691 4666 
z
" transform="scale(0.015625)"/>
       </defs>
       <use xlink:href="#DejaVuSans-35"/>
       <use xlink:href="#DejaVuSans-30" transform="translate(63.623047 0)"/>
      </g>
     </g>
    </g>
    <g id="xtick_33">
     <g id="line2d_103">
      <path d="M 1107.206064 873.456875 
L 1107.206064 726.754701 
" clip-path="url(#p704fac9cfd)" style="fill: none; stroke: #b0b0b0; stroke-opacity: 0.3; stroke-width: 0.8; stroke-linecap: square"/>
     </g>
     <g id="line2d_104">
      <g>
       <use xlink:href="#m324a900ee8" x="1107.206064" y="873.456875" style="stroke: #000000; stroke-width: 0.8"/>
      </g>
     </g>
     <g id="text_29">
      <!-- 60 -->
      <g transform="translate(1088.118564 903.252188) scale(0.3 -0.3)">
       <defs>
        <path id="DejaVuSans-36" d="M 2113 2584 
Q 1688 2584 1439 2293 
Q 1191 2003 1191 1497 
Q 1191 994 1439 701 
Q 1688 409 2113 409 
Q 2538 409 2786 701 
Q 3034 994 3034 1497 
Q 3034 2003 2786 2293 
Q 2538 2584 2113 2584 
z
M 3366 4563 
L 3366 3988 
Q 3128 4100 2886 4159 
Q 2644 4219 2406 4219 
Q 1781 4219 1451 3797 
Q 1122 3375 1075 2522 
Q 1259 2794 1537 2939 
Q 1816 3084 2150 3084 
Q 2853 3084 3261 2657 
Q 3669 2231 3669 1497 
Q 3669 778 3244 343 
Q 2819 -91 2113 -91 
Q 1303 -91 875 529 
Q 447 1150 447 2328 
Q 447 3434 972 4092 
Q 1497 4750 2381 4750 
Q 2619 4750 2861 4703 
Q 3103 4656 3366 4563 
z
" transform="scale(0.015625)"/>
       </defs>
       <use xlink:href="#DejaVuSans-36"/>
       <use xlink:href="#DejaVuSans-30" transform="translate(63.623047 0)"/>
      </g>
     </g>
    </g>
    <g id="xtick_34">
     <g id="line2d_105">
      <path d="M 1272.239772 873.456875 
L 1272.239772 726.754701 
" clip-path="url(#p704fac9cfd)" style="fill: none; stroke: #b0b0b0; stroke-opacity: 0.3; stroke-width: 0.8; stroke-linecap: square"/>
     </g>
     <g id="line2d_106">
      <g>
       <use xlink:href="#m324a900ee8" x="1272.239772" y="873.456875" style="stroke: #000000; stroke-width: 0.8"/>
      </g>
     </g>
     <g id="text_30">
      <!-- 70 -->
      <g transform="translate(1253.152272 903.252188) scale(0.3 -0.3)">
       <defs>
        <path id="DejaVuSans-37" d="M 525 4666 
L 3525 4666 
L 3525 4397 
L 1831 0 
L 1172 0 
L 2766 4134 
L 525 4134 
L 525 4666 
z
" transform="scale(0.015625)"/>
       </defs>
       <use xlink:href="#DejaVuSans-37"/>
       <use xlink:href="#DejaVuSans-30" transform="translate(63.623047 0)"/>
      </g>
     </g>
    </g>
    <g id="xtick_35">
     <g id="line2d_107">
      <path d="M 1437.27348 873.456875 
L 1437.27348 726.754701 
" clip-path="url(#p704fac9cfd)" style="fill: none; stroke: #b0b0b0; stroke-opacity: 0.3; stroke-width: 0.8; stroke-linecap: square"/>
     </g>
     <g id="line2d_108">
      <g>
       <use xlink:href="#m324a900ee8" x="1437.27348" y="873.456875" style="stroke: #000000; stroke-width: 0.8"/>
      </g>
     </g>
     <g id="text_31">
      <!-- 80 -->
      <g transform="translate(1418.18598 903.252188) scale(0.3 -0.3)">
       <defs>
        <path id="DejaVuSans-38" d="M 2034 2216 
Q 1584 2216 1326 1975 
Q 1069 1734 1069 1313 
Q 1069 891 1326 650 
Q 1584 409 2034 409 
Q 2484 409 2743 651 
Q 3003 894 3003 1313 
Q 3003 1734 2745 1975 
Q 2488 2216 2034 2216 
z
M 1403 2484 
Q 997 2584 770 2862 
Q 544 3141 544 3541 
Q 544 4100 942 4425 
Q 1341 4750 2034 4750 
Q 2731 4750 3128 4425 
Q 3525 4100 3525 3541 
Q 3525 3141 3298 2862 
Q 3072 2584 2669 2484 
Q 3125 2378 3379 2068 
Q 3634 1759 3634 1313 
Q 3634 634 3220 271 
Q 2806 -91 2034 -91 
Q 1263 -91 848 271 
Q 434 634 434 1313 
Q 434 1759 690 2068 
Q 947 2378 1403 2484 
z
M 1172 3481 
Q 1172 3119 1398 2916 
Q 1625 2713 2034 2713 
Q 2441 2713 2670 2916 
Q 2900 3119 2900 3481 
Q 2900 3844 2670 4047 
Q 2441 4250 2034 4250 
Q 1625 4250 1398 4047 
Q 1172 3844 1172 3481 
z
" transform="scale(0.015625)"/>
       </defs>
       <use xlink:href="#DejaVuSans-38"/>
       <use xlink:href="#DejaVuSans-30" transform="translate(63.623047 0)"/>
      </g>
     </g>
    </g>
    <g id="xtick_36">
     <g id="line2d_109">
      <path d="M 1602.307187 873.456875 
L 1602.307187 726.754701 
" clip-path="url(#p704fac9cfd)" style="fill: none; stroke: #b0b0b0; stroke-opacity: 0.3; stroke-width: 0.8; stroke-linecap: square"/>
     </g>
     <g id="line2d_110">
      <g>
       <use xlink:href="#m324a900ee8" x="1602.307187" y="873.456875" style="stroke: #000000; stroke-width: 0.8"/>
      </g>
     </g>
     <g id="text_32">
      <!-- 90 -->
      <g transform="translate(1583.219687 903.252188) scale(0.3 -0.3)">
       <defs>
        <path id="DejaVuSans-39" d="M 703 97 
L 703 672 
Q 941 559 1184 500 
Q 1428 441 1663 441 
Q 2288 441 2617 861 
Q 2947 1281 2994 2138 
Q 2813 1869 2534 1725 
Q 2256 1581 1919 1581 
Q 1219 1581 811 2004 
Q 403 2428 403 3163 
Q 403 3881 828 4315 
Q 1253 4750 1959 4750 
Q 2769 4750 3195 4129 
Q 3622 3509 3622 2328 
Q 3622 1225 3098 567 
Q 2575 -91 1691 -91 
Q 1453 -91 1209 -44 
Q 966 3 703 97 
z
M 1959 2075 
Q 2384 2075 2632 2365 
Q 2881 2656 2881 3163 
Q 2881 3666 2632 3958 
Q 2384 4250 1959 4250 
Q 1534 4250 1286 3958 
Q 1038 3666 1038 3163 
Q 1038 2656 1286 2365 
Q 1534 2075 1959 2075 
z
" transform="scale(0.015625)"/>
       </defs>
       <use xlink:href="#DejaVuSans-39"/>
       <use xlink:href="#DejaVuSans-30" transform="translate(63.623047 0)"/>
      </g>
     </g>
    </g>
    <g id="text_33">
     <!-- Zeit [min] -->
     <g transform="translate(783.690781 939.325938) scale(0.34 -0.34)">
      <use xlink:href="#DejaVuSans-5a"/>
      <use xlink:href="#DejaVuSans-65" transform="translate(68.505859 0)"/>
      <use xlink:href="#DejaVuSans-69" transform="translate(130.029297 0)"/>
      <use xlink:href="#DejaVuSans-74" transform="translate(157.8125 0)"/>
      <use xlink:href="#DejaVuSans-20" transform="translate(197.021484 0)"/>
      <use xlink:href="#DejaVuSans-5b" transform="translate(228.808594 0)"/>
      <use xlink:href="#DejaVuSans-6d" transform="translate(267.822266 0)"/>
      <use xlink:href="#DejaVuSans-69" transform="translate(365.234375 0)"/>
      <use xlink:href="#DejaVuSans-6e" transform="translate(393.017578 0)"/>
      <use xlink:href="#DejaVuSans-5d" transform="translate(456.396484 0)"/>
     </g>
    </g>
   </g>
   <g id="matplotlib.axis_8">
    <g id="ytick_11">
     <g id="line2d_111">
      <path d="M 133.507187 869.960033 
L 1602.307187 869.960033 
" clip-path="url(#p704fac9cfd)" style="fill: none; stroke: #b0b0b0; stroke-opacity: 0.3; stroke-width: 0.8; stroke-linecap: square"/>
     </g>
     <g id="line2d_112">
      <g>
       <use xlink:href="#m1bde0a03de" x="133.507187" y="869.960033" style="stroke: #000000; stroke-width: 0.8"/>
      </g>
     </g>
     <g id="text_34">
      <!-- 0 -->
      <g transform="translate(107.419687 881.357689) scale(0.3 -0.3)">
       <use xlink:href="#DejaVuSans-30"/>
      </g>
     </g>
    </g>
    <g id="ytick_12">
     <g id="line2d_113">
      <path d="M 133.507187 764.236215 
L 1602.307187 764.236215 
" clip-path="url(#p704fac9cfd)" style="fill: none; stroke: #b0b0b0; stroke-opacity: 0.3; stroke-width: 0.8; stroke-linecap: square"/>
     </g>
     <g id="line2d_114">
      <g>
       <use xlink:href="#m1bde0a03de" x="133.507187" y="764.236215" style="stroke: #000000; stroke-width: 0.8"/>
      </g>
     </g>
     <g id="text_35">
      <!-- 100 -->
      <g transform="translate(69.244687 775.633871) scale(0.3 -0.3)">
       <use xlink:href="#DejaVuSans-31"/>
       <use xlink:href="#DejaVuSans-30" transform="translate(63.623047 0)"/>
       <use xlink:href="#DejaVuSans-30" transform="translate(127.246094 0)"/>
      </g>
     </g>
    </g>
    <g id="text_36">
     <!-- Q [Mvar] -->
     <g transform="translate(58.17375 874.292194) rotate(-90) scale(0.34 -0.34)">
      <use xlink:href="#DejaVuSans-51"/>
      <use xlink:href="#DejaVuSans-20" transform="translate(78.710938 0)"/>
      <use xlink:href="#DejaVuSans-5b" transform="translate(110.498047 0)"/>
      <use xlink:href="#DejaVuSans-4d" transform="translate(149.511719 0)"/>
      <use xlink:href="#DejaVuSans-76" transform="translate(235.791016 0)"/>
      <use xlink:href="#DejaVuSans-61" transform="translate(294.970703 0)"/>
      <use xlink:href="#DejaVuSans-72" transform="translate(356.25 0)"/>
      <use xlink:href="#DejaVuSans-5d" transform="translate(397.363281 0)"/>
     </g>
    </g>
   </g>
   <g id="line2d_115">
    <path d="M 133.507187 810.248813 
L 150.010558 810.248813 
L 166.513929 811.870906 
L 183.0173 811.870906 
L 199.520671 811.870906 
L 216.024041 801.043962 
L 232.527412 801.043962 
L 249.030783 801.043962 
L 265.534154 793.458948 
L 282.037525 793.458948 
L 298.540895 793.458948 
L 315.044266 787.73668 
L 331.547637 787.73668 
L 348.051008 787.73668 
L 364.554379 795.692937 
L 381.057749 795.692937 
L 397.56112 795.692937 
L 414.064491 794.566994 
L 430.567862 794.566994 
L 447.071232 794.566994 
L 463.574603 793.268551 
L 480.077974 793.268551 
L 496.581345 793.268551 
L 513.084716 792.881756 
L 529.588086 792.881756 
L 546.091457 792.881756 
L 562.594828 792.890089 
L 579.098199 792.890089 
L 595.60157 792.890089 
L 612.10494 759.052552 
L 628.608311 759.052552 
L 645.111682 759.052552 
L 661.615053 749.951744 
L 678.118423 749.951744 
L 694.621794 749.951744 
L 711.125165 746.090089 
L 727.628536 746.090089 
L 744.131907 746.090089 
L 760.635277 740.488021 
L 777.138648 740.488021 
L 793.642019 740.488021 
L 810.14539 738.205136 
L 826.648761 738.205136 
L 843.152131 738.205136 
L 859.655502 739.853792 
L 876.158873 739.853792 
L 892.662244 739.853792 
L 909.165614 738.773352 
L 925.668985 738.773352 
L 942.172356 738.773352 
L 958.675727 734.750557 
L 975.179098 734.750557 
L 991.682468 734.750557 
L 1008.185839 733.889569 
L 1024.68921 733.889569 
L 1041.192581 733.889569 
L 1057.695952 733.487624 
L 1074.199322 733.487624 
L 1090.702693 733.487624 
L 1107.206064 733.422982 
L 1123.709435 733.422982 
L 1140.212805 733.422982 
L 1156.716176 733.485981 
L 1173.219547 733.485981 
L 1189.722918 733.485981 
L 1206.226289 733.57167 
L 1222.729659 733.57167 
L 1239.23303 733.57167 
L 1255.736401 733.678232 
L 1272.239772 733.678232 
L 1288.743143 733.678232 
L 1305.246513 733.782884 
L 1321.749884 733.782884 
L 1338.253255 733.782884 
L 1354.756626 733.874557 
L 1371.259996 733.874557 
L 1387.763367 733.874557 
L 1404.266738 733.990298 
L 1420.770109 733.990298 
L 1437.27348 733.990298 
L 1453.77685 734.332029 
L 1470.280221 734.332029 
L 1486.783592 734.332029 
L 1503.286963 734.813997 
L 1519.790334 734.813997 
L 1536.293704 734.813997 
L 1552.797075 735.31605 
L 1569.300446 735.31605 
L 1585.803817 735.31605 
L 1602.307187 735.834563 
" clip-path="url(#p704fac9cfd)" style="fill: none; stroke: #cc4c03; stroke-width: 3; stroke-linecap: square"/>
   </g>
   <g id="line2d_116">
    <path d="M 133.507187 866.788594 
L 150.010558 857.50039 
L 166.513929 849.775556 
L 183.0173 843.642284 
L 199.520671 838.766444 
L 216.024041 832.802957 
L 232.527412 828.106989 
L 249.030783 824.069027 
L 265.534154 819.225536 
L 282.037525 815.472757 
L 298.540895 812.414042 
L 315.044266 808.318146 
L 331.547637 805.716621 
L 348.051008 803.70169 
L 364.554379 803.410887 
L 381.057749 802.800034 
L 397.56112 801.481687 
L 414.064491 800.325842 
L 430.567862 799.666285 
L 447.071232 799.338927 
L 463.574603 798.935216 
L 480.077974 798.661543 
L 496.581345 798.485919 
L 513.084716 798.319889 
L 529.588086 798.229051 
L 546.091457 798.190013 
L 562.594828 798.183967 
L 579.098199 798.214635 
L 595.60157 798.264882 
L 612.10494 793.767189 
L 628.608311 789.27708 
L 645.111682 785.412945 
L 661.615053 780.735096 
L 678.118423 776.890488 
L 694.621794 773.72863 
L 711.125165 770.837598 
L 727.628536 768.105694 
L 744.131907 765.928958 
L 760.635277 762.761207 
L 777.138648 760.174329 
L 793.642019 758.055113 
L 810.14539 756.166998 
L 826.648761 754.360082 
L 843.152131 752.536035 
L 859.655502 750.700029 
L 876.158873 749.340259 
L 892.662244 748.305144 
L 909.165614 747.55906 
L 925.668985 746.777853 
L 942.172356 746.263634 
L 958.675727 744.801144 
L 975.179098 743.653553 
L 991.682468 742.757772 
L 1008.185839 741.856659 
L 1024.68921 741.179704 
L 1041.192581 740.675703 
L 1057.695952 740.193787 
L 1074.199322 739.858544 
L 1090.702693 739.630568 
L 1107.206064 739.451883 
L 1123.709435 739.409392 
L 1140.212805 739.400787 
L 1156.716176 739.410559 
L 1173.219547 739.446871 
L 1189.722918 739.492404 
L 1206.226289 739.547319 
L 1222.729659 739.611466 
L 1239.23303 739.671602 
L 1255.736401 739.735275 
L 1272.239772 739.799788 
L 1288.743143 739.854408 
L 1305.246513 739.908636 
L 1321.749884 739.960703 
L 1338.253255 740.001339 
L 1354.756626 740.039139 
L 1371.259996 739.993958 
L 1387.763367 739.957671 
L 1404.266738 739.983497 
L 1420.770109 740.038227 
L 1437.27348 740.084645 
L 1453.77685 740.153498 
L 1470.280221 740.217794 
L 1486.783592 740.272639 
L 1503.286963 740.367733 
L 1519.790334 740.455773 
L 1536.293704 740.532188 
L 1552.797075 740.649509 
L 1569.300446 740.757154 
L 1585.803817 740.850945 
L 1602.307187 740.98584 
" clip-path="url(#p704fac9cfd)" style="fill: none; stroke-dasharray: 11.1,4.8; stroke-dashoffset: 0; stroke: #b1bd00; stroke-width: 3"/>
   </g>
   <g id="line2d_117">
    <path d="M 133.507187 869.960033 
L 1602.307187 869.960033 
" clip-path="url(#p704fac9cfd)" style="fill: none; stroke: #808080; stroke-linecap: square"/>
   </g>
   <g id="line2d_118">
    <path d="M 612.10494 873.456875 
L 612.10494 726.754701 
" clip-path="url(#p704fac9cfd)" style="fill: none; stroke-dasharray: 12.8,3.2,2,3.2; stroke-dashoffset: 0; stroke: #808080; stroke-opacity: 0.5; stroke-width: 2"/>
   </g>
   <g id="patch_21">
    <path d="M 133.507187 873.456875 
L 133.507187 726.754701 
" style="fill: none; stroke: #000000; stroke-width: 0.8; stroke-linejoin: miter; stroke-linecap: square"/>
   </g>
   <g id="patch_22">
    <path d="M 1602.307187 873.456875 
L 1602.307187 726.754701 
" style="fill: none; stroke: #000000; stroke-width: 0.8; stroke-linejoin: miter; stroke-linecap: square"/>
   </g>
   <g id="patch_23">
    <path d="M 133.507187 873.456875 
L 1602.307187 873.456875 
" style="fill: none; stroke: #000000; stroke-width: 0.8; stroke-linejoin: miter; stroke-linecap: square"/>
   </g>
   <g id="patch_24">
    <path d="M 133.507187 726.754701 
L 1602.307187 726.754701 
" style="fill: none; stroke: #000000; stroke-width: 0.8; stroke-linejoin: miter; stroke-linecap: square"/>
   </g>
   <g id="text_37">
    <!-- (d) Blindleistung an den Kuppelstellen (Summe) -->
    <g transform="translate(412.307969 718.851889) scale(0.38 -0.38)">
     <use xlink:href="#DejaVuSans-28"/>
     <use xlink:href="#DejaVuSans-64" transform="translate(39.013672 0)"/>
     <use xlink:href="#DejaVuSans-29" transform="translate(102.490234 0)"/>
     <use xlink:href="#DejaVuSans-20" transform="translate(141.503906 0)"/>
     <use xlink:href="#DejaVuSans-42" transform="translate(173.291016 0)"/>
     <use xlink:href="#DejaVuSans-6c" transform="translate(241.894531 0)"/>
     <use xlink:href="#DejaVuSans-69" transform="translate(269.677734 0)"/>
     <use xlink:href="#DejaVuSans-6e" transform="translate(297.460938 0)"/>
     <use xlink:href="#DejaVuSans-64" transform="translate(360.839844 0)"/>
     <use xlink:href="#DejaVuSans-6c" transform="translate(424.316406 0)"/>
     <use xlink:href="#DejaVuSans-65" transform="translate(452.099609 0)"/>
     <use xlink:href="#DejaVuSans-69" transform="translate(513.623047 0)"/>
     <use xlink:href="#DejaVuSans-73" transform="translate(541.40625 0)"/>
     <use xlink:href="#DejaVuSans-74" transform="translate(593.505859 0)"/>
     <use xlink:href="#DejaVuSans-75" transform="translate(632.714844 0)"/>
     <use xlink:href="#DejaVuSans-6e" transform="translate(696.09375 0)"/>
     <use xlink:href="#DejaVuSans-67" transform="translate(759.472656 0)"/>
     <use xlink:href="#DejaVuSans-20" transform="translate(822.949219 0)"/>
     <use xlink:href="#DejaVuSans-61" transform="translate(854.736328 0)"/>
     <use xlink:href="#DejaVuSans-6e" transform="translate(916.015625 0)"/>
     <use xlink:href="#DejaVuSans-20" transform="translate(979.394531 0)"/>
     <use xlink:href="#DejaVuSans-64" transform="translate(1011.181641 0)"/>
     <use xlink:href="#DejaVuSans-65" transform="translate(1074.658203 0)"/>
     <use xlink:href="#DejaVuSans-6e" transform="translate(1136.181641 0)"/>
     <use xlink:href="#DejaVuSans-20" transform="translate(1199.560547 0)"/>
     <use xlink:href="#DejaVuSans-4b" transform="translate(1231.347656 0)"/>
     <use xlink:href="#DejaVuSans-75" transform="translate(1291.923828 0)"/>
     <use xlink:href="#DejaVuSans-70" transform="translate(1355.302734 0)"/>
     <use xlink:href="#DejaVuSans-70" transform="translate(1418.779297 0)"/>
     <use xlink:href="#DejaVuSans-65" transform="translate(1482.255859 0)"/>
     <use xlink:href="#DejaVuSans-6c" transform="translate(1543.779297 0)"/>
     <use xlink:href="#DejaVuSans-73" transform="translate(1571.5625 0)"/>
     <use xlink:href="#DejaVuSans-74" transform="translate(1623.662109 0)"/>
     <use xlink:href="#DejaVuSans-65" transform="translate(1662.871094 0)"/>
     <use xlink:href="#DejaVuSans-6c" transform="translate(1724.394531 0)"/>
     <use xlink:href="#DejaVuSans-6c" transform="translate(1752.177734 0)"/>
     <use xlink:href="#DejaVuSans-65" transform="translate(1779.960938 0)"/>
     <use xlink:href="#DejaVuSans-6e" transform="translate(1841.484375 0)"/>
     <use xlink:href="#DejaVuSans-20" transform="translate(1904.863281 0)"/>
     <use xlink:href="#DejaVuSans-28" transform="translate(1936.650391 0)"/>
     <use xlink:href="#DejaVuSans-53" transform="translate(1975.664062 0)"/>
     <use xlink:href="#DejaVuSans-75" transform="translate(2039.140625 0)"/>
     <use xlink:href="#DejaVuSans-6d" transform="translate(2102.519531 0)"/>
     <use xlink:href="#DejaVuSans-6d" transform="translate(2199.931641 0)"/>
     <use xlink:href="#DejaVuSans-65" transform="translate(2297.34375 0)"/>
     <use xlink:href="#DejaVuSans-29" transform="translate(2358.867188 0)"/>
    </g>
   </g>
   <g id="legend_4">
    <g id="patch_25">
     <path d="M 1197.907187 857.554701 
L 1581.307187 857.554701 
Q 1587.307187 857.554701 1587.307187 851.554701 
L 1587.307187 747.754701 
Q 1587.307187 741.754701 1581.307187 741.754701 
L 1197.907187 741.754701 
Q 1191.907187 741.754701 1191.907187 747.754701 
L 1191.907187 851.554701 
Q 1191.907187 857.554701 1197.907187 857.554701 
z
" style="fill: #ffffff; opacity: 0.2; stroke: #cccccc; stroke-linejoin: miter"/>
    </g>
    <g id="line2d_119">
     <path d="M 1203.907187 770.854701 
L 1233.907187 770.854701 
L 1263.907187 770.854701 
" style="fill: none; stroke: #cc4c03; stroke-width: 3; stroke-linecap: square"/>
    </g>
    <g id="text_38">
     <!-- $Q_\mathrm{VN,soll}^{k}$ (ÜNB→VNB) -->
     <g transform="translate(1287.907187 781.354701) scale(0.3 -0.3)">
      <defs>
       <path id="DejaVuSans-Oblique-51" d="M 2309 -84 
Q 2275 -88 2237 -89 
Q 2200 -91 2125 -91 
Q 1250 -91 756 411 
Q 263 913 263 1797 
Q 263 2319 452 2844 
Q 641 3369 978 3788 
Q 1369 4269 1858 4509 
Q 2347 4750 2938 4750 
Q 3794 4750 4287 4245 
Q 4781 3741 4781 2869 
Q 4781 1928 4265 1147 
Q 3750 366 2919 44 
L 3553 -825 
L 2847 -825 
L 2309 -84 
z
M 2919 4238 
Q 2400 4238 2003 3986 
Q 1606 3734 1313 3219 
Q 1125 2891 1026 2522 
Q 928 2153 928 1778 
Q 928 1128 1239 775 
Q 1550 422 2119 422 
Q 2631 422 3032 676 
Q 3434 931 3719 1434 
Q 3909 1772 4009 2142 
Q 4109 2513 4109 2881 
Q 4109 3528 3796 3883 
Q 3484 4238 2919 4238 
z
" transform="scale(0.015625)"/>
       <path id="DejaVuSans-Oblique-6b" d="M 1172 4863 
L 1747 4863 
L 1197 2028 
L 3169 3500 
L 3916 3500 
L 1716 1825 
L 3322 0 
L 2625 0 
L 1131 1709 
L 800 0 
L 225 0 
L 1172 4863 
z
" transform="scale(0.015625)"/>
       <path id="DejaVuSans-2c" d="M 750 794 
L 1409 794 
L 1409 256 
L 897 -744 
L 494 -744 
L 750 256 
L 750 794 
z
" transform="scale(0.015625)"/>
       <path id="DejaVuSans-dc" d="M 556 4666 
L 1191 4666 
L 1191 1831 
Q 1191 1081 1462 751 
Q 1734 422 2344 422 
Q 2950 422 3222 751 
Q 3494 1081 3494 1831 
L 3494 4666 
L 4128 4666 
L 4128 1753 
Q 4128 841 3676 375 
Q 3225 -91 2344 -91 
Q 1459 -91 1007 375 
Q 556 841 556 1753 
L 556 4666 
z
M 2638 5844 
L 3272 5844 
L 3272 5210 
L 2638 5210 
L 2638 5844 
z
M 1416 5844 
L 2050 5844 
L 2050 5210 
L 1416 5210 
L 1416 5844 
z
" transform="scale(0.015625)"/>
       <path id="DejaVuSans-2192" d="M 5050 2147 
L 5050 1866 
L 3822 638 
L 3447 1013 
L 4175 1741 
L 366 1741 
L 366 2272 
L 4175 2272 
L 3447 3000 
L 3822 3375 
L 5050 2147 
z
" transform="scale(0.015625)"/>
      </defs>
      <use xlink:href="#DejaVuSans-Oblique-51" transform="translate(0 0.465625)"/>
      <use xlink:href="#DejaVuSans-Oblique-6b" transform="translate(85.911458 38.810938) scale(0.7)"/>
      <use xlink:href="#DejaVuSans-56" transform="translate(78.710938 -26.878125) scale(0.7)"/>
      <use xlink:href="#DejaVuSans-4e" transform="translate(126.59668 -26.878125) scale(0.7)"/>
      <use xlink:href="#DejaVuSans-2c" transform="translate(178.959961 -26.878125) scale(0.7)"/>
      <use xlink:href="#DejaVuSans-73" transform="translate(214.848633 -26.878125) scale(0.7)"/>
      <use xlink:href="#DejaVuSans-6f" transform="translate(251.318359 -26.878125) scale(0.7)"/>
      <use xlink:href="#DejaVuSans-6c" transform="translate(294.145508 -26.878125) scale(0.7)"/>
      <use xlink:href="#DejaVuSans-6c" transform="translate(313.59375 -26.878125) scale(0.7)"/>
      <use xlink:href="#DejaVuSans-20" transform="translate(335.776367 0.465625)"/>
      <use xlink:href="#DejaVuSans-28" transform="translate(367.563477 0.465625)"/>
      <use xlink:href="#DejaVuSans-dc" transform="translate(406.577148 0.465625)"/>
      <use xlink:href="#DejaVuSans-4e" transform="translate(479.770508 0.465625)"/>
      <use xlink:href="#DejaVuSans-42" transform="translate(554.575195 0.465625)"/>
      <use xlink:href="#DejaVuSans-2192" transform="translate(623.178711 0.465625)"/>
      <use xlink:href="#DejaVuSans-56" transform="translate(706.967773 0.465625)"/>
      <use xlink:href="#DejaVuSans-4e" transform="translate(775.375977 0.465625)"/>
      <use xlink:href="#DejaVuSans-42" transform="translate(850.180664 0.465625)"/>
      <use xlink:href="#DejaVuSans-29" transform="translate(918.78418 0.465625)"/>
     </g>
    </g>
    <g id="line2d_120">
     <path d="M 1203.907187 824.254701 
L 1233.907187 824.254701 
L 1263.907187 824.254701 
" style="fill: none; stroke-dasharray: 11.1,4.8; stroke-dashoffset: 0; stroke: #b1bd00; stroke-width: 3"/>
    </g>
    <g id="text_39">
     <!-- $Q_\mathrm{VN,ist}^{k}$ (ÜNB→VNB) -->
     <g transform="translate(1287.907187 834.754701) scale(0.3 -0.3)">
      <use xlink:href="#DejaVuSans-Oblique-51" transform="translate(0 0.465625)"/>
      <use xlink:href="#DejaVuSans-Oblique-6b" transform="translate(85.911458 38.810938) scale(0.7)"/>
      <use xlink:href="#DejaVuSans-56" transform="translate(78.710938 -26.878125) scale(0.7)"/>
      <use xlink:href="#DejaVuSans-4e" transform="translate(126.59668 -26.878125) scale(0.7)"/>
      <use xlink:href="#DejaVuSans-2c" transform="translate(178.959961 -26.878125) scale(0.7)"/>
      <use xlink:href="#DejaVuSans-69" transform="translate(214.848633 -26.878125) scale(0.7)"/>
      <use xlink:href="#DejaVuSans-73" transform="translate(234.296875 -26.878125) scale(0.7)"/>
      <use xlink:href="#DejaVuSans-74" transform="translate(270.766602 -26.878125) scale(0.7)"/>
      <use xlink:href="#DejaVuSans-20" transform="translate(300.947266 0.465625)"/>
      <use xlink:href="#DejaVuSans-28" transform="translate(332.734375 0.465625)"/>
      <use xlink:href="#DejaVuSans-dc" transform="translate(371.748047 0.465625)"/>
      <use xlink:href="#DejaVuSans-4e" transform="translate(444.941406 0.465625)"/>
      <use xlink:href="#DejaVuSans-42" transform="translate(519.746094 0.465625)"/>
      <use xlink:href="#DejaVuSans-2192" transform="translate(588.349609 0.465625)"/>
      <use xlink:href="#DejaVuSans-56" transform="translate(672.138672 0.465625)"/>
      <use xlink:href="#DejaVuSans-4e" transform="translate(740.546875 0.465625)"/>
      <use xlink:href="#DejaVuSans-42" transform="translate(815.351562 0.465625)"/>
      <use xlink:href="#DejaVuSans-29" transform="translate(883.955078 0.465625)"/>
     </g>
    </g>
   </g>
  </g>
 </g>
 <defs>
  <clipPath id="p775370a8ad">
   <rect x="133.507187" y="43.976875" width="1468.8" height="146.702174"/>
  </clipPath>
  <clipPath id="p68756c4773">
   <rect x="133.507187" y="271.569484" width="1468.8" height="146.702174"/>
  </clipPath>
  <clipPath id="pd96b5621ac">
   <rect x="133.507187" y="499.162092" width="1468.8" height="146.702174"/>
  </clipPath>
  <clipPath id="p704fac9cfd">
   <rect x="133.507187" y="726.754701" width="1468.8" height="146.702174"/>
  </clipPath>
 </defs>
</svg>
