<?xml version="1.0" encoding="utf-8" standalone="no"?>
<!DOCTYPE svg PUBLIC "-//W3C//DTD SVG 1.1//EN"
  "http://www.w3.org/Graphics/SVG/1.1/DTD/svg11.dtd">
<svg xmlns:xlink="http://www.w3.org/1999/xlink" width="1632.0775pt" height="449.661563pt" viewBox="0 0 1632.0775 449.661563" xmlns="http://www.w3.org/2000/svg" version="1.1">
 <metadata>
  <rdf:RDF xmlns:dc="http://purl.org/dc/elements/1.1/" xmlns:cc="http://creativecommons.org/ns#" xmlns:rdf="http://www.w3.org/1999/02/22-rdf-syntax-ns#">
   <cc:Work>
    <dc:type rdf:resource="http://purl.org/dc/dcmitype/StillImage"/>
    <dc:date>2026-03-13T14:55:11.411648</dc:date>
    <dc:format>image/svg+xml</dc:format>
    <dc:creator>
     <cc:Agent>
      <dc:title>Matplotlib v3.10.8, https://matplotlib.org/</dc:title>
     </cc:Agent>
    </dc:creator>
   </cc:Work>
  </rdf:RDF>
 </metadata>
 <defs>
  <style type="text/css">*{stroke-linejoin: round; stroke-linecap: butt}</style>
 </defs>
 <g id="figure_1">
  <g id="patch_1">
   <path d="M 0 449.661563 
L 1632.0775 449.661563 
L 1632.0775 0 
L 0 0 
z
" style="fill: #ffffff"/>
  </g>
  <g id="axes_1">
   <g id="patch_2">
    <path d="M 136.99 369.521563 
L 1605.79 369.521563 
L 1605.79 49.801563 
L 136.99 49.801563 
z
" style="fill: #ffffff"/>
   </g>
   <g id="FillBetweenPolyCollection_1">
    <defs>
     <path id="m0b43dc328a" d="M 136.99 -385.327273 
L 136.99 -286.028308 
L 153.493371 -285.897388 
L 169.996742 -276.774068 
L 186.500112 -276.642267 
L 203.003483 -276.509988 
L 219.506854 -267.991872 
L 236.010225 -267.8587 
L 252.513596 -267.725049 
L 269.016966 -259.774495 
L 285.520337 -259.63994 
L 302.023708 -259.504906 
L 318.527079 -178.120585 
L 335.030449 -177.986477 
L 351.53382 -177.851888 
L 368.037191 -175.854572 
L 384.540562 -175.928835 
L 401.043933 -176.002782 
L 417.547303 -174.306997 
L 434.050674 -174.380292 
L 450.554045 -174.453271 
L 467.057416 -172.839739 
L 483.560787 -172.912065 
L 500.064157 -172.984075 
L 516.567528 -95.262194 
L 533.070899 -95.332313 
L 549.57427 -95.402115 
L 566.07764 -94.672727 
L 582.581011 -94.741885 
L 599.084382 -94.810726 
L 615.587753 -315.667284 
L 632.091124 -315.683179 
L 648.594494 -315.699055 
L 665.097865 -300.549031 
L 681.601236 -300.564882 
L 698.104607 -300.580712 
L 714.607978 -286.375155 
L 731.111348 -286.39096 
L 747.614719 -286.406745 
L 764.11809 -273.090118 
L 780.621461 -273.105876 
L 797.124831 -273.121614 
L 813.628202 -270.898235 
L 830.131573 -270.913935 
L 846.634944 -270.929616 
L 863.138315 -270.945277 
L 879.641685 -270.827071 
L 896.145056 -270.708559 
L 912.648427 -270.589738 
L 929.151798 -270.470609 
L 945.655169 -270.351173 
L 962.158539 -270.231428 
L 978.66191 -270.111376 
L 995.165281 -269.991016 
L 1011.668652 -269.870348 
L 1028.172022 -269.749372 
L 1044.675393 -269.628088 
L 1061.178764 -269.506495 
L 1077.682135 -269.384595 
L 1094.185506 -269.262387 
L 1110.688876 -269.13987 
L 1127.192247 -269.184217 
L 1143.695618 -269.228048 
L 1160.198989 -269.271364 
L 1176.70236 -269.314163 
L 1193.20573 -269.356447 
L 1209.709101 -269.398216 
L 1226.212472 -269.43947 
L 1242.715843 -269.480209 
L 1259.219213 -269.520432 
L 1275.722584 -269.560141 
L 1292.225955 -269.599336 
L 1308.729326 -269.638016 
L 1325.232697 -269.676182 
L 1341.736067 -269.713834 
L 1358.239438 -269.750971 
L 1374.742809 -269.535139 
L 1391.24618 -269.319177 
L 1407.749551 -269.103085 
L 1424.252921 -268.886865 
L 1440.756292 -268.670515 
L 1457.259663 -268.454035 
L 1473.763034 -268.237426 
L 1490.266404 -268.020688 
L 1506.769775 -267.80382 
L 1523.273146 -267.586822 
L 1539.776517 -267.369695 
L 1556.279888 -267.152438 
L 1572.783258 -266.935052 
L 1589.286629 -266.717536 
L 1605.79 -266.49989 
L 1605.79 -345.234937 
L 1605.79 -345.234937 
L 1589.286629 -345.412206 
L 1572.783258 -345.589344 
L 1556.279888 -345.76635 
L 1539.776517 -345.943226 
L 1523.273146 -346.119971 
L 1506.769775 -346.296585 
L 1490.266404 -346.473067 
L 1473.763034 -346.649419 
L 1457.259663 -346.825641 
L 1440.756292 -347.001731 
L 1424.252921 -347.177691 
L 1407.749551 -347.35352 
L 1391.24618 -347.529218 
L 1374.742809 -347.704786 
L 1358.239438 -347.880223 
L 1341.736067 -347.725209 
L 1325.232697 -347.569502 
L 1308.729326 -347.413101 
L 1292.225955 -347.256006 
L 1275.722584 -347.098218 
L 1259.219213 -346.939735 
L 1242.715843 -346.780558 
L 1226.212472 -346.620687 
L 1209.709101 -346.46012 
L 1193.20573 -346.298859 
L 1176.70236 -346.136902 
L 1160.198989 -345.974249 
L 1143.695618 -345.810901 
L 1127.192247 -345.646857 
L 1110.688876 -345.482117 
L 1094.185506 -345.618092 
L 1077.682135 -345.75369 
L 1061.178764 -345.888911 
L 1044.675393 -346.023754 
L 1028.172022 -346.158219 
L 1011.668652 -346.292308 
L 995.165281 -346.426019 
L 978.66191 -346.559352 
L 962.158539 -346.692309 
L 945.655169 -346.824888 
L 929.151798 -346.95709 
L 912.648427 -347.088915 
L 896.145056 -347.220363 
L 879.641685 -347.351433 
L 863.138315 -347.482127 
L 846.634944 -347.43242 
L 830.131573 -347.382687 
L 813.628202 -347.332929 
L 797.124831 -348.228143 
L 780.621461 -348.178336 
L 764.11809 -348.128504 
L 747.614719 -356.072973 
L 731.111348 -356.03987 
L 714.607978 -356.006742 
L 698.104607 -366.060339 
L 681.601236 -366.027182 
L 665.097865 -365.993999 
L 648.594494 -376.717293 
L 632.091124 -376.684083 
L 615.587753 -376.650847 
L 599.084382 -235.275185 
L 582.581011 -235.154801 
L 566.07764 -235.033848 
L 549.57427 -237.888856 
L 533.070899 -237.766765 
L 516.567528 -237.644106 
L 500.064157 -276.69648 
L 483.560787 -276.571618 
L 467.057416 -276.446193 
L 450.554045 -282.546131 
L 434.050674 -282.419585 
L 417.547303 -282.292476 
L 401.043933 -288.698364 
L 384.540562 -288.570138 
L 368.037191 -288.441348 
L 351.53382 -295.594295 
L 335.030449 -295.869676 
L 318.527079 -296.144188 
L 302.023708 -340.749343 
L 285.520337 -341.02323 
L 269.016966 -341.296256 
L 252.513596 -354.567676 
L 236.010225 -354.838918 
L 219.506854 -355.109303 
L 203.003483 -369.318199 
L 186.500112 -369.586808 
L 169.996742 -369.854563 
L 153.493371 -385.061284 
L 136.99 -385.327273 
z
" style="stroke: #7fb4ce; stroke-opacity: 0.25; stroke-linecap: round"/>
    </defs>
    <g clip-path="url(#pd906a470c7)">
     <use xlink:href="#m0b43dc328a" x="0" y="449.661563" style="fill: #7fb4ce; fill-opacity: 0.25; stroke: #7fb4ce; stroke-opacity: 0.25; stroke-linecap: round"/>
    </g>
   </g>
   <g id="FillBetweenPolyCollection_2">
    <defs>
     <path id="m3c29143824" d="M 136.99 -361.87722 
L 136.99 -280.678627 
L 153.493371 -274.341448 
L 169.996742 -261.065659 
L 186.500112 -256.843309 
L 203.003483 -253.462239 
L 219.506854 -242.708638 
L 236.010225 -242.28482 
L 252.513596 -239.424611 
L 269.016966 -230.594487 
L 285.520337 -227.94042 
L 302.023708 -228.711953 
L 318.527079 -147.663022 
L 335.030449 -145.785595 
L 351.53382 -144.302243 
L 368.037191 -142.751453 
L 384.540562 -143.341684 
L 401.043933 -142.317 
L 417.547303 -140.777762 
L 434.050674 -140.293377 
L 450.554045 -140.114314 
L 467.057416 -139.317151 
L 483.560787 -139.192839 
L 500.064157 -139.169408 
L 516.567528 -138.651118 
L 533.070899 -138.71448 
L 549.57427 -138.83113 
L 566.07764 -138.500921 
L 582.581011 -138.689033 
L 599.084382 -138.897267 
L 615.587753 -224.540949 
L 632.091124 -218.373175 
L 648.594494 -213.063897 
L 665.097865 -198.546158 
L 681.601236 -193.251152 
L 698.104607 -188.898057 
L 714.607978 -186.926303 
L 731.111348 -183.150744 
L 747.614719 -180.141918 
L 764.11809 -170.26694 
L 780.621461 -166.708287 
L 797.124831 -163.797998 
L 813.628202 -165.583709 
L 830.131573 -149.85415 
L 846.634944 -147.349929 
L 863.138315 -141.266039 
L 879.641685 -139.160601 
L 896.145056 -137.508837 
L 912.648427 -142.484691 
L 929.151798 -141.160154 
L 945.655169 -140.205898 
L 962.158539 -135.249192 
L 978.66191 -133.431477 
L 995.165281 -131.96481 
L 1011.668652 -128.358493 
L 1028.172022 -127.20064 
L 1044.675393 -126.284321 
L 1061.178764 -123.655833 
L 1077.682135 -122.977446 
L 1094.185506 -122.44899 
L 1110.688876 -120.512828 
L 1127.192247 -120.609033 
L 1143.695618 -120.757586 
L 1160.198989 -119.575381 
L 1176.70236 -119.793407 
L 1193.20573 -120.025456 
L 1209.709101 -118.969177 
L 1226.212472 -119.228731 
L 1242.715843 -119.481661 
L 1259.219213 -118.481788 
L 1275.722584 -118.739609 
L 1292.225955 -118.981572 
L 1308.729326 -118.006391 
L 1325.232697 -118.242286 
L 1341.736067 -118.459857 
L 1358.239438 -117.499478 
L 1374.742809 -117.34498 
L 1391.24618 -117.203437 
L 1407.749551 -116.063584 
L 1424.252921 -116.039703 
L 1440.756292 -116.001741 
L 1457.259663 -115.009463 
L 1473.763034 -115.001217 
L 1490.266404 -114.976981 
L 1506.769775 -114.104478 
L 1523.273146 -114.135995 
L 1539.776517 -114.147881 
L 1556.279888 -113.376101 
L 1572.783258 -113.440481 
L 1589.286629 -113.481494 
L 1605.79 -112.792372 
L 1605.79 -207.922097 
L 1605.79 -207.922097 
L 1589.286629 -208.486044 
L 1572.783258 -208.520455 
L 1556.279888 -208.537435 
L 1539.776517 -209.161854 
L 1523.273146 -209.21784 
L 1506.769775 -209.259191 
L 1490.266404 -209.957393 
L 1473.763034 -210.040211 
L 1457.259663 -210.111122 
L 1440.756292 -210.89713 
L 1424.252921 -210.99032 
L 1407.749551 -211.073031 
L 1391.24618 -211.975863 
L 1374.742809 -212.170811 
L 1358.239438 -212.37675 
L 1341.736067 -213.102955 
L 1325.232697 -212.97355 
L 1308.729326 -212.829767 
L 1292.225955 -213.566283 
L 1275.722584 -213.419041 
L 1259.219213 -213.259339 
L 1242.715843 -214.014098 
L 1226.212472 -213.859582 
L 1209.709101 -213.699938 
L 1193.20573 -214.497914 
L 1176.70236 -214.361217 
L 1160.198989 -214.235891 
L 1143.695618 -215.131479 
L 1127.192247 -215.061918 
L 1110.688876 -215.034468 
L 1094.185506 -216.545201 
L 1077.682135 -217.041887 
L 1061.178764 -217.672364 
L 1044.675393 -219.753324 
L 1028.172022 -220.594183 
L 1011.668652 -221.650619 
L 995.165281 -224.537438 
L 978.66191 -225.866223 
L 962.158539 -227.508452 
L 945.655169 -231.503551 
L 929.151798 -232.357157 
L 912.648427 -233.542845 
L 896.145056 -234.751966 
L 879.641685 -236.251223 
L 863.138315 -238.154062 
L 846.634944 -243.009079 
L 830.131573 -245.251352 
L 813.628202 -244.850925 
L 797.124831 -248.387627 
L 780.621461 -250.993938 
L 764.11809 -254.17905 
L 747.614719 -262.078938 
L 731.111348 -264.751957 
L 714.607978 -268.110452 
L 698.104607 -274.420486 
L 681.601236 -278.303905 
L 665.097865 -283.027049 
L 648.594494 -294.627323 
L 632.091124 -299.361152 
L 615.587753 -304.860108 
L 599.084382 -206.264805 
L 582.581011 -206.115541 
L 566.07764 -205.983076 
L 549.57427 -207.35301 
L 533.070899 -207.280671 
L 516.567528 -207.252937 
L 500.064157 -208.833485 
L 483.560787 -208.878964 
L 467.057416 -209.00893 
L 450.554045 -210.90108 
L 434.050674 -211.077334 
L 417.547303 -211.563567 
L 401.043933 -214.350909 
L 384.540562 -215.443777 
L 368.037191 -217.135233 
L 351.53382 -218.846793 
L 335.030449 -220.880757 
L 318.527079 -223.442716 
L 302.023708 -274.431146 
L 285.520337 -279.123032 
L 269.016966 -282.723903 
L 252.513596 -295.651236 
L 236.010225 -299.470772 
L 219.506854 -306.931975 
L 203.003483 -322.775653 
L 186.500112 -327.367556 
L 169.996742 -333.07327 
L 153.493371 -352.557894 
L 136.99 -361.87722 
z
" style="stroke: #d8e07f; stroke-opacity: 0.25; stroke-linecap: round"/>
    </defs>
    <g clip-path="url(#pd906a470c7)">
     <use xlink:href="#m3c29143824" x="0" y="449.661563" style="fill: #d8e07f; fill-opacity: 0.25; stroke: #d8e07f; stroke-opacity: 0.25; stroke-linecap: round"/>
    </g>
   </g>
   <g id="matplotlib.axis_1">
    <g id="xtick_1">
     <g id="line2d_1">
      <path d="M 285.520337 369.521563 
L 285.520337 49.801563 
" clip-path="url(#pd906a470c7)" style="fill: none; stroke: #b0b0b0; stroke-opacity: 0.3; stroke-width: 0.8; stroke-linecap: square"/>
     </g>
     <g id="line2d_2">
      <defs>
       <path id="m3347bc4ebf" d="M 0 0 
L 0 3.5 
" style="stroke: #000000; stroke-width: 0.8"/>
      </defs>
      <g>
       <use xlink:href="#m3347bc4ebf" x="285.520337" y="369.521563" style="stroke: #000000; stroke-width: 0.8"/>
      </g>
     </g>
     <g id="text_1">
      <!-- 10 -->
      <g transform="translate(266.432837 399.316875) scale(0.3 -0.3)">
       <defs>
        <path id="DejaVuSans-31" d="M 794 531 
L 1825 531 
L 1825 4091 
L 703 3866 
L 703 4441 
L 1819 4666 
L 2450 4666 
L 2450 531 
L 3481 531 
L 3481 0 
L 794 0 
L 794 531 
z
" transform="scale(0.015625)"/>
        <path id="DejaVuSans-30" d="M 2034 4250 
Q 1547 4250 1301 3770 
Q 1056 3291 1056 2328 
Q 1056 1369 1301 889 
Q 1547 409 2034 409 
Q 2525 409 2770 889 
Q 3016 1369 3016 2328 
Q 3016 3291 2770 3770 
Q 2525 4250 2034 4250 
z
M 2034 4750 
Q 2819 4750 3233 4129 
Q 3647 3509 3647 2328 
Q 3647 1150 3233 529 
Q 2819 -91 2034 -91 
Q 1250 -91 836 529 
Q 422 1150 422 2328 
Q 422 3509 836 4129 
Q 1250 4750 2034 4750 
z
" transform="scale(0.015625)"/>
       </defs>
       <use xlink:href="#DejaVuSans-31"/>
       <use xlink:href="#DejaVuSans-30" transform="translate(63.623047 0)"/>
      </g>
     </g>
    </g>
    <g id="xtick_2">
     <g id="line2d_3">
      <path d="M 450.554045 369.521563 
L 450.554045 49.801563 
" clip-path="url(#pd906a470c7)" style="fill: none; stroke: #b0b0b0; stroke-opacity: 0.3; stroke-width: 0.8; stroke-linecap: square"/>
     </g>
     <g id="line2d_4">
      <g>
       <use xlink:href="#m3347bc4ebf" x="450.554045" y="369.521563" style="stroke: #000000; stroke-width: 0.8"/>
      </g>
     </g>
     <g id="text_2">
      <!-- 20 -->
      <g transform="translate(431.466545 399.316875) scale(0.3 -0.3)">
       <defs>
        <path id="DejaVuSans-32" d="M 1228 531 
L 3431 531 
L 3431 0 
L 469 0 
L 469 531 
Q 828 903 1448 1529 
Q 2069 2156 2228 2338 
Q 2531 2678 2651 2914 
Q 2772 3150 2772 3378 
Q 2772 3750 2511 3984 
Q 2250 4219 1831 4219 
Q 1534 4219 1204 4116 
Q 875 4013 500 3803 
L 500 4441 
Q 881 4594 1212 4672 
Q 1544 4750 1819 4750 
Q 2544 4750 2975 4387 
Q 3406 4025 3406 3419 
Q 3406 3131 3298 2873 
Q 3191 2616 2906 2266 
Q 2828 2175 2409 1742 
Q 1991 1309 1228 531 
z
" transform="scale(0.015625)"/>
       </defs>
       <use xlink:href="#DejaVuSans-32"/>
       <use xlink:href="#DejaVuSans-30" transform="translate(63.623047 0)"/>
      </g>
     </g>
    </g>
    <g id="xtick_3">
     <g id="line2d_5">
      <path d="M 615.587753 369.521563 
L 615.587753 49.801563 
" clip-path="url(#pd906a470c7)" style="fill: none; stroke: #b0b0b0; stroke-opacity: 0.3; stroke-width: 0.8; stroke-linecap: square"/>
     </g>
     <g id="line2d_6">
      <g>
       <use xlink:href="#m3347bc4ebf" x="615.587753" y="369.521563" style="stroke: #000000; stroke-width: 0.8"/>
      </g>
     </g>
     <g id="text_3">
      <!-- 30 -->
      <g transform="translate(596.500253 399.316875) scale(0.3 -0.3)">
       <defs>
        <path id="DejaVuSans-33" d="M 2597 2516 
Q 3050 2419 3304 2112 
Q 3559 1806 3559 1356 
Q 3559 666 3084 287 
Q 2609 -91 1734 -91 
Q 1441 -91 1130 -33 
Q 819 25 488 141 
L 488 750 
Q 750 597 1062 519 
Q 1375 441 1716 441 
Q 2309 441 2620 675 
Q 2931 909 2931 1356 
Q 2931 1769 2642 2001 
Q 2353 2234 1838 2234 
L 1294 2234 
L 1294 2753 
L 1863 2753 
Q 2328 2753 2575 2939 
Q 2822 3125 2822 3475 
Q 2822 3834 2567 4026 
Q 2313 4219 1838 4219 
Q 1578 4219 1281 4162 
Q 984 4106 628 3988 
L 628 4550 
Q 988 4650 1302 4700 
Q 1616 4750 1894 4750 
Q 2613 4750 3031 4423 
Q 3450 4097 3450 3541 
Q 3450 3153 3228 2886 
Q 3006 2619 2597 2516 
z
" transform="scale(0.015625)"/>
       </defs>
       <use xlink:href="#DejaVuSans-33"/>
       <use xlink:href="#DejaVuSans-30" transform="translate(63.623047 0)"/>
      </g>
     </g>
    </g>
    <g id="xtick_4">
     <g id="line2d_7">
      <path d="M 780.621461 369.521563 
L 780.621461 49.801563 
" clip-path="url(#pd906a470c7)" style="fill: none; stroke: #b0b0b0; stroke-opacity: 0.3; stroke-width: 0.8; stroke-linecap: square"/>
     </g>
     <g id="line2d_8">
      <g>
       <use xlink:href="#m3347bc4ebf" x="780.621461" y="369.521563" style="stroke: #000000; stroke-width: 0.8"/>
      </g>
     </g>
     <g id="text_4">
      <!-- 40 -->
      <g transform="translate(761.533961 399.316875) scale(0.3 -0.3)">
       <defs>
        <path id="DejaVuSans-34" d="M 2419 4116 
L 825 1625 
L 2419 1625 
L 2419 4116 
z
M 2253 4666 
L 3047 4666 
L 3047 1625 
L 3713 1625 
L 3713 1100 
L 3047 1100 
L 3047 0 
L 2419 0 
L 2419 1100 
L 313 1100 
L 313 1709 
L 2253 4666 
z
" transform="scale(0.015625)"/>
       </defs>
       <use xlink:href="#DejaVuSans-34"/>
       <use xlink:href="#DejaVuSans-30" transform="translate(63.623047 0)"/>
      </g>
     </g>
    </g>
    <g id="xtick_5">
     <g id="line2d_9">
      <path d="M 945.655169 369.521563 
L 945.655169 49.801563 
" clip-path="url(#pd906a470c7)" style="fill: none; stroke: #b0b0b0; stroke-opacity: 0.3; stroke-width: 0.8; stroke-linecap: square"/>
     </g>
     <g id="line2d_10">
      <g>
       <use xlink:href="#m3347bc4ebf" x="945.655169" y="369.521563" style="stroke: #000000; stroke-width: 0.8"/>
      </g>
     </g>
     <g id="text_5">
      <!-- 50 -->
      <g transform="translate(926.567669 399.316875) scale(0.3 -0.3)">
       <defs>
        <path id="DejaVuSans-35" d="M 691 4666 
L 3169 4666 
L 3169 4134 
L 1269 4134 
L 1269 2991 
Q 1406 3038 1543 3061 
Q 1681 3084 1819 3084 
Q 2600 3084 3056 2656 
Q 3513 2228 3513 1497 
Q 3513 744 3044 326 
Q 2575 -91 1722 -91 
Q 1428 -91 1123 -41 
Q 819 9 494 109 
L 494 744 
Q 775 591 1075 516 
Q 1375 441 1709 441 
Q 2250 441 2565 725 
Q 2881 1009 2881 1497 
Q 2881 1984 2565 2268 
Q 2250 2553 1709 2553 
Q 1456 2553 1204 2497 
Q 953 2441 691 2322 
L 691 4666 
z
" transform="scale(0.015625)"/>
       </defs>
       <use xlink:href="#DejaVuSans-35"/>
       <use xlink:href="#DejaVuSans-30" transform="translate(63.623047 0)"/>
      </g>
     </g>
    </g>
    <g id="xtick_6">
     <g id="line2d_11">
      <path d="M 1110.688876 369.521563 
L 1110.688876 49.801563 
" clip-path="url(#pd906a470c7)" style="fill: none; stroke: #b0b0b0; stroke-opacity: 0.3; stroke-width: 0.8; stroke-linecap: square"/>
     </g>
     <g id="line2d_12">
      <g>
       <use xlink:href="#m3347bc4ebf" x="1110.688876" y="369.521563" style="stroke: #000000; stroke-width: 0.8"/>
      </g>
     </g>
     <g id="text_6">
      <!-- 60 -->
      <g transform="translate(1091.601376 399.316875) scale(0.3 -0.3)">
       <defs>
        <path id="DejaVuSans-36" d="M 2113 2584 
Q 1688 2584 1439 2293 
Q 1191 2003 1191 1497 
Q 1191 994 1439 701 
Q 1688 409 2113 409 
Q 2538 409 2786 701 
Q 3034 994 3034 1497 
Q 3034 2003 2786 2293 
Q 2538 2584 2113 2584 
z
M 3366 4563 
L 3366 3988 
Q 3128 4100 2886 4159 
Q 2644 4219 2406 4219 
Q 1781 4219 1451 3797 
Q 1122 3375 1075 2522 
Q 1259 2794 1537 2939 
Q 1816 3084 2150 3084 
Q 2853 3084 3261 2657 
Q 3669 2231 3669 1497 
Q 3669 778 3244 343 
Q 2819 -91 2113 -91 
Q 1303 -91 875 529 
Q 447 1150 447 2328 
Q 447 3434 972 4092 
Q 1497 4750 2381 4750 
Q 2619 4750 2861 4703 
Q 3103 4656 3366 4563 
z
" transform="scale(0.015625)"/>
       </defs>
       <use xlink:href="#DejaVuSans-36"/>
       <use xlink:href="#DejaVuSans-30" transform="translate(63.623047 0)"/>
      </g>
     </g>
    </g>
    <g id="xtick_7">
     <g id="line2d_13">
      <path d="M 1275.722584 369.521563 
L 1275.722584 49.801563 
" clip-path="url(#pd906a470c7)" style="fill: none; stroke: #b0b0b0; stroke-opacity: 0.3; stroke-width: 0.8; stroke-linecap: square"/>
     </g>
     <g id="line2d_14">
      <g>
       <use xlink:href="#m3347bc4ebf" x="1275.722584" y="369.521563" style="stroke: #000000; stroke-width: 0.8"/>
      </g>
     </g>
     <g id="text_7">
      <!-- 70 -->
      <g transform="translate(1256.635084 399.316875) scale(0.3 -0.3)">
       <defs>
        <path id="DejaVuSans-37" d="M 525 4666 
L 3525 4666 
L 3525 4397 
L 1831 0 
L 1172 0 
L 2766 4134 
L 525 4134 
L 525 4666 
z
" transform="scale(0.015625)"/>
       </defs>
       <use xlink:href="#DejaVuSans-37"/>
       <use xlink:href="#DejaVuSans-30" transform="translate(63.623047 0)"/>
      </g>
     </g>
    </g>
    <g id="xtick_8">
     <g id="line2d_15">
      <path d="M 1440.756292 369.521563 
L 1440.756292 49.801563 
" clip-path="url(#pd906a470c7)" style="fill: none; stroke: #b0b0b0; stroke-opacity: 0.3; stroke-width: 0.8; stroke-linecap: square"/>
     </g>
     <g id="line2d_16">
      <g>
       <use xlink:href="#m3347bc4ebf" x="1440.756292" y="369.521563" style="stroke: #000000; stroke-width: 0.8"/>
      </g>
     </g>
     <g id="text_8">
      <!-- 80 -->
      <g transform="translate(1421.668792 399.316875) scale(0.3 -0.3)">
       <defs>
        <path id="DejaVuSans-38" d="M 2034 2216 
Q 1584 2216 1326 1975 
Q 1069 1734 1069 1313 
Q 1069 891 1326 650 
Q 1584 409 2034 409 
Q 2484 409 2743 651 
Q 3003 894 3003 1313 
Q 3003 1734 2745 1975 
Q 2488 2216 2034 2216 
z
M 1403 2484 
Q 997 2584 770 2862 
Q 544 3141 544 3541 
Q 544 4100 942 4425 
Q 1341 4750 2034 4750 
Q 2731 4750 3128 4425 
Q 3525 4100 3525 3541 
Q 3525 3141 3298 2862 
Q 3072 2584 2669 2484 
Q 3125 2378 3379 2068 
Q 3634 1759 3634 1313 
Q 3634 634 3220 271 
Q 2806 -91 2034 -91 
Q 1263 -91 848 271 
Q 434 634 434 1313 
Q 434 1759 690 2068 
Q 947 2378 1403 2484 
z
M 1172 3481 
Q 1172 3119 1398 2916 
Q 1625 2713 2034 2713 
Q 2441 2713 2670 2916 
Q 2900 3119 2900 3481 
Q 2900 3844 2670 4047 
Q 2441 4250 2034 4250 
Q 1625 4250 1398 4047 
Q 1172 3844 1172 3481 
z
" transform="scale(0.015625)"/>
       </defs>
       <use xlink:href="#DejaVuSans-38"/>
       <use xlink:href="#DejaVuSans-30" transform="translate(63.623047 0)"/>
      </g>
     </g>
    </g>
    <g id="xtick_9">
     <g id="line2d_17">
      <path d="M 1605.79 369.521563 
L 1605.79 49.801563 
" clip-path="url(#pd906a470c7)" style="fill: none; stroke: #b0b0b0; stroke-opacity: 0.3; stroke-width: 0.8; stroke-linecap: square"/>
     </g>
     <g id="line2d_18">
      <g>
       <use xlink:href="#m3347bc4ebf" x="1605.79" y="369.521563" style="stroke: #000000; stroke-width: 0.8"/>
      </g>
     </g>
     <g id="text_9">
      <!-- 90 -->
      <g transform="translate(1586.7025 399.316875) scale(0.3 -0.3)">
       <defs>
        <path id="DejaVuSans-39" d="M 703 97 
L 703 672 
Q 941 559 1184 500 
Q 1428 441 1663 441 
Q 2288 441 2617 861 
Q 2947 1281 2994 2138 
Q 2813 1869 2534 1725 
Q 2256 1581 1919 1581 
Q 1219 1581 811 2004 
Q 403 2428 403 3163 
Q 403 3881 828 4315 
Q 1253 4750 1959 4750 
Q 2769 4750 3195 4129 
Q 3622 3509 3622 2328 
Q 3622 1225 3098 567 
Q 2575 -91 1691 -91 
Q 1453 -91 1209 -44 
Q 966 3 703 97 
z
M 1959 2075 
Q 2384 2075 2632 2365 
Q 2881 2656 2881 3163 
Q 2881 3666 2632 3958 
Q 2384 4250 1959 4250 
Q 1534 4250 1286 3958 
Q 1038 3666 1038 3163 
Q 1038 2656 1286 2365 
Q 1534 2075 1959 2075 
z
" transform="scale(0.015625)"/>
       </defs>
       <use xlink:href="#DejaVuSans-39"/>
       <use xlink:href="#DejaVuSans-30" transform="translate(63.623047 0)"/>
      </g>
     </g>
    </g>
    <g id="text_10">
     <!-- Zeit [min] -->
     <g transform="translate(787.173594 435.390625) scale(0.34 -0.34)">
      <defs>
       <path id="DejaVuSans-5a" d="M 359 4666 
L 4025 4666 
L 4025 4184 
L 1075 531 
L 4097 531 
L 4097 0 
L 288 0 
L 288 481 
L 3238 4134 
L 359 4134 
L 359 4666 
z
" transform="scale(0.015625)"/>
       <path id="DejaVuSans-65" d="M 3597 1894 
L 3597 1613 
L 953 1613 
Q 991 1019 1311 708 
Q 1631 397 2203 397 
Q 2534 397 2845 478 
Q 3156 559 3463 722 
L 3463 178 
Q 3153 47 2828 -22 
Q 2503 -91 2169 -91 
Q 1331 -91 842 396 
Q 353 884 353 1716 
Q 353 2575 817 3079 
Q 1281 3584 2069 3584 
Q 2775 3584 3186 3129 
Q 3597 2675 3597 1894 
z
M 3022 2063 
Q 3016 2534 2758 2815 
Q 2500 3097 2075 3097 
Q 1594 3097 1305 2825 
Q 1016 2553 972 2059 
L 3022 2063 
z
" transform="scale(0.015625)"/>
       <path id="DejaVuSans-69" d="M 603 3500 
L 1178 3500 
L 1178 0 
L 603 0 
L 603 3500 
z
M 603 4863 
L 1178 4863 
L 1178 4134 
L 603 4134 
L 603 4863 
z
" transform="scale(0.015625)"/>
       <path id="DejaVuSans-74" d="M 1172 4494 
L 1172 3500 
L 2356 3500 
L 2356 3053 
L 1172 3053 
L 1172 1153 
Q 1172 725 1289 603 
Q 1406 481 1766 481 
L 2356 481 
L 2356 0 
L 1766 0 
Q 1100 0 847 248 
Q 594 497 594 1153 
L 594 3053 
L 172 3053 
L 172 3500 
L 594 3500 
L 594 4494 
L 1172 4494 
z
" transform="scale(0.015625)"/>
       <path id="DejaVuSans-20" transform="scale(0.015625)"/>
       <path id="DejaVuSans-5b" d="M 550 4863 
L 1875 4863 
L 1875 4416 
L 1125 4416 
L 1125 -397 
L 1875 -397 
L 1875 -844 
L 550 -844 
L 550 4863 
z
" transform="scale(0.015625)"/>
       <path id="DejaVuSans-6d" d="M 3328 2828 
Q 3544 3216 3844 3400 
Q 4144 3584 4550 3584 
Q 5097 3584 5394 3201 
Q 5691 2819 5691 2113 
L 5691 0 
L 5113 0 
L 5113 2094 
Q 5113 2597 4934 2840 
Q 4756 3084 4391 3084 
Q 3944 3084 3684 2787 
Q 3425 2491 3425 1978 
L 3425 0 
L 2847 0 
L 2847 2094 
Q 2847 2600 2669 2842 
Q 2491 3084 2119 3084 
Q 1678 3084 1418 2786 
Q 1159 2488 1159 1978 
L 1159 0 
L 581 0 
L 581 3500 
L 1159 3500 
L 1159 2956 
Q 1356 3278 1631 3431 
Q 1906 3584 2284 3584 
Q 2666 3584 2933 3390 
Q 3200 3197 3328 2828 
z
" transform="scale(0.015625)"/>
       <path id="DejaVuSans-6e" d="M 3513 2113 
L 3513 0 
L 2938 0 
L 2938 2094 
Q 2938 2591 2744 2837 
Q 2550 3084 2163 3084 
Q 1697 3084 1428 2787 
Q 1159 2491 1159 1978 
L 1159 0 
L 581 0 
L 581 3500 
L 1159 3500 
L 1159 2956 
Q 1366 3272 1645 3428 
Q 1925 3584 2291 3584 
Q 2894 3584 3203 3211 
Q 3513 2838 3513 2113 
z
" transform="scale(0.015625)"/>
       <path id="DejaVuSans-5d" d="M 1947 4863 
L 1947 -844 
L 622 -844 
L 622 -397 
L 1369 -397 
L 1369 4416 
L 622 4416 
L 622 4863 
L 1947 4863 
z
" transform="scale(0.015625)"/>
      </defs>
      <use xlink:href="#DejaVuSans-5a"/>
      <use xlink:href="#DejaVuSans-65" transform="translate(68.505859 0)"/>
      <use xlink:href="#DejaVuSans-69" transform="translate(130.029297 0)"/>
      <use xlink:href="#DejaVuSans-74" transform="translate(157.8125 0)"/>
      <use xlink:href="#DejaVuSans-20" transform="translate(197.021484 0)"/>
      <use xlink:href="#DejaVuSans-5b" transform="translate(228.808594 0)"/>
      <use xlink:href="#DejaVuSans-6d" transform="translate(267.822266 0)"/>
      <use xlink:href="#DejaVuSans-69" transform="translate(365.234375 0)"/>
      <use xlink:href="#DejaVuSans-6e" transform="translate(393.017578 0)"/>
      <use xlink:href="#DejaVuSans-5d" transform="translate(456.396484 0)"/>
     </g>
    </g>
   </g>
   <g id="matplotlib.axis_2">
    <g id="ytick_1">
     <g id="line2d_19">
      <path d="M 136.99 361.614143 
L 1605.79 361.614143 
" clip-path="url(#pd906a470c7)" style="fill: none; stroke: #b0b0b0; stroke-opacity: 0.3; stroke-width: 0.8; stroke-linecap: square"/>
     </g>
     <g id="line2d_20">
      <defs>
       <path id="m00836be53e" d="M 0 0 
L -3.5 0 
" style="stroke: #000000; stroke-width: 0.8"/>
      </defs>
      <g>
       <use xlink:href="#m00836be53e" x="136.99" y="361.614143" style="stroke: #000000; stroke-width: 0.8"/>
      </g>
     </g>
     <g id="text_11">
      <!-- 1.045 -->
      <g transform="translate(44.105625 373.011799) scale(0.3 -0.3)">
       <defs>
        <path id="DejaVuSans-2e" d="M 684 794 
L 1344 794 
L 1344 0 
L 684 0 
L 684 794 
z
" transform="scale(0.015625)"/>
       </defs>
       <use xlink:href="#DejaVuSans-31"/>
       <use xlink:href="#DejaVuSans-2e" transform="translate(63.623047 0)"/>
       <use xlink:href="#DejaVuSans-30" transform="translate(95.410156 0)"/>
       <use xlink:href="#DejaVuSans-34" transform="translate(159.033203 0)"/>
       <use xlink:href="#DejaVuSans-35" transform="translate(222.65625 0)"/>
      </g>
     </g>
    </g>
    <g id="ytick_2">
     <g id="line2d_21">
      <path d="M 136.99 294.237716 
L 1605.79 294.237716 
" clip-path="url(#pd906a470c7)" style="fill: none; stroke: #b0b0b0; stroke-opacity: 0.3; stroke-width: 0.8; stroke-linecap: square"/>
     </g>
     <g id="line2d_22">
      <g>
       <use xlink:href="#m00836be53e" x="136.99" y="294.237716" style="stroke: #000000; stroke-width: 0.8"/>
      </g>
     </g>
     <g id="text_12">
      <!-- 1.050 -->
      <g transform="translate(44.105625 305.635372) scale(0.3 -0.3)">
       <use xlink:href="#DejaVuSans-31"/>
       <use xlink:href="#DejaVuSans-2e" transform="translate(63.623047 0)"/>
       <use xlink:href="#DejaVuSans-30" transform="translate(95.410156 0)"/>
       <use xlink:href="#DejaVuSans-35" transform="translate(159.033203 0)"/>
       <use xlink:href="#DejaVuSans-30" transform="translate(222.65625 0)"/>
      </g>
     </g>
    </g>
    <g id="ytick_3">
     <g id="line2d_23">
      <path d="M 136.99 226.861288 
L 1605.79 226.861288 
" clip-path="url(#pd906a470c7)" style="fill: none; stroke: #b0b0b0; stroke-opacity: 0.3; stroke-width: 0.8; stroke-linecap: square"/>
     </g>
     <g id="line2d_24">
      <g>
       <use xlink:href="#m00836be53e" x="136.99" y="226.861288" style="stroke: #000000; stroke-width: 0.8"/>
      </g>
     </g>
     <g id="text_13">
      <!-- 1.055 -->
      <g transform="translate(44.105625 238.258944) scale(0.3 -0.3)">
       <use xlink:href="#DejaVuSans-31"/>
       <use xlink:href="#DejaVuSans-2e" transform="translate(63.623047 0)"/>
       <use xlink:href="#DejaVuSans-30" transform="translate(95.410156 0)"/>
       <use xlink:href="#DejaVuSans-35" transform="translate(159.033203 0)"/>
       <use xlink:href="#DejaVuSans-35" transform="translate(222.65625 0)"/>
      </g>
     </g>
    </g>
    <g id="ytick_4">
     <g id="line2d_25">
      <path d="M 136.99 159.48486 
L 1605.79 159.48486 
" clip-path="url(#pd906a470c7)" style="fill: none; stroke: #b0b0b0; stroke-opacity: 0.3; stroke-width: 0.8; stroke-linecap: square"/>
     </g>
     <g id="line2d_26">
      <g>
       <use xlink:href="#m00836be53e" x="136.99" y="159.48486" style="stroke: #000000; stroke-width: 0.8"/>
      </g>
     </g>
     <g id="text_14">
      <!-- 1.060 -->
      <g transform="translate(44.105625 170.882517) scale(0.3 -0.3)">
       <use xlink:href="#DejaVuSans-31"/>
       <use xlink:href="#DejaVuSans-2e" transform="translate(63.623047 0)"/>
       <use xlink:href="#DejaVuSans-30" transform="translate(95.410156 0)"/>
       <use xlink:href="#DejaVuSans-36" transform="translate(159.033203 0)"/>
       <use xlink:href="#DejaVuSans-30" transform="translate(222.65625 0)"/>
      </g>
     </g>
    </g>
    <g id="ytick_5">
     <g id="line2d_27">
      <path d="M 136.99 92.108433 
L 1605.79 92.108433 
" clip-path="url(#pd906a470c7)" style="fill: none; stroke: #b0b0b0; stroke-opacity: 0.3; stroke-width: 0.8; stroke-linecap: square"/>
     </g>
     <g id="line2d_28">
      <g>
       <use xlink:href="#m00836be53e" x="136.99" y="92.108433" style="stroke: #000000; stroke-width: 0.8"/>
      </g>
     </g>
     <g id="text_15">
      <!-- 1.065 -->
      <g transform="translate(44.105625 103.506089) scale(0.3 -0.3)">
       <use xlink:href="#DejaVuSans-31"/>
       <use xlink:href="#DejaVuSans-2e" transform="translate(63.623047 0)"/>
       <use xlink:href="#DejaVuSans-30" transform="translate(95.410156 0)"/>
       <use xlink:href="#DejaVuSans-36" transform="translate(159.033203 0)"/>
       <use xlink:href="#DejaVuSans-35" transform="translate(222.65625 0)"/>
      </g>
     </g>
    </g>
    <g id="text_16">
     <!-- Spannung [p.u.] -->
     <g transform="translate(33.034688 346.59125) rotate(-90) scale(0.34 -0.34)">
      <defs>
       <path id="DejaVuSans-53" d="M 3425 4513 
L 3425 3897 
Q 3066 4069 2747 4153 
Q 2428 4238 2131 4238 
Q 1616 4238 1336 4038 
Q 1056 3838 1056 3469 
Q 1056 3159 1242 3001 
Q 1428 2844 1947 2747 
L 2328 2669 
Q 3034 2534 3370 2195 
Q 3706 1856 3706 1288 
Q 3706 609 3251 259 
Q 2797 -91 1919 -91 
Q 1588 -91 1214 -16 
Q 841 59 441 206 
L 441 856 
Q 825 641 1194 531 
Q 1563 422 1919 422 
Q 2459 422 2753 634 
Q 3047 847 3047 1241 
Q 3047 1584 2836 1778 
Q 2625 1972 2144 2069 
L 1759 2144 
Q 1053 2284 737 2584 
Q 422 2884 422 3419 
Q 422 4038 858 4394 
Q 1294 4750 2059 4750 
Q 2388 4750 2728 4690 
Q 3069 4631 3425 4513 
z
" transform="scale(0.015625)"/>
       <path id="DejaVuSans-70" d="M 1159 525 
L 1159 -1331 
L 581 -1331 
L 581 3500 
L 1159 3500 
L 1159 2969 
Q 1341 3281 1617 3432 
Q 1894 3584 2278 3584 
Q 2916 3584 3314 3078 
Q 3713 2572 3713 1747 
Q 3713 922 3314 415 
Q 2916 -91 2278 -91 
Q 1894 -91 1617 61 
Q 1341 213 1159 525 
z
M 3116 1747 
Q 3116 2381 2855 2742 
Q 2594 3103 2138 3103 
Q 1681 3103 1420 2742 
Q 1159 2381 1159 1747 
Q 1159 1113 1420 752 
Q 1681 391 2138 391 
Q 2594 391 2855 752 
Q 3116 1113 3116 1747 
z
" transform="scale(0.015625)"/>
       <path id="DejaVuSans-61" d="M 2194 1759 
Q 1497 1759 1228 1600 
Q 959 1441 959 1056 
Q 959 750 1161 570 
Q 1363 391 1709 391 
Q 2188 391 2477 730 
Q 2766 1069 2766 1631 
L 2766 1759 
L 2194 1759 
z
M 3341 1997 
L 3341 0 
L 2766 0 
L 2766 531 
Q 2569 213 2275 61 
Q 1981 -91 1556 -91 
Q 1019 -91 701 211 
Q 384 513 384 1019 
Q 384 1609 779 1909 
Q 1175 2209 1959 2209 
L 2766 2209 
L 2766 2266 
Q 2766 2663 2505 2880 
Q 2244 3097 1772 3097 
Q 1472 3097 1187 3025 
Q 903 2953 641 2809 
L 641 3341 
Q 956 3463 1253 3523 
Q 1550 3584 1831 3584 
Q 2591 3584 2966 3190 
Q 3341 2797 3341 1997 
z
" transform="scale(0.015625)"/>
       <path id="DejaVuSans-75" d="M 544 1381 
L 544 3500 
L 1119 3500 
L 1119 1403 
Q 1119 906 1312 657 
Q 1506 409 1894 409 
Q 2359 409 2629 706 
Q 2900 1003 2900 1516 
L 2900 3500 
L 3475 3500 
L 3475 0 
L 2900 0 
L 2900 538 
Q 2691 219 2414 64 
Q 2138 -91 1772 -91 
Q 1169 -91 856 284 
Q 544 659 544 1381 
z
M 1991 3584 
L 1991 3584 
z
" transform="scale(0.015625)"/>
       <path id="DejaVuSans-67" d="M 2906 1791 
Q 2906 2416 2648 2759 
Q 2391 3103 1925 3103 
Q 1463 3103 1205 2759 
Q 947 2416 947 1791 
Q 947 1169 1205 825 
Q 1463 481 1925 481 
Q 2391 481 2648 825 
Q 2906 1169 2906 1791 
z
M 3481 434 
Q 3481 -459 3084 -895 
Q 2688 -1331 1869 -1331 
Q 1566 -1331 1297 -1286 
Q 1028 -1241 775 -1147 
L 775 -588 
Q 1028 -725 1275 -790 
Q 1522 -856 1778 -856 
Q 2344 -856 2625 -561 
Q 2906 -266 2906 331 
L 2906 616 
Q 2728 306 2450 153 
Q 2172 0 1784 0 
Q 1141 0 747 490 
Q 353 981 353 1791 
Q 353 2603 747 3093 
Q 1141 3584 1784 3584 
Q 2172 3584 2450 3431 
Q 2728 3278 2906 2969 
L 2906 3500 
L 3481 3500 
L 3481 434 
z
" transform="scale(0.015625)"/>
      </defs>
      <use xlink:href="#DejaVuSans-53"/>
      <use xlink:href="#DejaVuSans-70" transform="translate(63.476562 0)"/>
      <use xlink:href="#DejaVuSans-61" transform="translate(126.953125 0)"/>
      <use xlink:href="#DejaVuSans-6e" transform="translate(188.232422 0)"/>
      <use xlink:href="#DejaVuSans-6e" transform="translate(251.611328 0)"/>
      <use xlink:href="#DejaVuSans-75" transform="translate(314.990234 0)"/>
      <use xlink:href="#DejaVuSans-6e" transform="translate(378.369141 0)"/>
      <use xlink:href="#DejaVuSans-67" transform="translate(441.748047 0)"/>
      <use xlink:href="#DejaVuSans-20" transform="translate(505.224609 0)"/>
      <use xlink:href="#DejaVuSans-5b" transform="translate(537.011719 0)"/>
      <use xlink:href="#DejaVuSans-70" transform="translate(576.025391 0)"/>
      <use xlink:href="#DejaVuSans-2e" transform="translate(639.501953 0)"/>
      <use xlink:href="#DejaVuSans-75" transform="translate(671.289062 0)"/>
      <use xlink:href="#DejaVuSans-2e" transform="translate(734.667969 0)"/>
      <use xlink:href="#DejaVuSans-5d" transform="translate(766.455078 0)"/>
     </g>
    </g>
   </g>
   <g id="line2d_29">
    <path d="M 136.99 86.483748 
L 153.493371 86.682205 
L 169.996742 100.485724 
L 186.500112 100.685495 
L 203.003483 100.885917 
L 219.506854 113.779337 
L 236.010225 113.981083 
L 252.513596 114.183483 
L 269.016966 126.222058 
L 285.520337 126.425791 
L 302.023708 126.63018 
L 318.527079 179.544522 
L 335.030449 179.748993 
L 351.53382 179.954126 
L 368.037191 185.906789 
L 384.540562 185.816698 
L 401.043933 185.727039 
L 417.547303 191.097973 
L 434.050674 191.009186 
L 450.554045 190.920833 
L 467.057416 196.036039 
L 483.560787 195.948559 
L 500.064157 195.861512 
L 516.567528 243.711707 
L 533.070899 243.62659 
L 549.57427 243.541908 
L 566.07764 245.943551 
L 582.581011 245.859747 
L 599.084382 245.776381 
L 615.587753 96.959615 
L 632.091124 96.933478 
L 648.594494 96.907363 
L 665.097865 106.761624 
L 681.601236 106.735539 
L 698.104607 106.709476 
L 714.607978 115.948592 
L 731.111348 115.92256 
L 747.614719 115.89655 
L 764.11809 124.556676 
L 780.621461 124.530698 
L 797.124831 124.504742 
L 813.628202 125.937601 
L 830.131573 125.911686 
L 846.634944 125.885792 
L 863.138315 125.85992 
L 879.641685 125.97943 
L 896.145056 126.099261 
L 912.648427 126.219412 
L 929.151798 126.339885 
L 945.655169 126.460679 
L 962.158539 126.581793 
L 978.66191 126.703229 
L 995.165281 126.824986 
L 1011.668652 126.947064 
L 1028.172022 127.069463 
L 1044.675393 127.192183 
L 1061.178764 127.315224 
L 1077.682135 127.438587 
L 1094.185506 127.562271 
L 1110.688876 127.686276 
L 1127.192247 127.632733 
L 1143.695618 127.579751 
L 1160.198989 127.527329 
L 1176.70236 127.475466 
L 1193.20573 127.424164 
L 1209.709101 127.37342 
L 1226.212472 127.323237 
L 1242.715843 127.273612 
L 1259.219213 127.224546 
L 1275.722584 127.17604 
L 1292.225955 127.128091 
L 1308.729326 127.080702 
L 1325.232697 127.033871 
L 1341.736067 126.987597 
L 1358.239438 126.941882 
L 1374.742809 127.167598 
L 1391.24618 127.39344 
L 1407.749551 127.61941 
L 1424.252921 127.845506 
L 1440.756292 128.071729 
L 1457.259663 128.29808 
L 1473.763034 128.524557 
L 1490.266404 128.751162 
L 1506.769775 128.977894 
L 1523.273146 129.204753 
L 1539.776517 129.43174 
L 1556.279888 129.658853 
L 1572.783258 129.886094 
L 1589.286629 130.113463 
L 1605.79 130.340959 
" clip-path="url(#pd906a470c7)" style="fill: none; stroke: #00689d; stroke-width: 3; stroke-linecap: square"/>
   </g>
   <g id="line2d_30">
    <path d="M 136.99 100.814682 
L 153.493371 109.299834 
L 169.996742 128.47516 
L 186.500112 134.466317 
L 203.003483 140.043751 
L 219.506854 157.831548 
L 236.010225 172.181311 
L 252.513596 176.78864 
L 269.016966 191.293663 
L 285.520337 195.659453 
L 302.023708 208.280915 
L 318.527079 252.008353 
L 335.030449 255.109747 
L 351.53382 257.569504 
L 368.037191 263.500089 
L 384.540562 261.999657 
L 401.043933 263.329683 
L 417.547303 266.591914 
L 434.050674 267.173627 
L 450.554045 267.369769 
L 467.057416 269.531535 
L 483.560787 269.673186 
L 500.064157 269.715751 
L 516.567528 271.514858 
L 533.070899 271.471339 
L 549.57427 271.375503 
L 566.07764 272.929503 
L 582.581011 272.763015 
L 599.084382 272.576815 
L 615.587753 163.632892 
L 632.091124 169.392526 
L 648.594494 174.351363 
L 665.097865 185.797303 
L 681.601236 190.745817 
L 698.104607 194.815283 
L 714.607978 205.139893 
L 731.111348 208.657915 
L 747.614719 211.45721 
L 764.11809 219.259034 
L 780.621461 222.603149 
L 797.124831 225.340686 
L 813.628202 233.110874 
L 830.131573 232.719109 
L 846.634944 235.076906 
L 863.138315 239.864092 
L 879.641685 241.858929 
L 896.145056 243.430826 
L 912.648427 249.043786 
L 929.151798 250.279202 
L 945.655169 251.165412 
L 962.158539 255.11586 
L 978.66191 256.836674 
L 995.165281 258.228398 
L 1011.668652 261.066856 
L 1028.172022 262.173894 
L 1044.675393 263.054623 
L 1061.178764 265.082605 
L 1077.682135 265.743213 
L 1094.185506 266.263374 
L 1110.688876 267.717431 
L 1127.192247 267.682984 
L 1143.695618 267.605371 
L 1160.198989 268.420728 
L 1176.70236 268.285975 
L 1193.20573 268.139507 
L 1209.709101 268.858542 
L 1226.212472 268.688211 
L 1242.715843 268.52302 
L 1259.219213 269.20037 
L 1275.722584 269.029353 
L 1292.225955 268.870955 
L 1308.729326 269.531875 
L 1325.232697 269.376445 
L 1341.736067 269.235574 
L 1358.239438 269.888224 
L 1374.742809 270.072183 
L 1391.24618 270.244665 
L 1407.749551 271.061973 
L 1424.252921 271.112869 
L 1440.756292 271.174164 
L 1457.259663 271.87611 
L 1473.763034 271.915197 
L 1490.266404 271.966105 
L 1506.769775 272.584414 
L 1523.273146 272.594101 
L 1539.776517 272.618325 
L 1556.279888 273.166355 
L 1572.783258 273.151815 
L 1589.286629 273.154593 
L 1605.79 273.645089 
" clip-path="url(#pd906a470c7)" style="fill: none; stroke: #b1bd00; stroke-width: 3; stroke-linecap: square"/>
   </g>
   <g id="line2d_31">
    <path d="M 136.99 163.633254 
L 153.493371 163.764174 
L 169.996742 172.887494 
L 186.500112 173.019296 
L 203.003483 173.151575 
L 219.506854 181.669691 
L 236.010225 181.802863 
L 252.513596 181.936514 
L 269.016966 189.887068 
L 285.520337 190.021622 
L 302.023708 190.156657 
L 318.527079 271.540978 
L 335.030449 271.675085 
L 351.53382 271.809674 
L 368.037191 273.806991 
L 384.540562 273.732728 
L 401.043933 273.658781 
L 417.547303 275.354565 
L 434.050674 275.28127 
L 450.554045 275.208292 
L 467.057416 276.821823 
L 483.560787 276.749497 
L 500.064157 276.677488 
L 516.567528 354.399369 
L 533.070899 354.32925 
L 549.57427 354.259448 
L 566.07764 354.988835 
L 582.581011 354.919677 
L 599.084382 354.850836 
L 615.587753 133.994278 
L 632.091124 133.978383 
L 648.594494 133.962508 
L 665.097865 149.112531 
L 681.601236 149.096681 
L 698.104607 149.08085 
L 714.607978 163.286407 
L 731.111348 163.270603 
L 747.614719 163.254818 
L 764.11809 176.571444 
L 780.621461 176.555686 
L 797.124831 176.539948 
L 813.628202 178.763328 
L 830.131573 178.747627 
L 846.634944 178.731947 
L 863.138315 178.716286 
L 879.641685 178.834491 
L 896.145056 178.953004 
L 912.648427 179.071825 
L 929.151798 179.190953 
L 945.655169 179.31039 
L 962.158539 179.430134 
L 978.66191 179.550186 
L 995.165281 179.670546 
L 1011.668652 179.791215 
L 1028.172022 179.912191 
L 1044.675393 180.033475 
L 1061.178764 180.155067 
L 1077.682135 180.276967 
L 1094.185506 180.399176 
L 1110.688876 180.521692 
L 1127.192247 180.477345 
L 1143.695618 180.433514 
L 1160.198989 180.390199 
L 1176.70236 180.347399 
L 1193.20573 180.305115 
L 1209.709101 180.263346 
L 1226.212472 180.222093 
L 1242.715843 180.181354 
L 1259.219213 180.14113 
L 1275.722584 180.101421 
L 1292.225955 180.062227 
L 1308.729326 180.023546 
L 1325.232697 179.985381 
L 1341.736067 179.947729 
L 1358.239438 179.910591 
L 1374.742809 180.126424 
L 1391.24618 180.342386 
L 1407.749551 180.558477 
L 1424.252921 180.774698 
L 1440.756292 180.991048 
L 1457.259663 181.207527 
L 1473.763034 181.424136 
L 1490.266404 181.640875 
L 1506.769775 181.857743 
L 1523.273146 182.07474 
L 1539.776517 182.291867 
L 1556.279888 182.509124 
L 1572.783258 182.72651 
L 1589.286629 182.944027 
L 1605.79 183.161673 
" clip-path="url(#pd906a470c7)" style="fill: none; stroke-dasharray: 5.55,2.4; stroke-dashoffset: 0; stroke: #00689d; stroke-opacity: 0.7; stroke-width: 1.5"/>
   </g>
   <g id="line2d_32">
    <path d="M 136.99 64.33429 
L 153.493371 64.600279 
L 169.996742 79.806999 
L 186.500112 80.074754 
L 203.003483 80.343363 
L 219.506854 94.55226 
L 236.010225 94.822644 
L 252.513596 95.093886 
L 269.016966 108.365307 
L 285.520337 108.638333 
L 302.023708 108.91222 
L 318.527079 153.517375 
L 335.030449 153.791886 
L 351.53382 154.067268 
L 368.037191 161.220214 
L 384.540562 161.091425 
L 401.043933 160.963198 
L 417.547303 167.369086 
L 434.050674 167.241977 
L 450.554045 167.115431 
L 467.057416 173.21537 
L 483.560787 173.089944 
L 500.064157 172.965082 
L 516.567528 212.017456 
L 533.070899 211.894797 
L 549.57427 211.772707 
L 566.07764 214.627714 
L 582.581011 214.506761 
L 599.084382 214.386377 
L 615.587753 73.010715 
L 632.091124 72.97748 
L 648.594494 72.94427 
L 665.097865 83.667563 
L 681.601236 83.634381 
L 698.104607 83.601223 
L 714.607978 93.654821 
L 731.111348 93.621693 
L 747.614719 93.588589 
L 764.11809 101.533059 
L 780.621461 101.483226 
L 797.124831 101.43342 
L 813.628202 102.328633 
L 830.131573 102.278875 
L 846.634944 102.229143 
L 863.138315 102.179436 
L 879.641685 102.310129 
L 896.145056 102.4412 
L 912.648427 102.572648 
L 929.151798 102.704472 
L 945.655169 102.836674 
L 962.158539 102.969254 
L 978.66191 103.10221 
L 995.165281 103.235544 
L 1011.668652 103.369255 
L 1028.172022 103.503343 
L 1044.675393 103.637809 
L 1061.178764 103.772652 
L 1077.682135 103.907872 
L 1094.185506 104.04347 
L 1110.688876 104.179446 
L 1127.192247 104.014705 
L 1143.695618 103.850661 
L 1160.198989 103.687313 
L 1176.70236 103.524661 
L 1193.20573 103.362704 
L 1209.709101 103.201442 
L 1226.212472 103.040876 
L 1242.715843 102.881004 
L 1259.219213 102.721827 
L 1275.722584 102.563345 
L 1292.225955 102.405556 
L 1308.729326 102.248462 
L 1325.232697 102.092061 
L 1341.736067 101.936354 
L 1358.239438 101.781339 
L 1374.742809 101.956777 
L 1391.24618 102.132344 
L 1407.749551 102.308043 
L 1424.252921 102.483872 
L 1440.756292 102.659831 
L 1457.259663 102.835922 
L 1473.763034 103.012143 
L 1490.266404 103.188495 
L 1506.769775 103.364978 
L 1523.273146 103.541592 
L 1539.776517 103.718336 
L 1556.279888 103.895212 
L 1572.783258 104.072219 
L 1589.286629 104.249356 
L 1605.79 104.426625 
" clip-path="url(#pd906a470c7)" style="fill: none; stroke-dasharray: 5.55,2.4; stroke-dashoffset: 0; stroke: #00689d; stroke-opacity: 0.7; stroke-width: 1.5"/>
   </g>
   <g id="line2d_33">
    <path d="M 136.99 168.982936 
L 153.493371 175.320114 
L 169.996742 188.595903 
L 186.500112 192.818253 
L 203.003483 196.199324 
L 219.506854 206.952925 
L 236.010225 207.376742 
L 252.513596 210.236952 
L 269.016966 219.067076 
L 285.520337 221.721143 
L 302.023708 220.94961 
L 318.527079 301.99854 
L 335.030449 303.875967 
L 351.53382 305.35932 
L 368.037191 306.91011 
L 384.540562 306.319879 
L 401.043933 307.344563 
L 417.547303 308.883801 
L 434.050674 309.368186 
L 450.554045 309.547248 
L 467.057416 310.344412 
L 483.560787 310.468723 
L 500.064157 310.492155 
L 516.567528 311.010445 
L 533.070899 310.947082 
L 549.57427 310.830433 
L 566.07764 311.160642 
L 582.581011 310.97253 
L 599.084382 310.764295 
L 615.587753 225.120614 
L 632.091124 231.288388 
L 648.594494 236.597666 
L 665.097865 251.115404 
L 681.601236 256.410411 
L 698.104607 260.763506 
L 714.607978 262.73526 
L 731.111348 266.510819 
L 747.614719 269.519644 
L 764.11809 279.394623 
L 780.621461 282.953275 
L 797.124831 285.863564 
L 813.628202 284.077854 
L 830.131573 299.807412 
L 846.634944 302.311634 
L 863.138315 308.395524 
L 879.641685 310.500961 
L 896.145056 312.152725 
L 912.648427 307.176871 
L 929.151798 308.501409 
L 945.655169 309.455665 
L 962.158539 314.412371 
L 978.66191 316.230086 
L 995.165281 317.696753 
L 1011.668652 321.303069 
L 1028.172022 322.460922 
L 1044.675393 323.377241 
L 1061.178764 326.005729 
L 1077.682135 326.684116 
L 1094.185506 327.212573 
L 1110.688876 329.148734 
L 1127.192247 329.052529 
L 1143.695618 328.903976 
L 1160.198989 330.086182 
L 1176.70236 329.868155 
L 1193.20573 329.636106 
L 1209.709101 330.692386 
L 1226.212472 330.432832 
L 1242.715843 330.179901 
L 1259.219213 331.179774 
L 1275.722584 330.921954 
L 1292.225955 330.679991 
L 1308.729326 331.655171 
L 1325.232697 331.419277 
L 1341.736067 331.201706 
L 1358.239438 332.162085 
L 1374.742809 332.316582 
L 1391.24618 332.458125 
L 1407.749551 333.597979 
L 1424.252921 333.62186 
L 1440.756292 333.659821 
L 1457.259663 334.6521 
L 1473.763034 334.660345 
L 1490.266404 334.684582 
L 1506.769775 335.557084 
L 1523.273146 335.525568 
L 1539.776517 335.513682 
L 1556.279888 336.285461 
L 1572.783258 336.221081 
L 1589.286629 336.180068 
L 1605.79 336.869191 
" clip-path="url(#pd906a470c7)" style="fill: none; stroke-dasharray: 5.55,2.4; stroke-dashoffset: 0; stroke: #b1bd00; stroke-opacity: 0.7; stroke-width: 1.5"/>
   </g>
   <g id="line2d_34">
    <path d="M 136.99 87.784342 
L 153.493371 97.103669 
L 169.996742 116.588292 
L 186.500112 122.294007 
L 203.003483 126.88591 
L 219.506854 142.729587 
L 236.010225 150.190791 
L 252.513596 154.010326 
L 269.016966 166.937659 
L 285.520337 170.53853 
L 302.023708 175.230417 
L 318.527079 226.218847 
L 335.030449 228.780805 
L 351.53382 230.814769 
L 368.037191 232.526329 
L 384.540562 234.217785 
L 401.043933 235.310654 
L 417.547303 238.097996 
L 434.050674 238.584229 
L 450.554045 238.760482 
L 467.057416 240.652633 
L 483.560787 240.782599 
L 500.064157 240.828078 
L 516.567528 242.408625 
L 533.070899 242.380891 
L 549.57427 242.308552 
L 566.07764 243.678486 
L 582.581011 243.546022 
L 599.084382 243.396757 
L 615.587753 144.801454 
L 632.091124 150.30041 
L 648.594494 155.034239 
L 665.097865 166.634514 
L 681.601236 171.357658 
L 698.104607 175.241076 
L 714.607978 181.551111 
L 731.111348 184.909606 
L 747.614719 187.582624 
L 764.11809 195.482512 
L 780.621461 198.667625 
L 797.124831 201.273935 
L 813.628202 204.810638 
L 830.131573 204.410211 
L 846.634944 206.652483 
L 863.138315 211.5075 
L 879.641685 213.410339 
L 896.145056 214.909596 
L 912.648427 216.118717 
L 929.151798 217.304405 
L 945.655169 218.158012 
L 962.158539 222.15311 
L 978.66191 223.79534 
L 995.165281 225.124124 
L 1011.668652 228.010943 
L 1028.172022 229.067379 
L 1044.675393 229.908239 
L 1061.178764 231.989198 
L 1077.682135 232.619675 
L 1094.185506 233.116361 
L 1110.688876 234.627095 
L 1127.192247 234.599644 
L 1143.695618 234.530084 
L 1160.198989 235.425672 
L 1176.70236 235.300345 
L 1193.20573 235.163649 
L 1209.709101 235.961624 
L 1226.212472 235.801981 
L 1242.715843 235.647465 
L 1259.219213 236.402224 
L 1275.722584 236.242521 
L 1292.225955 236.09528 
L 1308.729326 236.831796 
L 1325.232697 236.688013 
L 1341.736067 236.558608 
L 1358.239438 237.284812 
L 1374.742809 237.490752 
L 1391.24618 237.685699 
L 1407.749551 238.588531 
L 1424.252921 238.671242 
L 1440.756292 238.764433 
L 1457.259663 239.55044 
L 1473.763034 239.621351 
L 1490.266404 239.70417 
L 1506.769775 240.402371 
L 1523.273146 240.443722 
L 1539.776517 240.499709 
L 1556.279888 241.124127 
L 1572.783258 241.141108 
L 1589.286629 241.175519 
L 1605.79 241.739465 
" clip-path="url(#pd906a470c7)" style="fill: none; stroke-dasharray: 5.55,2.4; stroke-dashoffset: 0; stroke: #b1bd00; stroke-opacity: 0.7; stroke-width: 1.5"/>
   </g>
   <g id="line2d_35">
    <path d="M 136.99 294.237716 
L 1605.79 294.237716 
" clip-path="url(#pd906a470c7)" style="fill: none; stroke-dasharray: 2,3.3; stroke-dashoffset: 0; stroke: #cc4c03; stroke-width: 2"/>
   </g>
   <g id="line2d_36">
    <path d="M 615.587753 369.521563 
L 615.587753 49.801563 
" clip-path="url(#pd906a470c7)" style="fill: none; stroke-dasharray: 12.8,3.2,2,3.2; stroke-dashoffset: 0; stroke: #808080; stroke-opacity: 0.7; stroke-width: 2"/>
   </g>
   <g id="patch_3">
    <path d="M 136.99 369.521563 
L 136.99 49.801563 
" style="fill: none; stroke: #000000; stroke-width: 0.8; stroke-linejoin: miter; stroke-linecap: square"/>
   </g>
   <g id="patch_4">
    <path d="M 1605.79 369.521563 
L 1605.79 49.801563 
" style="fill: none; stroke: #000000; stroke-width: 0.8; stroke-linejoin: miter; stroke-linecap: square"/>
   </g>
   <g id="patch_5">
    <path d="M 136.99 369.521563 
L 1605.79 369.521563 
" style="fill: none; stroke: #000000; stroke-width: 0.8; stroke-linejoin: miter; stroke-linecap: square"/>
   </g>
   <g id="patch_6">
    <path d="M 136.99 49.801563 
L 1605.79 49.801563 
" style="fill: none; stroke: #000000; stroke-width: 0.8; stroke-linejoin: miter; stroke-linecap: square"/>
   </g>
   <g id="text_17">
    <!-- Generatorausfall -->
    <g style="fill: #808080" transform="translate(632.091124 78.991275) scale(0.3 -0.3)">
     <defs>
      <path id="DejaVuSans-47" d="M 3809 666 
L 3809 1919 
L 2778 1919 
L 2778 2438 
L 4434 2438 
L 4434 434 
Q 4069 175 3628 42 
Q 3188 -91 2688 -91 
Q 1594 -91 976 548 
Q 359 1188 359 2328 
Q 359 3472 976 4111 
Q 1594 4750 2688 4750 
Q 3144 4750 3555 4637 
Q 3966 4525 4313 4306 
L 4313 3634 
Q 3963 3931 3569 4081 
Q 3175 4231 2741 4231 
Q 1884 4231 1454 3753 
Q 1025 3275 1025 2328 
Q 1025 1384 1454 906 
Q 1884 428 2741 428 
Q 3075 428 3337 486 
Q 3600 544 3809 666 
z
" transform="scale(0.015625)"/>
      <path id="DejaVuSans-72" d="M 2631 2963 
Q 2534 3019 2420 3045 
Q 2306 3072 2169 3072 
Q 1681 3072 1420 2755 
Q 1159 2438 1159 1844 
L 1159 0 
L 581 0 
L 581 3500 
L 1159 3500 
L 1159 2956 
Q 1341 3275 1631 3429 
Q 1922 3584 2338 3584 
Q 2397 3584 2469 3576 
Q 2541 3569 2628 3553 
L 2631 2963 
z
" transform="scale(0.015625)"/>
      <path id="DejaVuSans-6f" d="M 1959 3097 
Q 1497 3097 1228 2736 
Q 959 2375 959 1747 
Q 959 1119 1226 758 
Q 1494 397 1959 397 
Q 2419 397 2687 759 
Q 2956 1122 2956 1747 
Q 2956 2369 2687 2733 
Q 2419 3097 1959 3097 
z
M 1959 3584 
Q 2709 3584 3137 3096 
Q 3566 2609 3566 1747 
Q 3566 888 3137 398 
Q 2709 -91 1959 -91 
Q 1206 -91 779 398 
Q 353 888 353 1747 
Q 353 2609 779 3096 
Q 1206 3584 1959 3584 
z
" transform="scale(0.015625)"/>
      <path id="DejaVuSans-73" d="M 2834 3397 
L 2834 2853 
Q 2591 2978 2328 3040 
Q 2066 3103 1784 3103 
Q 1356 3103 1142 2972 
Q 928 2841 928 2578 
Q 928 2378 1081 2264 
Q 1234 2150 1697 2047 
L 1894 2003 
Q 2506 1872 2764 1633 
Q 3022 1394 3022 966 
Q 3022 478 2636 193 
Q 2250 -91 1575 -91 
Q 1294 -91 989 -36 
Q 684 19 347 128 
L 347 722 
Q 666 556 975 473 
Q 1284 391 1588 391 
Q 1994 391 2212 530 
Q 2431 669 2431 922 
Q 2431 1156 2273 1281 
Q 2116 1406 1581 1522 
L 1381 1569 
Q 847 1681 609 1914 
Q 372 2147 372 2553 
Q 372 3047 722 3315 
Q 1072 3584 1716 3584 
Q 2034 3584 2315 3537 
Q 2597 3491 2834 3397 
z
" transform="scale(0.015625)"/>
      <path id="DejaVuSans-66" d="M 2375 4863 
L 2375 4384 
L 1825 4384 
Q 1516 4384 1395 4259 
Q 1275 4134 1275 3809 
L 1275 3500 
L 2222 3500 
L 2222 3053 
L 1275 3053 
L 1275 0 
L 697 0 
L 697 3053 
L 147 3053 
L 147 3500 
L 697 3500 
L 697 3744 
Q 697 4328 969 4595 
Q 1241 4863 1831 4863 
L 2375 4863 
z
" transform="scale(0.015625)"/>
      <path id="DejaVuSans-6c" d="M 603 4863 
L 1178 4863 
L 1178 0 
L 603 0 
L 603 4863 
z
" transform="scale(0.015625)"/>
     </defs>
     <use xlink:href="#DejaVuSans-47"/>
     <use xlink:href="#DejaVuSans-65" transform="translate(77.490234 0)"/>
     <use xlink:href="#DejaVuSans-6e" transform="translate(139.013672 0)"/>
     <use xlink:href="#DejaVuSans-65" transform="translate(202.392578 0)"/>
     <use xlink:href="#DejaVuSans-72" transform="translate(263.916016 0)"/>
     <use xlink:href="#DejaVuSans-61" transform="translate(305.029297 0)"/>
     <use xlink:href="#DejaVuSans-74" transform="translate(366.308594 0)"/>
     <use xlink:href="#DejaVuSans-6f" transform="translate(405.517578 0)"/>
     <use xlink:href="#DejaVuSans-72" transform="translate(466.699219 0)"/>
     <use xlink:href="#DejaVuSans-61" transform="translate(507.8125 0)"/>
     <use xlink:href="#DejaVuSans-75" transform="translate(569.091797 0)"/>
     <use xlink:href="#DejaVuSans-73" transform="translate(632.470703 0)"/>
     <use xlink:href="#DejaVuSans-66" transform="translate(684.570312 0)"/>
     <use xlink:href="#DejaVuSans-61" transform="translate(719.775391 0)"/>
     <use xlink:href="#DejaVuSans-6c" transform="translate(781.054688 0)"/>
     <use xlink:href="#DejaVuSans-6c" transform="translate(808.837891 0)"/>
    </g>
   </g>
   <g id="text_18">
    <!-- Spannungsband im Übertragungsnetz (380 kV) -->
    <g transform="translate(423.028594 41.89875) scale(0.38 -0.38)">
     <defs>
      <path id="DejaVuSans-62" d="M 3116 1747 
Q 3116 2381 2855 2742 
Q 2594 3103 2138 3103 
Q 1681 3103 1420 2742 
Q 1159 2381 1159 1747 
Q 1159 1113 1420 752 
Q 1681 391 2138 391 
Q 2594 391 2855 752 
Q 3116 1113 3116 1747 
z
M 1159 2969 
Q 1341 3281 1617 3432 
Q 1894 3584 2278 3584 
Q 2916 3584 3314 3078 
Q 3713 2572 3713 1747 
Q 3713 922 3314 415 
Q 2916 -91 2278 -91 
Q 1894 -91 1617 61 
Q 1341 213 1159 525 
L 1159 0 
L 581 0 
L 581 4863 
L 1159 4863 
L 1159 2969 
z
" transform="scale(0.015625)"/>
      <path id="DejaVuSans-64" d="M 2906 2969 
L 2906 4863 
L 3481 4863 
L 3481 0 
L 2906 0 
L 2906 525 
Q 2725 213 2448 61 
Q 2172 -91 1784 -91 
Q 1150 -91 751 415 
Q 353 922 353 1747 
Q 353 2572 751 3078 
Q 1150 3584 1784 3584 
Q 2172 3584 2448 3432 
Q 2725 3281 2906 2969 
z
M 947 1747 
Q 947 1113 1208 752 
Q 1469 391 1925 391 
Q 2381 391 2643 752 
Q 2906 1113 2906 1747 
Q 2906 2381 2643 2742 
Q 2381 3103 1925 3103 
Q 1469 3103 1208 2742 
Q 947 2381 947 1747 
z
" transform="scale(0.015625)"/>
      <path id="DejaVuSans-dc" d="M 556 4666 
L 1191 4666 
L 1191 1831 
Q 1191 1081 1462 751 
Q 1734 422 2344 422 
Q 2950 422 3222 751 
Q 3494 1081 3494 1831 
L 3494 4666 
L 4128 4666 
L 4128 1753 
Q 4128 841 3676 375 
Q 3225 -91 2344 -91 
Q 1459 -91 1007 375 
Q 556 841 556 1753 
L 556 4666 
z
M 2638 5844 
L 3272 5844 
L 3272 5210 
L 2638 5210 
L 2638 5844 
z
M 1416 5844 
L 2050 5844 
L 2050 5210 
L 1416 5210 
L 1416 5844 
z
" transform="scale(0.015625)"/>
      <path id="DejaVuSans-7a" d="M 353 3500 
L 3084 3500 
L 3084 2975 
L 922 459 
L 3084 459 
L 3084 0 
L 275 0 
L 275 525 
L 2438 3041 
L 353 3041 
L 353 3500 
z
" transform="scale(0.015625)"/>
      <path id="DejaVuSans-28" d="M 1984 4856 
Q 1566 4138 1362 3434 
Q 1159 2731 1159 2009 
Q 1159 1288 1364 580 
Q 1569 -128 1984 -844 
L 1484 -844 
Q 1016 -109 783 600 
Q 550 1309 550 2009 
Q 550 2706 781 3412 
Q 1013 4119 1484 4856 
L 1984 4856 
z
" transform="scale(0.015625)"/>
      <path id="DejaVuSans-6b" d="M 581 4863 
L 1159 4863 
L 1159 1991 
L 2875 3500 
L 3609 3500 
L 1753 1863 
L 3688 0 
L 2938 0 
L 1159 1709 
L 1159 0 
L 581 0 
L 581 4863 
z
" transform="scale(0.015625)"/>
      <path id="DejaVuSans-56" d="M 1831 0 
L 50 4666 
L 709 4666 
L 2188 738 
L 3669 4666 
L 4325 4666 
L 2547 0 
L 1831 0 
z
" transform="scale(0.015625)"/>
      <path id="DejaVuSans-29" d="M 513 4856 
L 1013 4856 
Q 1481 4119 1714 3412 
Q 1947 2706 1947 2009 
Q 1947 1309 1714 600 
Q 1481 -109 1013 -844 
L 513 -844 
Q 928 -128 1133 580 
Q 1338 1288 1338 2009 
Q 1338 2731 1133 3434 
Q 928 4138 513 4856 
z
" transform="scale(0.015625)"/>
     </defs>
     <use xlink:href="#DejaVuSans-53"/>
     <use xlink:href="#DejaVuSans-70" transform="translate(63.476562 0)"/>
     <use xlink:href="#DejaVuSans-61" transform="translate(126.953125 0)"/>
     <use xlink:href="#DejaVuSans-6e" transform="translate(188.232422 0)"/>
     <use xlink:href="#DejaVuSans-6e" transform="translate(251.611328 0)"/>
     <use xlink:href="#DejaVuSans-75" transform="translate(314.990234 0)"/>
     <use xlink:href="#DejaVuSans-6e" transform="translate(378.369141 0)"/>
     <use xlink:href="#DejaVuSans-67" transform="translate(441.748047 0)"/>
     <use xlink:href="#DejaVuSans-73" transform="translate(505.224609 0)"/>
     <use xlink:href="#DejaVuSans-62" transform="translate(557.324219 0)"/>
     <use xlink:href="#DejaVuSans-61" transform="translate(620.800781 0)"/>
     <use xlink:href="#DejaVuSans-6e" transform="translate(682.080078 0)"/>
     <use xlink:href="#DejaVuSans-64" transform="translate(745.458984 0)"/>
     <use xlink:href="#DejaVuSans-20" transform="translate(808.935547 0)"/>
     <use xlink:href="#DejaVuSans-69" transform="translate(840.722656 0)"/>
     <use xlink:href="#DejaVuSans-6d" transform="translate(868.505859 0)"/>
     <use xlink:href="#DejaVuSans-20" transform="translate(965.917969 0)"/>
     <use xlink:href="#DejaVuSans-dc" transform="translate(997.705078 0)"/>
     <use xlink:href="#DejaVuSans-62" transform="translate(1070.898438 0)"/>
     <use xlink:href="#DejaVuSans-65" transform="translate(1134.375 0)"/>
     <use xlink:href="#DejaVuSans-72" transform="translate(1195.898438 0)"/>
     <use xlink:href="#DejaVuSans-74" transform="translate(1237.011719 0)"/>
     <use xlink:href="#DejaVuSans-72" transform="translate(1276.220703 0)"/>
     <use xlink:href="#DejaVuSans-61" transform="translate(1317.333984 0)"/>
     <use xlink:href="#DejaVuSans-67" transform="translate(1378.613281 0)"/>
     <use xlink:href="#DejaVuSans-75" transform="translate(1442.089844 0)"/>
     <use xlink:href="#DejaVuSans-6e" transform="translate(1505.46875 0)"/>
     <use xlink:href="#DejaVuSans-67" transform="translate(1568.847656 0)"/>
     <use xlink:href="#DejaVuSans-73" transform="translate(1632.324219 0)"/>
     <use xlink:href="#DejaVuSans-6e" transform="translate(1684.423828 0)"/>
     <use xlink:href="#DejaVuSans-65" transform="translate(1747.802734 0)"/>
     <use xlink:href="#DejaVuSans-74" transform="translate(1809.326172 0)"/>
     <use xlink:href="#DejaVuSans-7a" transform="translate(1848.535156 0)"/>
     <use xlink:href="#DejaVuSans-20" transform="translate(1901.025391 0)"/>
     <use xlink:href="#DejaVuSans-28" transform="translate(1932.8125 0)"/>
     <use xlink:href="#DejaVuSans-33" transform="translate(1971.826172 0)"/>
     <use xlink:href="#DejaVuSans-38" transform="translate(2035.449219 0)"/>
     <use xlink:href="#DejaVuSans-30" transform="translate(2099.072266 0)"/>
     <use xlink:href="#DejaVuSans-20" transform="translate(2162.695312 0)"/>
     <use xlink:href="#DejaVuSans-6b" transform="translate(2194.482422 0)"/>
     <use xlink:href="#DejaVuSans-56" transform="translate(2252.392578 0)"/>
     <use xlink:href="#DejaVuSans-29" transform="translate(2320.800781 0)"/>
    </g>
   </g>
   <g id="legend_1">
    <g id="patch_7">
     <path d="M 152.99 359.921563 
L 1603.445 359.921563 
Q 1609.845 359.921563 1609.845 353.521563 
L 1609.845 316.151563 
Q 1609.845 309.751563 1603.445 309.751563 
L 152.99 309.751563 
Q 146.59 309.751563 146.59 316.151563 
L 146.59 353.521563 
Q 146.59 359.921563 152.99 359.921563 
z
" style="fill: #ffffff; opacity: 0.2; stroke: #cccccc; stroke-linejoin: miter"/>
    </g>
    <g id="line2d_37">
     <path d="M 156.19 332.466563 
L 173.79 332.466563 
L 191.39 332.466563 
" style="fill: none; stroke: #00689d; stroke-width: 3; stroke-linecap: square"/>
    </g>
    <g id="text_19">
     <!-- Ohne VN (Med.) -->
     <g transform="translate(204.19 343.666563) scale(0.32 -0.32)">
      <defs>
       <path id="DejaVuSans-4f" d="M 2522 4238 
Q 1834 4238 1429 3725 
Q 1025 3213 1025 2328 
Q 1025 1447 1429 934 
Q 1834 422 2522 422 
Q 3209 422 3611 934 
Q 4013 1447 4013 2328 
Q 4013 3213 3611 3725 
Q 3209 4238 2522 4238 
z
M 2522 4750 
Q 3503 4750 4090 4092 
Q 4678 3434 4678 2328 
Q 4678 1225 4090 567 
Q 3503 -91 2522 -91 
Q 1538 -91 948 565 
Q 359 1222 359 2328 
Q 359 3434 948 4092 
Q 1538 4750 2522 4750 
z
" transform="scale(0.015625)"/>
       <path id="DejaVuSans-68" d="M 3513 2113 
L 3513 0 
L 2938 0 
L 2938 2094 
Q 2938 2591 2744 2837 
Q 2550 3084 2163 3084 
Q 1697 3084 1428 2787 
Q 1159 2491 1159 1978 
L 1159 0 
L 581 0 
L 581 4863 
L 1159 4863 
L 1159 2956 
Q 1366 3272 1645 3428 
Q 1925 3584 2291 3584 
Q 2894 3584 3203 3211 
Q 3513 2838 3513 2113 
z
" transform="scale(0.015625)"/>
       <path id="DejaVuSans-4e" d="M 628 4666 
L 1478 4666 
L 3547 763 
L 3547 4666 
L 4159 4666 
L 4159 0 
L 3309 0 
L 1241 3903 
L 1241 0 
L 628 0 
L 628 4666 
z
" transform="scale(0.015625)"/>
       <path id="DejaVuSans-4d" d="M 628 4666 
L 1569 4666 
L 2759 1491 
L 3956 4666 
L 4897 4666 
L 4897 0 
L 4281 0 
L 4281 4097 
L 3078 897 
L 2444 897 
L 1241 4097 
L 1241 0 
L 628 0 
L 628 4666 
z
" transform="scale(0.015625)"/>
      </defs>
      <use xlink:href="#DejaVuSans-4f"/>
      <use xlink:href="#DejaVuSans-68" transform="translate(78.710938 0)"/>
      <use xlink:href="#DejaVuSans-6e" transform="translate(142.089844 0)"/>
      <use xlink:href="#DejaVuSans-65" transform="translate(205.46875 0)"/>
      <use xlink:href="#DejaVuSans-20" transform="translate(266.992188 0)"/>
      <use xlink:href="#DejaVuSans-56" transform="translate(298.779297 0)"/>
      <use xlink:href="#DejaVuSans-4e" transform="translate(367.1875 0)"/>
      <use xlink:href="#DejaVuSans-20" transform="translate(441.992188 0)"/>
      <use xlink:href="#DejaVuSans-28" transform="translate(473.779297 0)"/>
      <use xlink:href="#DejaVuSans-4d" transform="translate(512.792969 0)"/>
      <use xlink:href="#DejaVuSans-65" transform="translate(599.072266 0)"/>
      <use xlink:href="#DejaVuSans-64" transform="translate(660.595703 0)"/>
      <use xlink:href="#DejaVuSans-2e" transform="translate(724.072266 0)"/>
      <use xlink:href="#DejaVuSans-29" transform="translate(755.859375 0)"/>
     </g>
    </g>
    <g id="line2d_38">
     <path d="M 480.955 332.466563 
L 498.555 332.466563 
L 516.155 332.466563 
" style="fill: none; stroke: #b1bd00; stroke-width: 3; stroke-linecap: square"/>
    </g>
    <g id="text_20">
     <!-- Mit VN (Med.) -->
     <g transform="translate(528.955 343.666563) scale(0.32 -0.32)">
      <use xlink:href="#DejaVuSans-4d"/>
      <use xlink:href="#DejaVuSans-69" transform="translate(86.279297 0)"/>
      <use xlink:href="#DejaVuSans-74" transform="translate(114.0625 0)"/>
      <use xlink:href="#DejaVuSans-20" transform="translate(153.271484 0)"/>
      <use xlink:href="#DejaVuSans-56" transform="translate(185.058594 0)"/>
      <use xlink:href="#DejaVuSans-4e" transform="translate(253.466797 0)"/>
      <use xlink:href="#DejaVuSans-20" transform="translate(328.271484 0)"/>
      <use xlink:href="#DejaVuSans-28" transform="translate(360.058594 0)"/>
      <use xlink:href="#DejaVuSans-4d" transform="translate(399.072266 0)"/>
      <use xlink:href="#DejaVuSans-65" transform="translate(485.351562 0)"/>
      <use xlink:href="#DejaVuSans-64" transform="translate(546.875 0)"/>
      <use xlink:href="#DejaVuSans-2e" transform="translate(610.351562 0)"/>
      <use xlink:href="#DejaVuSans-29" transform="translate(642.138672 0)"/>
     </g>
    </g>
    <g id="line2d_39">
     <path d="M 769.325 332.466563 
L 786.925 332.466563 
L 804.525 332.466563 
" style="fill: none; stroke-dasharray: 5.55,2.4; stroke-dashoffset: 0; stroke: #00689d; stroke-opacity: 0.7; stroke-width: 1.5"/>
    </g>
    <g id="text_21">
     <!-- Ohne (Min./Max.) -->
     <g transform="translate(817.325 343.666563) scale(0.32 -0.32)">
      <defs>
       <path id="DejaVuSans-2f" d="M 1625 4666 
L 2156 4666 
L 531 -594 
L 0 -594 
L 1625 4666 
z
" transform="scale(0.015625)"/>
       <path id="DejaVuSans-78" d="M 3513 3500 
L 2247 1797 
L 3578 0 
L 2900 0 
L 1881 1375 
L 863 0 
L 184 0 
L 1544 1831 
L 300 3500 
L 978 3500 
L 1906 2253 
L 2834 3500 
L 3513 3500 
z
" transform="scale(0.015625)"/>
      </defs>
      <use xlink:href="#DejaVuSans-4f"/>
      <use xlink:href="#DejaVuSans-68" transform="translate(78.710938 0)"/>
      <use xlink:href="#DejaVuSans-6e" transform="translate(142.089844 0)"/>
      <use xlink:href="#DejaVuSans-65" transform="translate(205.46875 0)"/>
      <use xlink:href="#DejaVuSans-20" transform="translate(266.992188 0)"/>
      <use xlink:href="#DejaVuSans-28" transform="translate(298.779297 0)"/>
      <use xlink:href="#DejaVuSans-4d" transform="translate(337.792969 0)"/>
      <use xlink:href="#DejaVuSans-69" transform="translate(424.072266 0)"/>
      <use xlink:href="#DejaVuSans-6e" transform="translate(451.855469 0)"/>
      <use xlink:href="#DejaVuSans-2e" transform="translate(515.234375 0)"/>
      <use xlink:href="#DejaVuSans-2f" transform="translate(547.021484 0)"/>
      <use xlink:href="#DejaVuSans-4d" transform="translate(580.712891 0)"/>
      <use xlink:href="#DejaVuSans-61" transform="translate(666.992188 0)"/>
      <use xlink:href="#DejaVuSans-78" transform="translate(728.271484 0)"/>
      <use xlink:href="#DejaVuSans-2e" transform="translate(787.451172 0)"/>
      <use xlink:href="#DejaVuSans-29" transform="translate(819.238281 0)"/>
     </g>
    </g>
    <g id="line2d_40">
     <path d="M 1114.365 332.466563 
L 1131.965 332.466563 
L 1149.565 332.466563 
" style="fill: none; stroke-dasharray: 5.55,2.4; stroke-dashoffset: 0; stroke: #b1bd00; stroke-opacity: 0.7; stroke-width: 1.5"/>
    </g>
    <g id="text_22">
     <!-- Mit (Min./Max.) -->
     <g transform="translate(1162.365 343.666563) scale(0.32 -0.32)">
      <use xlink:href="#DejaVuSans-4d"/>
      <use xlink:href="#DejaVuSans-69" transform="translate(86.279297 0)"/>
      <use xlink:href="#DejaVuSans-74" transform="translate(114.0625 0)"/>
      <use xlink:href="#DejaVuSans-20" transform="translate(153.271484 0)"/>
      <use xlink:href="#DejaVuSans-28" transform="translate(185.058594 0)"/>
      <use xlink:href="#DejaVuSans-4d" transform="translate(224.072266 0)"/>
      <use xlink:href="#DejaVuSans-69" transform="translate(310.351562 0)"/>
      <use xlink:href="#DejaVuSans-6e" transform="translate(338.134766 0)"/>
      <use xlink:href="#DejaVuSans-2e" transform="translate(401.513672 0)"/>
      <use xlink:href="#DejaVuSans-2f" transform="translate(433.300781 0)"/>
      <use xlink:href="#DejaVuSans-4d" transform="translate(466.992188 0)"/>
      <use xlink:href="#DejaVuSans-61" transform="translate(553.271484 0)"/>
      <use xlink:href="#DejaVuSans-78" transform="translate(614.550781 0)"/>
      <use xlink:href="#DejaVuSans-2e" transform="translate(673.730469 0)"/>
      <use xlink:href="#DejaVuSans-29" transform="translate(705.517578 0)"/>
     </g>
    </g>
    <g id="line2d_41">
     <path d="M 1423.01 332.466563 
L 1440.61 332.466563 
L 1458.21 332.466563 
" style="fill: none; stroke-dasharray: 2,3.3; stroke-dashoffset: 0; stroke: #cc4c03; stroke-width: 2"/>
    </g>
    <g id="text_23">
     <!-- Sollwert -->
     <g transform="translate(1471.01 343.666563) scale(0.32 -0.32)">
      <defs>
       <path id="DejaVuSans-77" d="M 269 3500 
L 844 3500 
L 1563 769 
L 2278 3500 
L 2956 3500 
L 3675 769 
L 4391 3500 
L 4966 3500 
L 4050 0 
L 3372 0 
L 2619 2869 
L 1863 0 
L 1184 0 
L 269 3500 
z
" transform="scale(0.015625)"/>
      </defs>
      <use xlink:href="#DejaVuSans-53"/>
      <use xlink:href="#DejaVuSans-6f" transform="translate(63.476562 0)"/>
      <use xlink:href="#DejaVuSans-6c" transform="translate(124.658203 0)"/>
      <use xlink:href="#DejaVuSans-6c" transform="translate(152.441406 0)"/>
      <use xlink:href="#DejaVuSans-77" transform="translate(180.224609 0)"/>
      <use xlink:href="#DejaVuSans-65" transform="translate(262.011719 0)"/>
      <use xlink:href="#DejaVuSans-72" transform="translate(323.535156 0)"/>
      <use xlink:href="#DejaVuSans-74" transform="translate(364.648438 0)"/>
     </g>
    </g>
   </g>
  </g>
 </g>
 <defs>
  <clipPath id="pd906a470c7">
   <rect x="136.99" y="49.801563" width="1468.8" height="319.72"/>
  </clipPath>
 </defs>
</svg>
